G04 Layer_Physical_Order=2*
G04 Layer_Color=16711680*
%FSLAX44Y44*%
%MOMM*%
G71*
G01*
G75*
%ADD10C,1.0000*%
%ADD11C,0.2540*%
%ADD12C,3.3000*%
%ADD13C,1.5240*%
%ADD14O,2.5400X1.2700*%
%ADD15R,2.5400X1.2700*%
%ADD16C,1.4000*%
%ADD17C,1.5000*%
%ADD18R,1.5000X1.5000*%
%ADD19O,7.0000X3.0000*%
%ADD20O,2.5400X1.6510*%
%ADD21R,1.7000X1.7000*%
%ADD22C,1.7000*%
%ADD23C,1.2700*%
G36*
X1438415Y1331042D02*
X1437901Y1329802D01*
X1437552Y1327150D01*
X1437901Y1324498D01*
X1438925Y1322026D01*
X1439809Y1320875D01*
X1439182Y1319605D01*
X1435439D01*
X1431785Y1323259D01*
X1432298Y1324498D01*
X1432648Y1327150D01*
X1432298Y1329802D01*
X1431275Y1332274D01*
X1429646Y1334396D01*
X1427524Y1336025D01*
X1425052Y1337048D01*
X1422400Y1337398D01*
X1419748Y1337048D01*
X1417276Y1336025D01*
X1415154Y1334396D01*
X1413525Y1332274D01*
X1412502Y1329802D01*
X1412152Y1327150D01*
X1412502Y1324498D01*
X1413525Y1322026D01*
X1415154Y1319904D01*
X1417276Y1318275D01*
X1419748Y1317251D01*
X1422400Y1316902D01*
X1425052Y1317251D01*
X1426292Y1317765D01*
X1431083Y1312973D01*
X1432182Y1312239D01*
X1432178Y1311614D01*
X1431971Y1310969D01*
X1310725D01*
X1298435Y1323259D01*
X1298949Y1324498D01*
X1299298Y1327150D01*
X1298949Y1329802D01*
X1297925Y1332274D01*
X1297041Y1333425D01*
X1297668Y1334695D01*
X1305833D01*
X1306459Y1333425D01*
X1305575Y1332274D01*
X1304552Y1329802D01*
X1304202Y1327150D01*
X1304552Y1324498D01*
X1305575Y1322026D01*
X1307204Y1319904D01*
X1309326Y1318275D01*
X1311798Y1317251D01*
X1314450Y1316902D01*
X1317102Y1317251D01*
X1319574Y1318275D01*
X1321696Y1319904D01*
X1323325Y1322026D01*
X1324348Y1324498D01*
X1324698Y1327150D01*
X1324348Y1329802D01*
X1323325Y1332274D01*
X1322441Y1333425D01*
X1323067Y1334695D01*
X1326811D01*
X1330465Y1331042D01*
X1329951Y1329802D01*
X1329602Y1327150D01*
X1329951Y1324498D01*
X1330975Y1322026D01*
X1332604Y1319904D01*
X1334726Y1318275D01*
X1337198Y1317251D01*
X1339850Y1316902D01*
X1342502Y1317251D01*
X1344974Y1318275D01*
X1347096Y1319904D01*
X1348725Y1322026D01*
X1349749Y1324498D01*
X1350098Y1327150D01*
X1349749Y1329802D01*
X1348725Y1332274D01*
X1347096Y1334396D01*
X1344974Y1336025D01*
X1342502Y1337048D01*
X1339850Y1337398D01*
X1337198Y1337048D01*
X1335959Y1336535D01*
X1333892Y1338602D01*
X1334378Y1339775D01*
X1429681D01*
X1438415Y1331042D01*
D02*
G37*
G36*
X1716543Y1332060D02*
X1715949Y1330857D01*
X1714500Y1331048D01*
X1711848Y1330699D01*
X1709376Y1329675D01*
X1707722Y1328405D01*
X1645078D01*
X1643424Y1329675D01*
X1640952Y1330699D01*
X1638300Y1331048D01*
X1635648Y1330699D01*
X1633176Y1329675D01*
X1631054Y1328046D01*
X1629425Y1325924D01*
X1628401Y1323452D01*
X1628052Y1320800D01*
X1628401Y1318148D01*
X1629425Y1315676D01*
X1631054Y1313554D01*
X1632768Y1312239D01*
X1632337Y1310969D01*
X1514429D01*
X1514222Y1311614D01*
X1514218Y1312239D01*
X1515317Y1312973D01*
X1520397Y1318053D01*
X1521239Y1319313D01*
X1521387Y1320056D01*
X1522744Y1320372D01*
X1523104Y1319904D01*
X1525226Y1318275D01*
X1527698Y1317251D01*
X1530350Y1316902D01*
X1533002Y1317251D01*
X1535474Y1318275D01*
X1537596Y1319904D01*
X1539225Y1322026D01*
X1540249Y1324498D01*
X1540598Y1327150D01*
X1540249Y1329802D01*
X1539225Y1332274D01*
X1538341Y1333425D01*
X1538967Y1334695D01*
X1547133D01*
X1547759Y1333425D01*
X1546875Y1332274D01*
X1545851Y1329802D01*
X1545502Y1327150D01*
X1545851Y1324498D01*
X1546875Y1322026D01*
X1548504Y1319904D01*
X1550626Y1318275D01*
X1553098Y1317251D01*
X1555750Y1316902D01*
X1558402Y1317251D01*
X1560874Y1318275D01*
X1562996Y1319904D01*
X1564625Y1322026D01*
X1565648Y1324498D01*
X1565998Y1327150D01*
X1565648Y1329802D01*
X1564625Y1332274D01*
X1563741Y1333425D01*
X1564368Y1334695D01*
X1572533D01*
X1573159Y1333425D01*
X1572275Y1332274D01*
X1571252Y1329802D01*
X1570902Y1327150D01*
X1571252Y1324498D01*
X1572275Y1322026D01*
X1573904Y1319904D01*
X1576026Y1318275D01*
X1578498Y1317251D01*
X1581150Y1316902D01*
X1583802Y1317251D01*
X1586274Y1318275D01*
X1588396Y1319904D01*
X1590025Y1322026D01*
X1591048Y1324498D01*
X1591398Y1327150D01*
X1591048Y1329802D01*
X1590025Y1332274D01*
X1589141Y1333425D01*
X1589767Y1334695D01*
X1597932D01*
X1598559Y1333425D01*
X1597675Y1332274D01*
X1596651Y1329802D01*
X1596302Y1327150D01*
X1596651Y1324498D01*
X1597675Y1322026D01*
X1599304Y1319904D01*
X1601426Y1318275D01*
X1603898Y1317251D01*
X1606550Y1316902D01*
X1609202Y1317251D01*
X1611674Y1318275D01*
X1613796Y1319904D01*
X1615425Y1322026D01*
X1616449Y1324498D01*
X1616798Y1327150D01*
X1616449Y1329802D01*
X1615425Y1332274D01*
X1614541Y1333425D01*
X1615168Y1334695D01*
X1713907D01*
X1716543Y1332060D01*
D02*
G37*
G36*
X1281059Y1333425D02*
X1280175Y1332274D01*
X1279152Y1329802D01*
X1278802Y1327150D01*
X1279152Y1324498D01*
X1280175Y1322026D01*
X1281804Y1319904D01*
X1283926Y1318275D01*
X1286398Y1317251D01*
X1289050Y1316902D01*
X1291702Y1317251D01*
X1292941Y1317765D01*
X1306369Y1304337D01*
X1307629Y1303495D01*
X1309116Y1303199D01*
X1735243D01*
X1798245Y1240197D01*
Y1227818D01*
X1796975Y1227191D01*
X1795824Y1228075D01*
X1793352Y1229099D01*
X1790700Y1229448D01*
X1788048Y1229099D01*
X1785576Y1228075D01*
X1783454Y1226446D01*
X1781825Y1224324D01*
X1781312Y1223085D01*
X1721677D01*
X1721268Y1224287D01*
X1721746Y1224654D01*
X1723375Y1226776D01*
X1724398Y1229248D01*
X1724748Y1231900D01*
X1724398Y1234552D01*
X1723375Y1237024D01*
X1721746Y1239146D01*
X1719624Y1240775D01*
X1717152Y1241798D01*
X1714500Y1242148D01*
X1711848Y1241798D01*
X1709376Y1240775D01*
X1707254Y1239146D01*
X1705625Y1237024D01*
X1705112Y1235785D01*
X1647688D01*
X1647175Y1237024D01*
X1645546Y1239146D01*
X1643424Y1240775D01*
X1640952Y1241798D01*
X1638300Y1242148D01*
X1635648Y1241798D01*
X1633176Y1240775D01*
X1631054Y1239146D01*
X1629425Y1237024D01*
X1628912Y1235785D01*
X1303921D01*
X1303673Y1236383D01*
X1302248Y1238240D01*
X1300391Y1239665D01*
X1298229Y1240561D01*
X1295908Y1240867D01*
X1293587Y1240561D01*
X1291425Y1239665D01*
X1289568Y1238240D01*
X1288143Y1236383D01*
X1287247Y1234221D01*
X1286941Y1231900D01*
X1287247Y1229579D01*
X1288143Y1227417D01*
X1289568Y1225560D01*
X1291425Y1224135D01*
X1293587Y1223239D01*
X1295908Y1222933D01*
X1298229Y1223239D01*
X1300391Y1224135D01*
X1302248Y1225560D01*
X1303673Y1227417D01*
X1303921Y1228015D01*
X1628912D01*
X1629425Y1226776D01*
X1631054Y1224654D01*
X1631532Y1224287D01*
X1631123Y1223085D01*
X1361694D01*
X1360207Y1222789D01*
X1358947Y1221947D01*
X1348533Y1211533D01*
X1347691Y1210273D01*
X1347395Y1208786D01*
Y1183367D01*
X1346125Y1182741D01*
X1344974Y1183625D01*
X1342502Y1184649D01*
X1339850Y1184998D01*
X1337198Y1184649D01*
X1334726Y1183625D01*
X1332604Y1181996D01*
X1331035Y1179951D01*
X1330900Y1179945D01*
X1329765Y1180592D01*
Y1181100D01*
X1329469Y1182587D01*
X1328627Y1183847D01*
X1323547Y1188927D01*
X1322287Y1189769D01*
X1320800Y1190065D01*
X1275080D01*
X1273593Y1189769D01*
X1272333Y1188927D01*
X1267542Y1184135D01*
X1266302Y1184649D01*
X1263650Y1184998D01*
X1260998Y1184649D01*
X1258526Y1183625D01*
X1256404Y1181996D01*
X1254775Y1179874D01*
X1253752Y1177402D01*
X1253402Y1174750D01*
X1253752Y1172098D01*
X1254775Y1169626D01*
X1255659Y1168475D01*
X1255033Y1167205D01*
X1246868D01*
X1246241Y1168475D01*
X1247125Y1169626D01*
X1248148Y1172098D01*
X1248498Y1174750D01*
X1248148Y1177402D01*
X1247125Y1179874D01*
X1245496Y1181996D01*
X1243374Y1183625D01*
X1242135Y1184138D01*
Y1187196D01*
X1241839Y1188683D01*
X1240997Y1189943D01*
X1221947Y1208993D01*
X1220687Y1209835D01*
X1219200Y1210131D01*
X1213259D01*
X1212828Y1211401D01*
X1213661Y1212039D01*
X1215270Y1214137D01*
X1216282Y1216579D01*
X1216627Y1219200D01*
X1216282Y1221821D01*
X1215270Y1224263D01*
X1213661Y1226361D01*
X1213159Y1226745D01*
X1213590Y1228015D01*
X1243699D01*
X1243947Y1227417D01*
X1245372Y1225560D01*
X1247229Y1224135D01*
X1249391Y1223239D01*
X1251712Y1222933D01*
X1254033Y1223239D01*
X1256195Y1224135D01*
X1258052Y1225560D01*
X1259477Y1227417D01*
X1260373Y1229579D01*
X1260679Y1231900D01*
X1260373Y1234221D01*
X1259477Y1236383D01*
X1258052Y1238240D01*
X1256195Y1239665D01*
X1254033Y1240561D01*
X1251712Y1240867D01*
X1249391Y1240561D01*
X1247229Y1239665D01*
X1245372Y1238240D01*
X1243947Y1236383D01*
X1243699Y1235785D01*
X1213590D01*
X1213159Y1237055D01*
X1213661Y1237439D01*
X1215270Y1239537D01*
X1216282Y1241979D01*
X1216627Y1244600D01*
X1216282Y1247221D01*
X1215270Y1249663D01*
X1214340Y1250875D01*
X1214966Y1252145D01*
X1624330D01*
X1625817Y1252441D01*
X1627077Y1253283D01*
X1634409Y1260615D01*
X1635648Y1260101D01*
X1638300Y1259752D01*
X1640952Y1260101D01*
X1643424Y1261125D01*
X1645546Y1262754D01*
X1647175Y1264876D01*
X1647688Y1266115D01*
X1705112D01*
X1705625Y1264876D01*
X1707254Y1262754D01*
X1709376Y1261125D01*
X1711848Y1260101D01*
X1714500Y1259752D01*
X1717152Y1260101D01*
X1719624Y1261125D01*
X1721746Y1262754D01*
X1723375Y1264876D01*
X1724398Y1267348D01*
X1724748Y1270000D01*
X1724398Y1272652D01*
X1723375Y1275124D01*
X1721746Y1277246D01*
X1719624Y1278875D01*
X1717152Y1279899D01*
X1714500Y1280248D01*
X1711848Y1279899D01*
X1709376Y1278875D01*
X1707254Y1277246D01*
X1705625Y1275124D01*
X1705112Y1273885D01*
X1647688D01*
X1647175Y1275124D01*
X1645546Y1277246D01*
X1643424Y1278875D01*
X1640952Y1279899D01*
X1638300Y1280248D01*
X1635648Y1279899D01*
X1633176Y1278875D01*
X1631054Y1277246D01*
X1629425Y1275124D01*
X1628401Y1272652D01*
X1628052Y1270000D01*
X1628401Y1267348D01*
X1628915Y1266108D01*
X1622721Y1259915D01*
X1211706D01*
X1211454Y1261185D01*
X1211563Y1261230D01*
X1213661Y1262839D01*
X1215270Y1264937D01*
X1216282Y1267379D01*
X1216627Y1270000D01*
X1216282Y1272621D01*
X1215270Y1275063D01*
X1213661Y1277161D01*
X1213159Y1277545D01*
X1213590Y1278815D01*
X1219200D01*
X1220687Y1279111D01*
X1221947Y1279953D01*
X1259759Y1317765D01*
X1260998Y1317251D01*
X1263650Y1316902D01*
X1266302Y1317251D01*
X1268774Y1318275D01*
X1270896Y1319904D01*
X1272525Y1322026D01*
X1273549Y1324498D01*
X1273898Y1327150D01*
X1273549Y1329802D01*
X1272525Y1332274D01*
X1271641Y1333425D01*
X1272268Y1334695D01*
X1280432D01*
X1281059Y1333425D01*
D02*
G37*
G36*
X1228865Y1331042D02*
X1228352Y1329802D01*
X1228002Y1327150D01*
X1228352Y1324498D01*
X1229375Y1322026D01*
X1231004Y1319904D01*
X1233126Y1318275D01*
X1235598Y1317251D01*
X1237787Y1316963D01*
X1238361Y1315811D01*
X1237754Y1315033D01*
X1192784D01*
X1191297Y1314737D01*
X1190037Y1313895D01*
X1179999Y1303857D01*
X1170105D01*
X1169932Y1304364D01*
X1169832Y1305127D01*
X1181684Y1316979D01*
X1183752Y1317251D01*
X1186224Y1318275D01*
X1188346Y1319904D01*
X1189975Y1322026D01*
X1190999Y1324498D01*
X1191180Y1325880D01*
X1181100D01*
Y1328420D01*
X1191180D01*
X1190999Y1329802D01*
X1189975Y1332274D01*
X1189091Y1333425D01*
X1189717Y1334695D01*
X1225211D01*
X1228865Y1331042D01*
D02*
G37*
G36*
X1182553Y1294980D02*
X1175427Y1287855D01*
X1138766D01*
X1138140Y1289125D01*
X1139070Y1290337D01*
X1140082Y1292779D01*
X1140382Y1295059D01*
X1141442Y1296143D01*
X1141723Y1296087D01*
X1181608D01*
X1181927Y1296151D01*
X1182553Y1294980D01*
D02*
G37*
G36*
X1048882Y1345206D02*
X1022729Y1319053D01*
X1022131Y1319301D01*
X1019810Y1319607D01*
X1017489Y1319301D01*
X1015327Y1318405D01*
X1013470Y1316980D01*
X1012045Y1315123D01*
X1011149Y1312961D01*
X1010843Y1310640D01*
X1011149Y1308319D01*
X1012045Y1306157D01*
X1013470Y1304300D01*
X1015327Y1302875D01*
X1017489Y1301979D01*
X1019810Y1301673D01*
X1022131Y1301979D01*
X1024293Y1302875D01*
X1026150Y1304300D01*
X1027575Y1306157D01*
X1028471Y1308319D01*
X1028777Y1310640D01*
X1028471Y1312961D01*
X1028223Y1313560D01*
X1054439Y1339775D01*
X1130880D01*
X1131335Y1338505D01*
X1130155Y1336967D01*
X1129259Y1334805D01*
X1128953Y1332484D01*
X1129259Y1330163D01*
X1130155Y1328001D01*
X1131580Y1326144D01*
X1133437Y1324719D01*
X1134217Y1324395D01*
X1133964Y1323125D01*
X1048312D01*
X1046344Y1322866D01*
X1045270Y1322421D01*
X1044510Y1322107D01*
X1043229Y1321124D01*
X1042889Y1321079D01*
X1040727Y1320183D01*
X1038870Y1318758D01*
X1037445Y1316901D01*
X1036549Y1314739D01*
X1036411Y1313688D01*
X1045210D01*
Y1312418D01*
X1046480D01*
Y1303618D01*
X1047531Y1303757D01*
X1049693Y1304653D01*
X1051550Y1306078D01*
X1052961Y1307915D01*
X1096635D01*
X1096887Y1306645D01*
X1095845Y1306213D01*
X1093988Y1304788D01*
X1092563Y1302931D01*
X1091667Y1300769D01*
X1091361Y1298448D01*
X1091667Y1296127D01*
X1092563Y1293965D01*
X1093988Y1292108D01*
X1095845Y1290683D01*
X1098007Y1289787D01*
X1100328Y1289481D01*
X1102649Y1289787D01*
X1104811Y1290683D01*
X1106668Y1292108D01*
X1108093Y1293965D01*
X1108341Y1294563D01*
X1110608D01*
X1112094Y1294859D01*
X1113355Y1295701D01*
X1120479Y1302825D01*
X1121742D01*
X1122368Y1301555D01*
X1121530Y1300463D01*
X1120518Y1298021D01*
X1120173Y1295400D01*
X1120518Y1292779D01*
X1121530Y1290337D01*
X1122460Y1289125D01*
X1121834Y1287855D01*
X978801D01*
X978553Y1288453D01*
X977128Y1290310D01*
X975271Y1291735D01*
X973109Y1292631D01*
X970788Y1292937D01*
X968467Y1292631D01*
X966305Y1291735D01*
X964448Y1290310D01*
X963023Y1288453D01*
X962127Y1286291D01*
X961821Y1283970D01*
X962127Y1281649D01*
X963023Y1279487D01*
X964448Y1277630D01*
X966305Y1276205D01*
X968467Y1275309D01*
X970788Y1275003D01*
X973109Y1275309D01*
X975271Y1276205D01*
X977128Y1277630D01*
X978553Y1279487D01*
X978801Y1280085D01*
X1125094D01*
X1125346Y1278815D01*
X1125237Y1278770D01*
X1123139Y1277161D01*
X1121530Y1275063D01*
X1120518Y1272621D01*
X1120173Y1270000D01*
X1120518Y1267379D01*
X1121530Y1264937D01*
X1123139Y1262839D01*
X1125237Y1261230D01*
X1125346Y1261185D01*
X1125094Y1259915D01*
X1099312D01*
X1097825Y1259619D01*
X1096565Y1258777D01*
X1088559Y1250771D01*
X1080770D01*
Y1268476D01*
X1050290D01*
Y1250771D01*
X949978D01*
X949650Y1252041D01*
X951220Y1253246D01*
X952645Y1255103D01*
X953541Y1257265D01*
X953847Y1259586D01*
X953541Y1261907D01*
X952645Y1264069D01*
X951220Y1265926D01*
X949363Y1267351D01*
X947201Y1268247D01*
X944880Y1268553D01*
X932180D01*
X929859Y1268247D01*
X927697Y1267351D01*
X925840Y1265926D01*
X924415Y1264069D01*
X923519Y1261907D01*
X923213Y1259586D01*
X923519Y1257265D01*
X924415Y1255103D01*
X925840Y1253246D01*
X927697Y1251821D01*
X927845Y1251759D01*
X927880Y1250926D01*
X927795Y1250405D01*
X926639Y1249633D01*
X919273Y1242267D01*
X918431Y1241007D01*
X918135Y1239520D01*
Y957326D01*
X918431Y955839D01*
X919273Y954579D01*
X921813Y952039D01*
X923073Y951197D01*
X924131Y950987D01*
X924415Y950303D01*
X925840Y948446D01*
X927470Y947194D01*
X927352Y946272D01*
X927174Y945884D01*
X926121Y945675D01*
X924861Y944833D01*
X914193Y934165D01*
X913351Y932905D01*
X913055Y931418D01*
Y883920D01*
X913351Y882433D01*
X914193Y881173D01*
X919527Y875839D01*
X920787Y874997D01*
X922274Y874701D01*
X924167D01*
X924415Y874103D01*
X925840Y872246D01*
X927697Y870821D01*
X929859Y869925D01*
X932180Y869619D01*
X944880D01*
X947201Y869925D01*
X949363Y870821D01*
X951220Y872246D01*
X952645Y874103D01*
X953541Y876265D01*
X953607Y876765D01*
X954962Y877329D01*
X955473Y876939D01*
Y834644D01*
X955769Y833157D01*
X956611Y831897D01*
X1031033Y757475D01*
X1032293Y756633D01*
X1033780Y756337D01*
X1093216D01*
X1094703Y756633D01*
X1095963Y757475D01*
X1115399Y776911D01*
X1124480D01*
X1124911Y775641D01*
X1124409Y775257D01*
X1122800Y773159D01*
X1121788Y770717D01*
X1121443Y768096D01*
X1121788Y765475D01*
X1122800Y763033D01*
X1124409Y760935D01*
X1126507Y759326D01*
X1128949Y758314D01*
X1131570Y757969D01*
X1134191Y758314D01*
X1135370Y758803D01*
X1139210Y754963D01*
X1138684Y753693D01*
X905331D01*
Y899287D01*
Y1199769D01*
Y1237329D01*
Y1312450D01*
Y1346379D01*
X1048396D01*
X1048882Y1345206D01*
D02*
G37*
G36*
X1237096Y1306090D02*
X1217810Y1286804D01*
X1216540Y1287113D01*
Y1305440D01*
X1196460D01*
Y1299285D01*
X1188466D01*
X1188147Y1299221D01*
X1187521Y1300392D01*
X1194393Y1307263D01*
X1236610D01*
X1237096Y1306090D01*
D02*
G37*
G36*
X1196460Y1286585D02*
X1195070D01*
X1193583Y1286289D01*
X1192323Y1285447D01*
X1180761Y1273885D01*
X1139558D01*
X1139070Y1275063D01*
X1137461Y1277161D01*
X1135363Y1278770D01*
X1135254Y1278815D01*
X1135506Y1280085D01*
X1177036D01*
X1178523Y1280381D01*
X1179783Y1281223D01*
X1190075Y1291515D01*
X1196460D01*
Y1286585D01*
D02*
G37*
G36*
X1199841Y1277545D02*
X1199339Y1277161D01*
X1197730Y1275063D01*
X1196718Y1272621D01*
X1196373Y1270000D01*
X1196718Y1267379D01*
X1197730Y1264937D01*
X1199339Y1262839D01*
X1201437Y1261230D01*
X1201546Y1261185D01*
X1201294Y1259915D01*
X1135506D01*
X1135254Y1261185D01*
X1135363Y1261230D01*
X1137461Y1262839D01*
X1139070Y1264937D01*
X1139558Y1266115D01*
X1182370D01*
X1183857Y1266411D01*
X1185117Y1267253D01*
X1196679Y1278815D01*
X1199410D01*
X1199841Y1277545D01*
D02*
G37*
G36*
X1198660Y1250875D02*
X1197730Y1249663D01*
X1196718Y1247221D01*
X1196373Y1244600D01*
X1196718Y1241979D01*
X1197730Y1239537D01*
X1199339Y1237439D01*
X1199841Y1237055D01*
X1199410Y1235785D01*
X1143000D01*
X1141513Y1235489D01*
X1140253Y1234647D01*
X1134100Y1228493D01*
X1132921Y1228982D01*
X1130300Y1229327D01*
X1127679Y1228982D01*
X1125237Y1227970D01*
X1123139Y1226361D01*
X1121530Y1224263D01*
X1120518Y1221821D01*
X1120173Y1219200D01*
X1120518Y1216579D01*
X1121530Y1214137D01*
X1123139Y1212039D01*
X1125237Y1210430D01*
X1127679Y1209418D01*
X1130300Y1209073D01*
X1132921Y1209418D01*
X1135363Y1210430D01*
X1137461Y1212039D01*
X1139070Y1214137D01*
X1140082Y1216579D01*
X1140427Y1219200D01*
X1140082Y1221821D01*
X1139593Y1223000D01*
X1144609Y1228015D01*
X1199410D01*
X1199841Y1226745D01*
X1199339Y1226361D01*
X1197730Y1224263D01*
X1196718Y1221821D01*
X1196373Y1219200D01*
X1196718Y1216579D01*
X1197730Y1214137D01*
X1199339Y1212039D01*
X1200172Y1211401D01*
X1199741Y1210131D01*
X1162050D01*
X1160563Y1209835D01*
X1159303Y1208993D01*
X1151761Y1201451D01*
X1151163Y1201699D01*
X1148842Y1202005D01*
X1146521Y1201699D01*
X1144359Y1200803D01*
X1142502Y1199378D01*
X1141077Y1197521D01*
X1141039Y1197429D01*
X1139664D01*
X1139070Y1198863D01*
X1137461Y1200961D01*
X1135363Y1202570D01*
X1132921Y1203582D01*
X1130300Y1203927D01*
X1127679Y1203582D01*
X1125237Y1202570D01*
X1123139Y1200961D01*
X1121530Y1198863D01*
X1120518Y1196421D01*
X1120173Y1193800D01*
X1120518Y1191179D01*
X1121530Y1188737D01*
X1123139Y1186639D01*
X1125237Y1185030D01*
X1127679Y1184018D01*
X1130300Y1183673D01*
X1132921Y1184018D01*
X1135363Y1185030D01*
X1137461Y1186639D01*
X1139070Y1188737D01*
X1139348Y1189409D01*
X1140723D01*
X1141077Y1188555D01*
X1142502Y1186698D01*
X1144359Y1185273D01*
X1145054Y1184985D01*
X1144801Y1183715D01*
X1141730D01*
X1140243Y1183419D01*
X1138983Y1182577D01*
X1134100Y1177693D01*
X1132921Y1178182D01*
X1130300Y1178527D01*
X1127679Y1178182D01*
X1125237Y1177170D01*
X1123139Y1175561D01*
X1121530Y1173463D01*
X1120518Y1171021D01*
X1120173Y1168400D01*
X1120518Y1165779D01*
X1121530Y1163337D01*
X1122460Y1162125D01*
X1121834Y1160855D01*
X1115907D01*
X1103329Y1173433D01*
X1102069Y1174275D01*
X1100582Y1174571D01*
X1076978D01*
X1076650Y1175841D01*
X1078220Y1177046D01*
X1079645Y1178903D01*
X1080541Y1181065D01*
X1080847Y1183386D01*
X1080541Y1185707D01*
X1079645Y1187869D01*
X1078220Y1189726D01*
X1076363Y1191151D01*
X1074201Y1192047D01*
X1071880Y1192353D01*
X1059180D01*
X1056859Y1192047D01*
X1054697Y1191151D01*
X1052840Y1189726D01*
X1051415Y1187869D01*
X1050519Y1185707D01*
X1050213Y1183386D01*
X1050519Y1181065D01*
X1051415Y1178903D01*
X1052840Y1177046D01*
X1054410Y1175841D01*
X1054082Y1174571D01*
X1014476D01*
X1012989Y1174275D01*
X1011729Y1173433D01*
X999283Y1160987D01*
X998441Y1159727D01*
X998145Y1158240D01*
Y1068409D01*
X990007Y1060271D01*
X952893D01*
X952645Y1060869D01*
X951220Y1062726D01*
X949363Y1064151D01*
X947201Y1065047D01*
X944880Y1065353D01*
X932180D01*
X929859Y1065047D01*
X927697Y1064151D01*
X927044Y1063650D01*
X925905Y1064212D01*
Y1073960D01*
X927044Y1074522D01*
X927697Y1074021D01*
X929859Y1073125D01*
X932180Y1072819D01*
X944880D01*
X947201Y1073125D01*
X949363Y1074021D01*
X951220Y1075446D01*
X952645Y1077303D01*
X953541Y1079465D01*
X953847Y1081786D01*
X953541Y1084107D01*
X952645Y1086269D01*
X951220Y1088126D01*
X949363Y1089551D01*
X947201Y1090447D01*
X944880Y1090753D01*
X932180D01*
X929859Y1090447D01*
X927697Y1089551D01*
X927044Y1089050D01*
X925905Y1089612D01*
Y1099360D01*
X927044Y1099922D01*
X927697Y1099421D01*
X929859Y1098525D01*
X932180Y1098219D01*
X944880D01*
X947201Y1098525D01*
X949363Y1099421D01*
X951220Y1100846D01*
X952645Y1102703D01*
X953541Y1104865D01*
X953847Y1107186D01*
X953541Y1109507D01*
X952645Y1111669D01*
X951220Y1113526D01*
X949363Y1114951D01*
X947201Y1115847D01*
X944880Y1116153D01*
X932180D01*
X929859Y1115847D01*
X927697Y1114951D01*
X927044Y1114450D01*
X925905Y1115012D01*
Y1124760D01*
X927044Y1125322D01*
X927697Y1124821D01*
X929859Y1123925D01*
X932180Y1123619D01*
X944880D01*
X947201Y1123925D01*
X949363Y1124821D01*
X951220Y1126246D01*
X952645Y1128103D01*
X953541Y1130265D01*
X953847Y1132586D01*
X953541Y1134907D01*
X952645Y1137069D01*
X951220Y1138926D01*
X949363Y1140351D01*
X947201Y1141247D01*
X944880Y1141553D01*
X932180D01*
X929859Y1141247D01*
X927697Y1140351D01*
X927044Y1139850D01*
X925905Y1140412D01*
Y1150160D01*
X927044Y1150722D01*
X927697Y1150221D01*
X929859Y1149325D01*
X932180Y1149019D01*
X944880D01*
X947201Y1149325D01*
X949363Y1150221D01*
X951220Y1151646D01*
X952645Y1153503D01*
X953541Y1155665D01*
X953847Y1157986D01*
X953541Y1160307D01*
X952645Y1162469D01*
X951220Y1164326D01*
X949363Y1165751D01*
X947201Y1166647D01*
X944880Y1166953D01*
X932180D01*
X929859Y1166647D01*
X927697Y1165751D01*
X927044Y1165250D01*
X925905Y1165812D01*
Y1175560D01*
X927044Y1176122D01*
X927697Y1175621D01*
X929859Y1174725D01*
X932180Y1174419D01*
X944880D01*
X947201Y1174725D01*
X949363Y1175621D01*
X951220Y1177046D01*
X952645Y1178903D01*
X952893Y1179501D01*
X996696D01*
X998183Y1179797D01*
X999443Y1180639D01*
X1006730Y1187927D01*
X1007329Y1187679D01*
X1009650Y1187373D01*
X1011971Y1187679D01*
X1014133Y1188575D01*
X1015990Y1190000D01*
X1017415Y1191857D01*
X1018311Y1194019D01*
X1018617Y1196340D01*
X1018311Y1198661D01*
X1017415Y1200823D01*
X1015990Y1202680D01*
X1014133Y1204105D01*
X1011971Y1205001D01*
X1009650Y1205307D01*
X1007329Y1205001D01*
X1005167Y1204105D01*
X1003310Y1202680D01*
X1001885Y1200823D01*
X1000989Y1198661D01*
X1000683Y1196340D01*
X1000989Y1194019D01*
X1001237Y1193420D01*
X995087Y1187271D01*
X952893D01*
X952645Y1187869D01*
X951220Y1189726D01*
X949363Y1191151D01*
X947201Y1192047D01*
X944880Y1192353D01*
X932180D01*
X929859Y1192047D01*
X927697Y1191151D01*
X927044Y1190650D01*
X925905Y1191212D01*
Y1200960D01*
X927044Y1201522D01*
X927697Y1201021D01*
X929859Y1200125D01*
X932180Y1199819D01*
X944880D01*
X947201Y1200125D01*
X949363Y1201021D01*
X951220Y1202446D01*
X952645Y1204303D01*
X953541Y1206465D01*
X953847Y1208786D01*
X953541Y1211107D01*
X952645Y1213269D01*
X951220Y1215126D01*
X949363Y1216551D01*
X947201Y1217447D01*
X944880Y1217753D01*
X932180D01*
X929859Y1217447D01*
X927697Y1216551D01*
X927044Y1216050D01*
X925905Y1216612D01*
Y1226360D01*
X927044Y1226922D01*
X927697Y1226421D01*
X929859Y1225525D01*
X932180Y1225219D01*
X944880D01*
X947201Y1225525D01*
X949363Y1226421D01*
X951220Y1227846D01*
X952645Y1229703D01*
X953541Y1231865D01*
X953847Y1234186D01*
X953541Y1236507D01*
X952645Y1238669D01*
X951220Y1240526D01*
X949650Y1241731D01*
X949978Y1243001D01*
X1054082D01*
X1054410Y1241731D01*
X1052840Y1240526D01*
X1051415Y1238669D01*
X1050519Y1236507D01*
X1050213Y1234186D01*
X1050519Y1231865D01*
X1051415Y1229703D01*
X1052840Y1227846D01*
X1054697Y1226421D01*
X1056859Y1225525D01*
X1059180Y1225219D01*
X1071880D01*
X1074201Y1225525D01*
X1076363Y1226421D01*
X1078220Y1227846D01*
X1079645Y1229703D01*
X1080541Y1231865D01*
X1080847Y1234186D01*
X1080541Y1236507D01*
X1079645Y1238669D01*
X1078220Y1240526D01*
X1076650Y1241731D01*
X1076978Y1243001D01*
X1090168D01*
X1091655Y1243297D01*
X1092915Y1244139D01*
X1100921Y1252145D01*
X1121834D01*
X1122460Y1250875D01*
X1121530Y1249663D01*
X1120518Y1247221D01*
X1120173Y1244600D01*
X1120518Y1241979D01*
X1121530Y1239537D01*
X1123139Y1237439D01*
X1125237Y1235830D01*
X1127679Y1234818D01*
X1130300Y1234473D01*
X1132921Y1234818D01*
X1135363Y1235830D01*
X1137461Y1237439D01*
X1139070Y1239537D01*
X1140082Y1241979D01*
X1140427Y1244600D01*
X1140082Y1247221D01*
X1139070Y1249663D01*
X1138140Y1250875D01*
X1138766Y1252145D01*
X1198034D01*
X1198660Y1250875D01*
D02*
G37*
G36*
X1705625Y1226776D02*
X1707254Y1224654D01*
X1707731Y1224287D01*
X1707323Y1223085D01*
X1645477D01*
X1645069Y1224287D01*
X1645546Y1224654D01*
X1647175Y1226776D01*
X1647688Y1228015D01*
X1705112D01*
X1705625Y1226776D01*
D02*
G37*
G36*
X1199598Y1201159D02*
X1199339Y1200961D01*
X1197730Y1198863D01*
X1196718Y1196421D01*
X1196373Y1193800D01*
X1196718Y1191179D01*
X1197730Y1188737D01*
X1199339Y1186639D01*
X1201437Y1185030D01*
X1201546Y1184985D01*
X1201294Y1183715D01*
X1152883D01*
X1152630Y1184985D01*
X1153325Y1185273D01*
X1155182Y1186698D01*
X1156607Y1188555D01*
X1157503Y1190717D01*
X1157809Y1193038D01*
X1157503Y1195359D01*
X1157255Y1195957D01*
X1163659Y1202361D01*
X1199189D01*
X1199598Y1201159D01*
D02*
G37*
G36*
X1234365Y1185587D02*
Y1184138D01*
X1233126Y1183625D01*
X1231004Y1181996D01*
X1229375Y1179874D01*
X1228352Y1177402D01*
X1228033Y1174985D01*
X1226903Y1174318D01*
X1218645Y1182577D01*
X1217385Y1183419D01*
X1215898Y1183715D01*
X1211706D01*
X1211454Y1184985D01*
X1211563Y1185030D01*
X1213661Y1186639D01*
X1215270Y1188737D01*
X1216282Y1191179D01*
X1216627Y1193800D01*
X1216282Y1196421D01*
X1215270Y1198863D01*
X1213661Y1200961D01*
X1213402Y1201159D01*
X1213811Y1202361D01*
X1217591D01*
X1234365Y1185587D01*
D02*
G37*
G36*
X1439809Y1181025D02*
X1438925Y1179874D01*
X1437901Y1177402D01*
X1437552Y1174750D01*
X1437901Y1172098D01*
X1438415Y1170859D01*
X1406821Y1139265D01*
X1397116D01*
X1396630Y1140438D01*
X1413717Y1157525D01*
X1414559Y1158785D01*
X1414855Y1160272D01*
Y1166133D01*
X1416125Y1166759D01*
X1417276Y1165875D01*
X1419748Y1164852D01*
X1422400Y1164502D01*
X1425052Y1164852D01*
X1427524Y1165875D01*
X1429646Y1167504D01*
X1431275Y1169626D01*
X1432298Y1172098D01*
X1432648Y1174750D01*
X1432298Y1177402D01*
X1431275Y1179874D01*
X1430391Y1181025D01*
X1431017Y1182295D01*
X1439182D01*
X1439809Y1181025D01*
D02*
G37*
G36*
X1407085Y1168908D02*
Y1161881D01*
X1389549Y1144345D01*
X1373748D01*
X1373262Y1145518D01*
X1393109Y1165365D01*
X1394348Y1164852D01*
X1397000Y1164502D01*
X1399652Y1164852D01*
X1402124Y1165875D01*
X1404246Y1167504D01*
X1405815Y1169549D01*
X1405950Y1169555D01*
X1407085Y1168908D01*
D02*
G37*
G36*
X1198660Y1174675D02*
X1197730Y1173463D01*
X1197242Y1172285D01*
X1184919D01*
X1183433Y1171989D01*
X1182172Y1171147D01*
X1171880Y1160855D01*
X1138766D01*
X1138140Y1162125D01*
X1139070Y1163337D01*
X1140082Y1165779D01*
X1140427Y1168400D01*
X1140082Y1171021D01*
X1139593Y1172200D01*
X1143339Y1175945D01*
X1198034D01*
X1198660Y1174675D01*
D02*
G37*
G36*
X1845997Y1050968D02*
X1844861Y1050349D01*
X1844727Y1050357D01*
X1843576Y1051858D01*
X1824780Y1070654D01*
X1823204Y1071862D01*
X1821370Y1072622D01*
X1819402Y1072881D01*
X1736516D01*
X1735567Y1073609D01*
X1733246Y1074570D01*
X1730756Y1074898D01*
X1728266Y1074570D01*
X1725945Y1073609D01*
X1724996Y1072881D01*
X1711116D01*
X1710167Y1073609D01*
X1707846Y1074570D01*
X1705356Y1074898D01*
X1702866Y1074570D01*
X1700545Y1073609D01*
X1699596Y1072881D01*
X1685716D01*
X1684767Y1073609D01*
X1682446Y1074570D01*
X1679956Y1074898D01*
X1677466Y1074570D01*
X1675145Y1073609D01*
X1674196Y1072881D01*
X1642974D01*
X1629421Y1086434D01*
X1629149Y1088502D01*
X1628125Y1090974D01*
X1626496Y1093096D01*
X1624374Y1094725D01*
X1621902Y1095749D01*
X1619250Y1096098D01*
X1616598Y1095749D01*
X1614126Y1094725D01*
X1612471Y1093455D01*
X1606550D01*
X1604582Y1093196D01*
X1602747Y1092436D01*
X1601172Y1091228D01*
X1593266Y1083321D01*
X1591198Y1083048D01*
X1588726Y1082025D01*
X1587072Y1080755D01*
X1524429D01*
X1522774Y1082025D01*
X1520302Y1083048D01*
X1517650Y1083398D01*
X1514998Y1083048D01*
X1512526Y1082025D01*
X1510871Y1080755D01*
X1501750D01*
X1496071Y1086434D01*
X1495798Y1088502D01*
X1494775Y1090974D01*
X1493146Y1093096D01*
X1491024Y1094725D01*
X1488552Y1095749D01*
X1485900Y1096098D01*
X1483248Y1095749D01*
X1480776Y1094725D01*
X1479122Y1093455D01*
X1473200D01*
X1471232Y1093196D01*
X1469397Y1092436D01*
X1467822Y1091228D01*
X1459916Y1083321D01*
X1457848Y1083048D01*
X1455376Y1082025D01*
X1453721Y1080755D01*
X1391078D01*
X1389424Y1082025D01*
X1386952Y1083048D01*
X1384300Y1083398D01*
X1381648Y1083048D01*
X1379176Y1082025D01*
X1377522Y1080755D01*
X1368400D01*
X1362721Y1086434D01*
X1362448Y1088502D01*
X1361425Y1090974D01*
X1359796Y1093096D01*
X1357751Y1094665D01*
X1357745Y1094800D01*
X1358392Y1095935D01*
X1361440D01*
X1362927Y1096231D01*
X1364187Y1097073D01*
X1374039Y1106925D01*
X1374881Y1108186D01*
X1375177Y1109672D01*
Y1117064D01*
X1376447Y1117495D01*
X1377054Y1116704D01*
X1379176Y1115075D01*
X1381648Y1114052D01*
X1384300Y1113702D01*
X1386952Y1114052D01*
X1389424Y1115075D01*
X1391546Y1116704D01*
X1393175Y1118826D01*
X1393688Y1120065D01*
X1451112D01*
X1451625Y1118826D01*
X1453254Y1116704D01*
X1455376Y1115075D01*
X1457848Y1114052D01*
X1460500Y1113702D01*
X1463152Y1114052D01*
X1464391Y1114565D01*
X1470453Y1108503D01*
X1471713Y1107661D01*
X1473200Y1107365D01*
X1476512D01*
X1477025Y1106126D01*
X1478654Y1104004D01*
X1480776Y1102375D01*
X1483248Y1101351D01*
X1485900Y1101002D01*
X1488552Y1101351D01*
X1491024Y1102375D01*
X1493146Y1104004D01*
X1494775Y1106126D01*
X1495798Y1108598D01*
X1496148Y1111250D01*
X1495798Y1113902D01*
X1494775Y1116374D01*
X1493146Y1118496D01*
X1491024Y1120125D01*
X1488552Y1121149D01*
X1485900Y1121498D01*
X1483248Y1121149D01*
X1480776Y1120125D01*
X1478654Y1118496D01*
X1477025Y1116374D01*
X1476512Y1115135D01*
X1474809D01*
X1469885Y1120059D01*
X1470399Y1121298D01*
X1470748Y1123950D01*
X1470399Y1126602D01*
X1469375Y1129074D01*
X1467746Y1131196D01*
X1465624Y1132825D01*
X1463152Y1133848D01*
X1460500Y1134198D01*
X1457848Y1133848D01*
X1455376Y1132825D01*
X1453254Y1131196D01*
X1451625Y1129074D01*
X1451112Y1127835D01*
X1393688D01*
X1393175Y1129074D01*
X1392291Y1130225D01*
X1392917Y1131495D01*
X1408430D01*
X1409917Y1131791D01*
X1411177Y1132633D01*
X1443909Y1165365D01*
X1445148Y1164852D01*
X1447800Y1164502D01*
X1450452Y1164852D01*
X1452924Y1165875D01*
X1455046Y1167504D01*
X1456675Y1169626D01*
X1457699Y1172098D01*
X1458048Y1174750D01*
X1457699Y1177402D01*
X1456675Y1179874D01*
X1455791Y1181025D01*
X1456418Y1182295D01*
X1464583D01*
X1465209Y1181025D01*
X1464325Y1179874D01*
X1463302Y1177402D01*
X1462952Y1174750D01*
X1463302Y1172098D01*
X1464325Y1169626D01*
X1465954Y1167504D01*
X1468076Y1165875D01*
X1470548Y1164852D01*
X1473200Y1164502D01*
X1475852Y1164852D01*
X1478324Y1165875D01*
X1480446Y1167504D01*
X1482075Y1169626D01*
X1483098Y1172098D01*
X1483448Y1174750D01*
X1483098Y1177402D01*
X1482075Y1179874D01*
X1481841Y1180179D01*
X1482385Y1181556D01*
X1482912Y1181643D01*
X1485317Y1179237D01*
Y1152398D01*
X1485613Y1150911D01*
X1486455Y1149651D01*
X1508265Y1127841D01*
X1507751Y1126602D01*
X1507402Y1123950D01*
X1507751Y1121298D01*
X1508775Y1118826D01*
X1510404Y1116704D01*
X1512526Y1115075D01*
X1514998Y1114052D01*
X1517650Y1113702D01*
X1520302Y1114052D01*
X1522774Y1115075D01*
X1524896Y1116704D01*
X1526525Y1118826D01*
X1527038Y1120065D01*
X1584462D01*
X1584975Y1118826D01*
X1586604Y1116704D01*
X1588726Y1115075D01*
X1591198Y1114052D01*
X1593850Y1113702D01*
X1596502Y1114052D01*
X1597742Y1114565D01*
X1603803Y1108503D01*
X1605063Y1107661D01*
X1606550Y1107365D01*
X1609862D01*
X1610375Y1106126D01*
X1612004Y1104004D01*
X1614126Y1102375D01*
X1616598Y1101351D01*
X1619250Y1101002D01*
X1621902Y1101351D01*
X1624374Y1102375D01*
X1626496Y1104004D01*
X1628125Y1106126D01*
X1629149Y1108598D01*
X1629498Y1111250D01*
X1629149Y1113902D01*
X1628125Y1116374D01*
X1626496Y1118496D01*
X1624374Y1120125D01*
X1621902Y1121149D01*
X1619250Y1121498D01*
X1616598Y1121149D01*
X1614126Y1120125D01*
X1612004Y1118496D01*
X1610375Y1116374D01*
X1609862Y1115135D01*
X1608159D01*
X1603235Y1120059D01*
X1603748Y1121298D01*
X1604098Y1123950D01*
X1603748Y1126602D01*
X1602725Y1129074D01*
X1601096Y1131196D01*
X1598974Y1132825D01*
X1596502Y1133848D01*
X1593850Y1134198D01*
X1591198Y1133848D01*
X1588726Y1132825D01*
X1586604Y1131196D01*
X1584975Y1129074D01*
X1584462Y1127835D01*
X1527038D01*
X1526525Y1129074D01*
X1524896Y1131196D01*
X1522774Y1132825D01*
X1520302Y1133848D01*
X1517650Y1134198D01*
X1514998Y1133848D01*
X1513759Y1133335D01*
X1493087Y1154007D01*
Y1180846D01*
X1492791Y1182333D01*
X1491949Y1183593D01*
X1486615Y1188927D01*
X1485355Y1189769D01*
X1483868Y1190065D01*
X1417320D01*
X1415833Y1189769D01*
X1414573Y1188927D01*
X1408223Y1182577D01*
X1407381Y1181317D01*
X1407144Y1180127D01*
X1406090Y1179893D01*
X1405848Y1179909D01*
X1404246Y1181996D01*
X1402124Y1183625D01*
X1399652Y1184649D01*
X1397000Y1184998D01*
X1394348Y1184649D01*
X1391876Y1183625D01*
X1389754Y1181996D01*
X1388125Y1179874D01*
X1387101Y1177402D01*
X1386752Y1174750D01*
X1387101Y1172098D01*
X1387615Y1170859D01*
X1366181Y1149425D01*
X1361440D01*
X1359953Y1149129D01*
X1358693Y1148287D01*
X1356021Y1145615D01*
X1340728D01*
X1340242Y1146788D01*
X1354027Y1160573D01*
X1354869Y1161833D01*
X1355165Y1163320D01*
Y1207177D01*
X1363303Y1215315D01*
X1781312D01*
X1781825Y1214076D01*
X1783454Y1211954D01*
X1785576Y1210325D01*
X1788048Y1209302D01*
X1790700Y1208952D01*
X1793352Y1209302D01*
X1795824Y1210325D01*
X1796975Y1211209D01*
X1798245Y1210583D01*
Y1170009D01*
X1787313Y1159077D01*
X1758207D01*
X1757776Y1160347D01*
X1759404Y1161596D01*
X1760933Y1163589D01*
X1761894Y1165910D01*
X1762055Y1167130D01*
X1752600D01*
X1743145D01*
X1743306Y1165910D01*
X1744267Y1163589D01*
X1745796Y1161596D01*
X1747424Y1160347D01*
X1746993Y1159077D01*
X1693672D01*
X1692185Y1158781D01*
X1690925Y1157939D01*
X1683373Y1150387D01*
X1682446Y1150770D01*
X1679956Y1151098D01*
X1677466Y1150770D01*
X1675145Y1149809D01*
X1673152Y1148280D01*
X1671623Y1146287D01*
X1670662Y1143966D01*
X1670334Y1141476D01*
X1670662Y1138986D01*
X1671623Y1136665D01*
X1673152Y1134672D01*
X1675145Y1133143D01*
X1677466Y1132182D01*
X1679956Y1131854D01*
X1682446Y1132182D01*
X1684767Y1133143D01*
X1686760Y1134672D01*
X1688289Y1136665D01*
X1689250Y1138986D01*
X1689578Y1141476D01*
X1689250Y1143966D01*
X1688867Y1144893D01*
X1695281Y1151307D01*
X1700843D01*
X1701096Y1150037D01*
X1700545Y1149809D01*
X1698552Y1148280D01*
X1697023Y1146287D01*
X1696062Y1143966D01*
X1695734Y1141476D01*
X1696062Y1138986D01*
X1697023Y1136665D01*
X1698552Y1134672D01*
X1700545Y1133143D01*
X1702866Y1132182D01*
X1705356Y1131854D01*
X1707846Y1132182D01*
X1708773Y1132565D01*
X1713531Y1127807D01*
X1714791Y1126965D01*
X1716278Y1126669D01*
X1793240D01*
X1794727Y1126965D01*
X1795987Y1127807D01*
X1809957Y1141777D01*
X1810799Y1143037D01*
X1811095Y1144524D01*
Y1246886D01*
X1810799Y1248373D01*
X1809957Y1249633D01*
X1718263Y1341327D01*
X1717003Y1342169D01*
X1715516Y1342465D01*
X1524000D01*
X1522513Y1342169D01*
X1521253Y1341327D01*
X1514903Y1334977D01*
X1514181Y1333896D01*
X1512834Y1333564D01*
X1512196Y1334396D01*
X1510074Y1336025D01*
X1507602Y1337048D01*
X1504950Y1337398D01*
X1502298Y1337048D01*
X1499826Y1336025D01*
X1497704Y1334396D01*
X1496075Y1332274D01*
X1495052Y1329802D01*
X1494702Y1327150D01*
X1495052Y1324498D01*
X1496075Y1322026D01*
X1496959Y1320875D01*
X1496333Y1319605D01*
X1481817D01*
X1481191Y1320875D01*
X1482075Y1322026D01*
X1483098Y1324498D01*
X1483448Y1327150D01*
X1483098Y1329802D01*
X1482075Y1332274D01*
X1480446Y1334396D01*
X1478324Y1336025D01*
X1475852Y1337048D01*
X1473200Y1337398D01*
X1470548Y1337048D01*
X1468076Y1336025D01*
X1465954Y1334396D01*
X1464325Y1332274D01*
X1463302Y1329802D01*
X1462952Y1327150D01*
X1463302Y1324498D01*
X1464325Y1322026D01*
X1465209Y1320875D01*
X1464583Y1319605D01*
X1456418D01*
X1455791Y1320875D01*
X1456675Y1322026D01*
X1457699Y1324498D01*
X1458048Y1327150D01*
X1457699Y1329802D01*
X1456675Y1332274D01*
X1455046Y1334396D01*
X1452924Y1336025D01*
X1450452Y1337048D01*
X1447800Y1337398D01*
X1445148Y1337048D01*
X1443909Y1336535D01*
X1435238Y1345206D01*
X1435724Y1346379D01*
X1845997D01*
Y1050968D01*
D02*
G37*
G36*
X1111551Y1154223D02*
X1112811Y1153381D01*
X1114298Y1153085D01*
X1125094D01*
X1125346Y1151815D01*
X1125237Y1151770D01*
X1123139Y1150161D01*
X1121530Y1148063D01*
X1120518Y1145621D01*
X1120173Y1143000D01*
X1120518Y1140379D01*
X1121530Y1137937D01*
X1123139Y1135839D01*
X1125237Y1134230D01*
X1125346Y1134185D01*
X1125094Y1132915D01*
X1116838D01*
X1115351Y1132619D01*
X1114091Y1131777D01*
X1080685Y1098371D01*
X1076978D01*
X1076650Y1099641D01*
X1078220Y1100846D01*
X1079645Y1102703D01*
X1080541Y1104865D01*
X1080847Y1107186D01*
X1080541Y1109507D01*
X1079645Y1111669D01*
X1078220Y1113526D01*
X1076363Y1114951D01*
X1074201Y1115847D01*
X1071880Y1116153D01*
X1059180D01*
X1056859Y1115847D01*
X1054697Y1114951D01*
X1052840Y1113526D01*
X1051415Y1111669D01*
X1050519Y1109507D01*
X1050213Y1107186D01*
X1050519Y1104865D01*
X1051415Y1102703D01*
X1052840Y1100846D01*
X1054410Y1099641D01*
X1054082Y1098371D01*
X1026160D01*
X1024673Y1098075D01*
X1023413Y1097233D01*
X1011221Y1085041D01*
X1010379Y1083781D01*
X1010083Y1082294D01*
Y997289D01*
X996865Y984071D01*
X952893D01*
X952645Y984669D01*
X951220Y986526D01*
X949363Y987951D01*
X947201Y988847D01*
X944880Y989153D01*
X932180D01*
X929859Y988847D01*
X927697Y987951D01*
X927044Y987450D01*
X925905Y988012D01*
Y997760D01*
X927044Y998322D01*
X927697Y997821D01*
X929859Y996925D01*
X932180Y996619D01*
X944880D01*
X947201Y996925D01*
X949363Y997821D01*
X951220Y999246D01*
X952645Y1001103D01*
X953541Y1003265D01*
X953847Y1005586D01*
X953541Y1007907D01*
X952645Y1010069D01*
X951220Y1011926D01*
X949363Y1013351D01*
X947201Y1014247D01*
X944880Y1014553D01*
X932180D01*
X929859Y1014247D01*
X927697Y1013351D01*
X927044Y1012850D01*
X925905Y1013412D01*
Y1023160D01*
X927044Y1023722D01*
X927697Y1023221D01*
X929859Y1022325D01*
X932180Y1022019D01*
X944880D01*
X947201Y1022325D01*
X949363Y1023221D01*
X951220Y1024646D01*
X952645Y1026503D01*
X953541Y1028665D01*
X953847Y1030986D01*
X953541Y1033307D01*
X952645Y1035469D01*
X951220Y1037326D01*
X949363Y1038751D01*
X947201Y1039647D01*
X944880Y1039953D01*
X932180D01*
X929859Y1039647D01*
X927697Y1038751D01*
X927044Y1038250D01*
X925905Y1038812D01*
Y1048560D01*
X927044Y1049122D01*
X927697Y1048621D01*
X929859Y1047725D01*
X932180Y1047419D01*
X944880D01*
X947201Y1047725D01*
X949363Y1048621D01*
X951220Y1050046D01*
X952645Y1051903D01*
X952893Y1052501D01*
X991616D01*
X993103Y1052797D01*
X994363Y1053639D01*
X1004777Y1064053D01*
X1005619Y1065313D01*
X1005915Y1066800D01*
Y1156631D01*
X1016085Y1166801D01*
X1054082D01*
X1054410Y1165531D01*
X1052840Y1164326D01*
X1051415Y1162469D01*
X1050519Y1160307D01*
X1050213Y1157986D01*
X1050519Y1155665D01*
X1051415Y1153503D01*
X1052840Y1151646D01*
X1054697Y1150221D01*
X1056859Y1149325D01*
X1059180Y1149019D01*
X1071880D01*
X1074201Y1149325D01*
X1076363Y1150221D01*
X1078220Y1151646D01*
X1079645Y1153503D01*
X1080541Y1155665D01*
X1080847Y1157986D01*
X1080541Y1160307D01*
X1079645Y1162469D01*
X1078220Y1164326D01*
X1076650Y1165531D01*
X1076978Y1166801D01*
X1098973D01*
X1111551Y1154223D01*
D02*
G37*
G36*
X1197730Y1163337D02*
X1199050Y1161617D01*
X1198539Y1160347D01*
X1192022D01*
X1190535Y1160051D01*
X1189275Y1159209D01*
X1176951Y1146885D01*
X1139558D01*
X1139070Y1148063D01*
X1137461Y1150161D01*
X1135363Y1151770D01*
X1135254Y1151815D01*
X1135506Y1153085D01*
X1173489D01*
X1174976Y1153381D01*
X1176236Y1154223D01*
X1186528Y1164515D01*
X1197242D01*
X1197730Y1163337D01*
D02*
G37*
G36*
X1331035Y1169549D02*
X1332604Y1167504D01*
X1334726Y1165875D01*
X1337198Y1164852D01*
X1339850Y1164502D01*
X1342502Y1164852D01*
X1344974Y1165875D01*
X1346125Y1166759D01*
X1347395Y1166133D01*
Y1164929D01*
X1333669Y1151203D01*
X1227208D01*
X1225722Y1150907D01*
X1224461Y1150065D01*
X1217848Y1143452D01*
X1216507Y1143907D01*
X1216282Y1145621D01*
X1215270Y1148063D01*
X1213661Y1150161D01*
X1212166Y1151307D01*
X1212597Y1152577D01*
X1313942D01*
X1315429Y1152873D01*
X1316689Y1153715D01*
X1328627Y1165653D01*
X1329469Y1166913D01*
X1329765Y1168400D01*
Y1168908D01*
X1330900Y1169555D01*
X1331035Y1169549D01*
D02*
G37*
G36*
X1803325Y1162442D02*
Y1146133D01*
X1791631Y1134439D01*
X1738982D01*
X1738356Y1135709D01*
X1739089Y1136665D01*
X1740050Y1138986D01*
X1740378Y1141476D01*
X1740050Y1143966D01*
X1739089Y1146287D01*
X1737560Y1148280D01*
X1735567Y1149809D01*
X1735016Y1150037D01*
X1735269Y1151307D01*
X1788922D01*
X1790409Y1151603D01*
X1791669Y1152445D01*
X1802152Y1162928D01*
X1803325Y1162442D01*
D02*
G37*
G36*
X1319159Y1130225D02*
X1318275Y1129074D01*
X1317762Y1127835D01*
X1260338D01*
X1259825Y1129074D01*
X1258941Y1130225D01*
X1259567Y1131495D01*
X1318533D01*
X1319159Y1130225D01*
D02*
G37*
G36*
X1160642Y1131592D02*
X1115229Y1086179D01*
X1100467D01*
X1100219Y1086777D01*
X1098794Y1088634D01*
X1096937Y1090059D01*
X1094775Y1090955D01*
X1092454Y1091261D01*
X1090133Y1090955D01*
X1087971Y1090059D01*
X1086114Y1088634D01*
X1084689Y1086777D01*
X1083793Y1084615D01*
X1083487Y1082294D01*
X1083793Y1079973D01*
X1084689Y1077811D01*
X1086114Y1075954D01*
X1087971Y1074529D01*
X1088666Y1074241D01*
X1088413Y1072971D01*
X1076978D01*
X1076650Y1074241D01*
X1078220Y1075446D01*
X1079645Y1077303D01*
X1080541Y1079465D01*
X1080847Y1081786D01*
X1080541Y1084107D01*
X1079645Y1086269D01*
X1078220Y1088126D01*
X1076650Y1089331D01*
X1076978Y1090601D01*
X1082294D01*
X1083781Y1090897D01*
X1085041Y1091739D01*
X1118447Y1125145D01*
X1121834D01*
X1122460Y1123875D01*
X1121530Y1122663D01*
X1120518Y1120221D01*
X1120173Y1117600D01*
X1120518Y1114979D01*
X1121530Y1112537D01*
X1123139Y1110439D01*
X1125237Y1108830D01*
X1127679Y1107818D01*
X1130300Y1107473D01*
X1132921Y1107818D01*
X1135363Y1108830D01*
X1137461Y1110439D01*
X1139070Y1112537D01*
X1140082Y1114979D01*
X1140427Y1117600D01*
X1140082Y1120221D01*
X1139070Y1122663D01*
X1138140Y1123875D01*
X1138766Y1125145D01*
X1143508D01*
X1144995Y1125441D01*
X1146255Y1126283D01*
X1152737Y1132765D01*
X1160156D01*
X1160642Y1131592D01*
D02*
G37*
G36*
X1368377Y1132487D02*
X1367703Y1131479D01*
X1367408Y1129992D01*
Y1111281D01*
X1363186Y1107060D01*
X1362110Y1107779D01*
X1362448Y1108598D01*
X1362798Y1111250D01*
X1362448Y1113902D01*
X1361425Y1116374D01*
X1359796Y1118496D01*
X1357674Y1120125D01*
X1355202Y1121149D01*
X1352550Y1121498D01*
X1349898Y1121149D01*
X1347426Y1120125D01*
X1345304Y1118496D01*
X1343675Y1116374D01*
X1343162Y1115135D01*
X1341459D01*
X1336535Y1120059D01*
X1337048Y1121298D01*
X1337398Y1123950D01*
X1337048Y1126602D01*
X1336025Y1129074D01*
X1335141Y1130225D01*
X1335768Y1131495D01*
X1363980D01*
X1365467Y1131791D01*
X1366727Y1132633D01*
X1367391Y1133297D01*
X1368377Y1132487D01*
D02*
G37*
G36*
X1318275Y1118826D02*
X1319904Y1116704D01*
X1322026Y1115075D01*
X1324498Y1114052D01*
X1327150Y1113702D01*
X1329802Y1114052D01*
X1331042Y1114565D01*
X1337103Y1108503D01*
X1338363Y1107661D01*
X1339850Y1107365D01*
X1343162D01*
X1343675Y1106126D01*
X1344559Y1104975D01*
X1343932Y1103705D01*
X1251780D01*
X1251294Y1104878D01*
X1253697Y1107281D01*
X1254539Y1108541D01*
X1254835Y1110028D01*
Y1114562D01*
X1256074Y1115075D01*
X1258196Y1116704D01*
X1259825Y1118826D01*
X1260338Y1120065D01*
X1317762D01*
X1318275Y1118826D01*
D02*
G37*
G36*
X1347355Y1094800D02*
X1347349Y1094665D01*
X1345771Y1093455D01*
X1339850D01*
X1337882Y1093196D01*
X1336048Y1092436D01*
X1334472Y1091228D01*
X1326566Y1083321D01*
X1324498Y1083048D01*
X1322026Y1082025D01*
X1320372Y1080755D01*
X1257729D01*
X1256074Y1082025D01*
X1253602Y1083048D01*
X1250950Y1083398D01*
X1248298Y1083048D01*
X1245826Y1082025D01*
X1243704Y1080396D01*
X1242075Y1078274D01*
X1241051Y1075802D01*
X1240702Y1073150D01*
X1241051Y1070498D01*
X1242075Y1068026D01*
X1243704Y1065904D01*
X1245826Y1064275D01*
X1248298Y1063251D01*
X1250950Y1062902D01*
X1253602Y1063251D01*
X1256074Y1064275D01*
X1257729Y1065545D01*
X1320372D01*
X1322026Y1064275D01*
X1324498Y1063251D01*
X1327150Y1062902D01*
X1329802Y1063251D01*
X1332274Y1064275D01*
X1334396Y1065904D01*
X1336025Y1068026D01*
X1337048Y1070498D01*
X1337321Y1072566D01*
X1343000Y1078245D01*
X1345771D01*
X1347426Y1076975D01*
X1349898Y1075952D01*
X1351966Y1075679D01*
X1359872Y1067772D01*
X1361447Y1066564D01*
X1363282Y1065804D01*
X1365250Y1065545D01*
X1377522D01*
X1379176Y1064275D01*
X1381648Y1063251D01*
X1384300Y1062902D01*
X1386952Y1063251D01*
X1389424Y1064275D01*
X1391078Y1065545D01*
X1453721D01*
X1455376Y1064275D01*
X1457848Y1063251D01*
X1460500Y1062902D01*
X1463152Y1063251D01*
X1465624Y1064275D01*
X1467746Y1065904D01*
X1469375Y1068026D01*
X1470399Y1070498D01*
X1470671Y1072566D01*
X1476350Y1078245D01*
X1479122D01*
X1480776Y1076975D01*
X1483248Y1075952D01*
X1485316Y1075679D01*
X1493222Y1067772D01*
X1494798Y1066564D01*
X1496632Y1065804D01*
X1498600Y1065545D01*
X1510871D01*
X1512526Y1064275D01*
X1514998Y1063251D01*
X1517650Y1062902D01*
X1520302Y1063251D01*
X1522774Y1064275D01*
X1524429Y1065545D01*
X1587072D01*
X1588726Y1064275D01*
X1591198Y1063251D01*
X1593850Y1062902D01*
X1596502Y1063251D01*
X1598974Y1064275D01*
X1601096Y1065904D01*
X1602725Y1068026D01*
X1603748Y1070498D01*
X1604021Y1072566D01*
X1609700Y1078245D01*
X1612471D01*
X1614126Y1076975D01*
X1616598Y1075952D01*
X1618666Y1075679D01*
X1634446Y1059898D01*
X1636022Y1058690D01*
X1637856Y1057930D01*
X1639824Y1057671D01*
X1674196D01*
X1675145Y1056943D01*
X1677466Y1055982D01*
X1679956Y1055654D01*
X1682446Y1055982D01*
X1684767Y1056943D01*
X1685716Y1057671D01*
X1699596D01*
X1700545Y1056943D01*
X1702866Y1055982D01*
X1705356Y1055654D01*
X1707846Y1055982D01*
X1710167Y1056943D01*
X1711116Y1057671D01*
X1724996D01*
X1725945Y1056943D01*
X1728266Y1055982D01*
X1730756Y1055654D01*
X1733246Y1055982D01*
X1735567Y1056943D01*
X1736516Y1057671D01*
X1816252D01*
X1820365Y1053558D01*
X1819839Y1052288D01*
X1817370D01*
Y1041400D01*
Y1030512D01*
X1820545D01*
X1823363Y1030883D01*
X1825989Y1031971D01*
X1828244Y1033701D01*
X1829323Y1035107D01*
X1830593Y1034676D01*
Y1020166D01*
X1807166Y996740D01*
X1805958Y995164D01*
X1805198Y993330D01*
X1804939Y991362D01*
Y886206D01*
X1805198Y884238D01*
X1805958Y882403D01*
X1807166Y880828D01*
X1817709Y870286D01*
X1817665Y869950D01*
X1818044Y867068D01*
X1819157Y864382D01*
X1820926Y862076D01*
X1823232Y860307D01*
X1825918Y859194D01*
X1828800Y858815D01*
X1831682Y859194D01*
X1834368Y860307D01*
X1836674Y862076D01*
X1838443Y864382D01*
X1839556Y867068D01*
X1839935Y869950D01*
X1839556Y872832D01*
X1838443Y875518D01*
X1836674Y877824D01*
X1834368Y879593D01*
X1831682Y880706D01*
X1828800Y881085D01*
X1828464Y881041D01*
X1826234Y883272D01*
X1826827Y884474D01*
X1827530Y884382D01*
Y895350D01*
Y906318D01*
X1825918Y906106D01*
X1823232Y904993D01*
X1821419Y903602D01*
X1820149Y904224D01*
Y909710D01*
X1839840D01*
Y931790D01*
X1820149D01*
Y970509D01*
X1821352Y970917D01*
X1821554Y970654D01*
X1823676Y969025D01*
X1826148Y968001D01*
X1828800Y967652D01*
X1831452Y968001D01*
X1833924Y969025D01*
X1836046Y970654D01*
X1837675Y972776D01*
X1838698Y975248D01*
X1839048Y977900D01*
X1838698Y980552D01*
X1837675Y983024D01*
X1836046Y985146D01*
X1833924Y986775D01*
X1831452Y987798D01*
X1828800Y988148D01*
X1826148Y987798D01*
X1823676Y986775D01*
X1821554Y985146D01*
X1821352Y984883D01*
X1820149Y985291D01*
Y988212D01*
X1843576Y1011638D01*
X1844727Y1013139D01*
X1844861Y1013147D01*
X1845997Y1012528D01*
Y753693D01*
X1355342D01*
X1354816Y754963D01*
X1363575Y763721D01*
X1363726Y763701D01*
X1366047Y764007D01*
X1368209Y764903D01*
X1370066Y766328D01*
X1371491Y768185D01*
X1372387Y770347D01*
X1372693Y772668D01*
X1372387Y774989D01*
X1371491Y777151D01*
X1371023Y777761D01*
X1371650Y779031D01*
X1431886D01*
X1433372Y779327D01*
X1434633Y780169D01*
X1472237Y817774D01*
X1473080Y819034D01*
X1473375Y820521D01*
Y884426D01*
X1474607Y884735D01*
X1475042Y883921D01*
X1477422Y881021D01*
X1480321Y878642D01*
X1483629Y876874D01*
X1487218Y875785D01*
X1490950Y875418D01*
X1494682Y875785D01*
X1498272Y876874D01*
X1501579Y878642D01*
X1504478Y881021D01*
X1506858Y883921D01*
X1508626Y887228D01*
X1509715Y890817D01*
X1510082Y894550D01*
X1509715Y898282D01*
X1508626Y901871D01*
X1506858Y905179D01*
X1504478Y908078D01*
X1501579Y910458D01*
X1498272Y912226D01*
X1494682Y913314D01*
X1490950Y913682D01*
X1487218Y913314D01*
X1483629Y912226D01*
X1480321Y910458D01*
X1477422Y908078D01*
X1475042Y905179D01*
X1474607Y904365D01*
X1473375Y904674D01*
Y956357D01*
X1473080Y957843D01*
X1472237Y959104D01*
X1462551Y968790D01*
X1463037Y969963D01*
X1549400D01*
X1551368Y970222D01*
X1551544Y970295D01*
X1771221D01*
X1772876Y969025D01*
X1775348Y968001D01*
X1776730Y967820D01*
Y977900D01*
X1778000D01*
Y979170D01*
X1788080D01*
X1787899Y980552D01*
X1786875Y983024D01*
X1785605Y984678D01*
Y1028090D01*
X1791310Y1033795D01*
X1803884D01*
X1803956Y1033701D01*
X1806211Y1031971D01*
X1808837Y1030883D01*
X1811655Y1030512D01*
X1814830D01*
Y1041400D01*
Y1052288D01*
X1811655D01*
X1808837Y1051917D01*
X1806211Y1050829D01*
X1803956Y1049099D01*
X1803884Y1049005D01*
X1788160D01*
X1786192Y1048746D01*
X1784357Y1047986D01*
X1782782Y1046778D01*
X1772622Y1036618D01*
X1771414Y1035042D01*
X1770654Y1033208D01*
X1770395Y1031240D01*
Y985505D01*
X1549732D01*
X1547763Y985246D01*
X1547588Y985173D01*
X1373113D01*
X1372487Y986443D01*
X1373015Y987133D01*
X1373263Y987731D01*
X1377442D01*
X1378929Y988027D01*
X1380189Y988869D01*
X1391873Y1000553D01*
X1392715Y1001813D01*
X1393011Y1003300D01*
Y1016000D01*
X1392715Y1017487D01*
X1391873Y1018747D01*
X1381459Y1029161D01*
X1380199Y1030003D01*
X1378712Y1030299D01*
X1157109D01*
X1156861Y1030897D01*
X1155436Y1032754D01*
X1153579Y1034179D01*
X1152271Y1034721D01*
X1152524Y1035991D01*
X1383961D01*
X1390873Y1029080D01*
X1390625Y1028481D01*
X1390319Y1026160D01*
X1390625Y1023839D01*
X1391521Y1021677D01*
X1392946Y1019820D01*
X1394803Y1018395D01*
X1396965Y1017499D01*
X1399286Y1017193D01*
X1401607Y1017499D01*
X1403769Y1018395D01*
X1405626Y1019820D01*
X1407051Y1021677D01*
X1407947Y1023839D01*
X1408253Y1026160D01*
X1407947Y1028481D01*
X1407051Y1030643D01*
X1405626Y1032500D01*
X1403769Y1033925D01*
X1401607Y1034821D01*
X1399286Y1035127D01*
X1396965Y1034821D01*
X1396366Y1034573D01*
X1388317Y1042623D01*
X1387057Y1043465D01*
X1385570Y1043761D01*
X1128153D01*
X1127905Y1044359D01*
X1126480Y1046216D01*
X1125426Y1047025D01*
X1125858Y1048295D01*
X1201377D01*
X1202864Y1048591D01*
X1204124Y1049433D01*
X1250627Y1095935D01*
X1346708D01*
X1347355Y1094800D01*
D02*
G37*
G36*
X1201152Y1126152D02*
X1199339Y1124761D01*
X1197730Y1122663D01*
X1196718Y1120221D01*
X1196541Y1118870D01*
X1206500D01*
Y1117600D01*
X1207770D01*
Y1107641D01*
X1209121Y1107818D01*
X1211563Y1108830D01*
X1211735Y1108961D01*
X1213112Y1108417D01*
X1213155Y1108158D01*
X1177967Y1072971D01*
X1096495D01*
X1096242Y1074241D01*
X1096937Y1074529D01*
X1098794Y1075954D01*
X1100219Y1077811D01*
X1100467Y1078409D01*
X1116838D01*
X1118325Y1078705D01*
X1119585Y1079547D01*
X1167459Y1127422D01*
X1200829D01*
X1201152Y1126152D01*
D02*
G37*
G36*
X1054410Y1089331D02*
X1052840Y1088126D01*
X1051415Y1086269D01*
X1050519Y1084107D01*
X1050213Y1081786D01*
X1050519Y1079465D01*
X1051415Y1077303D01*
X1052840Y1075446D01*
X1054410Y1074241D01*
X1054082Y1072971D01*
X1030736D01*
X1030643Y1073041D01*
X1028481Y1073937D01*
X1026160Y1074243D01*
X1023839Y1073937D01*
X1021677Y1073041D01*
X1019820Y1071616D01*
X1019123Y1070708D01*
X1017853Y1071139D01*
Y1080685D01*
X1027769Y1090601D01*
X1054082D01*
X1054410Y1089331D01*
D02*
G37*
G36*
X1234935Y1130489D02*
X1234714Y1129379D01*
Y1109876D01*
X1191594Y1066756D01*
X1184399D01*
X1183913Y1067929D01*
X1220677Y1104693D01*
X1221519Y1105953D01*
X1221815Y1107440D01*
Y1119165D01*
X1233767Y1131117D01*
X1234935Y1130489D01*
D02*
G37*
G36*
X1054410Y1063931D02*
X1052840Y1062726D01*
X1051415Y1060869D01*
X1050519Y1058707D01*
X1050213Y1056386D01*
X1050519Y1054065D01*
X1051415Y1051903D01*
X1051916Y1051250D01*
X1051354Y1050111D01*
X1040638D01*
X1039151Y1049815D01*
X1037891Y1048973D01*
X1022905Y1033987D01*
X1022063Y1032727D01*
X1021767Y1031240D01*
Y956649D01*
X1011089Y945971D01*
X949978D01*
X949650Y947241D01*
X951220Y948446D01*
X952645Y950303D01*
X953541Y952465D01*
X953847Y954786D01*
X953541Y957107D01*
X952645Y959269D01*
X951220Y961126D01*
X949363Y962551D01*
X947201Y963447D01*
X944880Y963753D01*
X932180D01*
X929859Y963447D01*
X927697Y962551D01*
X927044Y962050D01*
X925905Y962612D01*
Y972360D01*
X927044Y972922D01*
X927697Y972421D01*
X929859Y971525D01*
X932180Y971219D01*
X944880D01*
X947201Y971525D01*
X949363Y972421D01*
X951220Y973846D01*
X952645Y975703D01*
X952893Y976301D01*
X998474D01*
X999961Y976597D01*
X1001221Y977439D01*
X1016715Y992933D01*
X1017557Y994193D01*
X1017853Y995680D01*
Y1059413D01*
X1019123Y1059844D01*
X1019820Y1058936D01*
X1021677Y1057511D01*
X1023839Y1056615D01*
X1026160Y1056309D01*
X1028481Y1056615D01*
X1030643Y1057511D01*
X1032500Y1058936D01*
X1033925Y1060793D01*
X1034821Y1062955D01*
X1035117Y1065201D01*
X1054082D01*
X1054410Y1063931D01*
D02*
G37*
G36*
X1097904Y1064028D02*
X1083987Y1050111D01*
X1079706D01*
X1079144Y1051250D01*
X1079645Y1051903D01*
X1080541Y1054065D01*
X1080847Y1056386D01*
X1080541Y1058707D01*
X1079645Y1060869D01*
X1078220Y1062726D01*
X1076650Y1063931D01*
X1076978Y1065201D01*
X1097418D01*
X1097904Y1064028D01*
D02*
G37*
G36*
X1113645Y1046015D02*
X1112375Y1044359D01*
X1111479Y1042197D01*
X1111173Y1039876D01*
X1111479Y1037555D01*
X1112375Y1035393D01*
X1113800Y1033536D01*
X1115657Y1032111D01*
X1117819Y1031215D01*
X1120140Y1030909D01*
X1122461Y1031215D01*
X1124623Y1032111D01*
X1126480Y1033536D01*
X1127905Y1035393D01*
X1128153Y1035991D01*
X1145668D01*
X1145921Y1034721D01*
X1144613Y1034179D01*
X1142756Y1032754D01*
X1141331Y1030897D01*
X1140435Y1028735D01*
X1140129Y1026414D01*
X1140435Y1024093D01*
X1141331Y1021931D01*
X1141363Y1021888D01*
X1140406Y1021049D01*
X1139153Y1022303D01*
X1137892Y1023145D01*
X1136406Y1023441D01*
X1117971D01*
X1117723Y1024039D01*
X1116299Y1025896D01*
X1114442Y1027321D01*
X1112279Y1028217D01*
X1109958Y1028523D01*
X1107637Y1028217D01*
X1105475Y1027321D01*
X1103618Y1025896D01*
X1102193Y1024039D01*
X1101297Y1021877D01*
X1100991Y1019556D01*
X1101297Y1017235D01*
X1102193Y1015073D01*
X1103618Y1013216D01*
X1105475Y1011791D01*
X1107637Y1010895D01*
X1108809Y1010741D01*
X1108725Y1009471D01*
X1079893D01*
X1079645Y1010069D01*
X1078220Y1011926D01*
X1076363Y1013351D01*
X1074201Y1014247D01*
X1073030Y1014401D01*
X1073113Y1015671D01*
X1079896D01*
X1081383Y1015967D01*
X1082643Y1016809D01*
X1112688Y1046854D01*
X1113645Y1046015D01*
D02*
G37*
G36*
X1164769Y993563D02*
Y991207D01*
X1163499Y990775D01*
X1162946Y991496D01*
X1160824Y993125D01*
X1158352Y994148D01*
X1155700Y994498D01*
X1153048Y994148D01*
X1150576Y993125D01*
X1148454Y991496D01*
X1146825Y989374D01*
X1145801Y986902D01*
X1145452Y984250D01*
X1145801Y981598D01*
X1146825Y979126D01*
X1148454Y977004D01*
X1150576Y975375D01*
X1153048Y974352D01*
X1155700Y974002D01*
X1158352Y974352D01*
X1160824Y975375D01*
X1162946Y977004D01*
X1163987Y978360D01*
X1165520Y978272D01*
X1165907Y977693D01*
X1172670Y970930D01*
X1172184Y969757D01*
X1147826D01*
X1145858Y969498D01*
X1144024Y968738D01*
X1142448Y967530D01*
X1130846Y955927D01*
X1128949Y955678D01*
X1126507Y954666D01*
X1124409Y953057D01*
X1122800Y950959D01*
X1121788Y948517D01*
X1121443Y945896D01*
X1121788Y943275D01*
X1122800Y940833D01*
X1123766Y939574D01*
X1123285Y938115D01*
X1122932Y938014D01*
X1122830Y938032D01*
X1114373Y946489D01*
Y966978D01*
X1114077Y968465D01*
X1113235Y969725D01*
X1100027Y982933D01*
X1098767Y983775D01*
X1097280Y984071D01*
X1079893D01*
X1079645Y984669D01*
X1078220Y986526D01*
X1076363Y987951D01*
X1074201Y988847D01*
X1071880Y989153D01*
X1059180D01*
X1056859Y988847D01*
X1054697Y987951D01*
X1054044Y987450D01*
X1052905Y988012D01*
Y997760D01*
X1054044Y998322D01*
X1054697Y997821D01*
X1056859Y996925D01*
X1059180Y996619D01*
X1071880D01*
X1074201Y996925D01*
X1076363Y997821D01*
X1078220Y999246D01*
X1079645Y1001103D01*
X1079893Y1001701D01*
X1156631D01*
X1164769Y993563D01*
D02*
G37*
G36*
X1370553Y1011046D02*
X1370305Y1010447D01*
X1369999Y1008126D01*
X1370305Y1005805D01*
X1371201Y1003643D01*
X1372626Y1001786D01*
X1374483Y1000361D01*
X1376645Y999465D01*
X1377843Y999307D01*
X1378298Y997966D01*
X1375833Y995501D01*
X1373263D01*
X1373015Y996099D01*
X1371590Y997956D01*
X1369733Y999381D01*
X1367571Y1000277D01*
X1365250Y1000583D01*
X1362929Y1000277D01*
X1360767Y999381D01*
X1358910Y997956D01*
X1357485Y996099D01*
X1356589Y993937D01*
X1356283Y991616D01*
X1356305Y991451D01*
X1355096Y990904D01*
X1353426Y991596D01*
X1351458Y991855D01*
X1327578D01*
X1325924Y993125D01*
X1323452Y994148D01*
X1321384Y994421D01*
X1302149Y1013656D01*
X1301178Y1014401D01*
X1301609Y1015671D01*
X1365927D01*
X1370553Y1011046D01*
D02*
G37*
G36*
X1299280Y995014D02*
X1298561Y993938D01*
X1298052Y994148D01*
X1295400Y994498D01*
X1292748Y994148D01*
X1290276Y993125D01*
X1288154Y991496D01*
X1286525Y989374D01*
X1285502Y986902D01*
X1285152Y984250D01*
X1285502Y981598D01*
X1286525Y979126D01*
X1288154Y977004D01*
X1288300Y976891D01*
X1287892Y975689D01*
X1188608D01*
X1188200Y976891D01*
X1188346Y977004D01*
X1189975Y979126D01*
X1190999Y981598D01*
X1191271Y983666D01*
X1208279Y1000673D01*
X1293622D01*
X1299280Y995014D01*
D02*
G37*
G36*
X1200722Y1014401D02*
X1199751Y1013656D01*
X1180516Y994421D01*
X1178448Y994148D01*
X1175976Y993125D01*
X1173854Y991496D01*
X1173741Y991350D01*
X1172539Y991758D01*
Y995172D01*
X1172243Y996659D01*
X1171401Y997919D01*
X1160987Y1008333D01*
X1159727Y1009175D01*
X1158240Y1009471D01*
X1156324D01*
X1155838Y1010644D01*
X1160865Y1015671D01*
X1200291D01*
X1200722Y1014401D01*
D02*
G37*
G36*
X1106603Y965369D02*
Y944880D01*
X1106899Y943393D01*
X1107741Y942133D01*
X1118917Y930957D01*
X1120177Y930115D01*
X1121664Y929819D01*
X1125142D01*
X1125573Y928549D01*
X1124409Y927657D01*
X1122800Y925559D01*
X1121788Y923117D01*
X1121443Y920496D01*
X1121788Y917875D01*
X1122800Y915433D01*
X1124409Y913335D01*
X1124911Y912951D01*
X1124480Y911681D01*
X1117177D01*
X1102689Y926169D01*
Y943102D01*
X1102393Y944589D01*
X1101551Y945849D01*
X1089867Y957533D01*
X1088607Y958375D01*
X1087120Y958671D01*
X1079893D01*
X1079645Y959269D01*
X1078220Y961126D01*
X1076363Y962551D01*
X1074201Y963447D01*
X1071880Y963753D01*
X1059180D01*
X1056859Y963447D01*
X1054697Y962551D01*
X1054044Y962050D01*
X1052905Y962612D01*
Y972360D01*
X1054044Y972922D01*
X1054697Y972421D01*
X1056859Y971525D01*
X1059180Y971219D01*
X1071880D01*
X1074201Y971525D01*
X1076363Y972421D01*
X1078220Y973846D01*
X1079645Y975703D01*
X1079893Y976301D01*
X1095671D01*
X1106603Y965369D01*
D02*
G37*
G36*
X1339901Y966011D02*
X1341161Y965169D01*
X1342648Y964873D01*
X1455480D01*
X1465144Y955210D01*
X1465053Y954488D01*
X1463713Y953915D01*
X1461551Y954811D01*
X1459230Y955117D01*
X1456909Y954811D01*
X1454747Y953915D01*
X1452890Y952490D01*
X1451465Y950633D01*
X1451217Y950035D01*
X1429646D01*
X1428159Y949739D01*
X1426899Y948897D01*
X1365927Y887924D01*
X1354758D01*
X1354132Y889194D01*
X1354970Y890287D01*
X1355982Y892729D01*
X1356327Y895350D01*
X1355982Y897971D01*
X1354970Y900413D01*
X1353361Y902511D01*
X1351263Y904120D01*
X1348821Y905132D01*
X1346200Y905477D01*
X1343579Y905132D01*
X1341137Y904120D01*
X1339039Y902511D01*
X1337430Y900413D01*
X1336418Y897971D01*
X1336073Y895350D01*
X1336418Y892729D01*
X1337430Y890287D01*
X1338268Y889194D01*
X1337642Y887924D01*
X1336379D01*
X1326207Y898097D01*
X1324946Y898939D01*
X1323460Y899235D01*
X1308239D01*
X1307991Y899833D01*
X1306566Y901690D01*
X1304996Y902895D01*
X1305324Y904165D01*
X1333500D01*
X1334987Y904461D01*
X1336247Y905303D01*
X1342400Y911457D01*
X1343579Y910968D01*
X1346200Y910623D01*
X1348821Y910968D01*
X1351263Y911980D01*
X1353361Y913589D01*
X1354970Y915687D01*
X1355982Y918129D01*
X1356327Y920750D01*
X1355982Y923371D01*
X1354970Y925813D01*
X1353361Y927911D01*
X1351263Y929520D01*
X1348821Y930532D01*
X1346200Y930877D01*
X1343579Y930532D01*
X1341137Y929520D01*
X1339039Y927911D01*
X1337430Y925813D01*
X1336418Y923371D01*
X1336073Y920750D01*
X1336418Y918129D01*
X1336907Y916950D01*
X1331891Y911935D01*
X1277090D01*
X1276659Y913205D01*
X1277161Y913589D01*
X1278770Y915687D01*
X1279782Y918129D01*
X1280127Y920750D01*
X1279782Y923371D01*
X1278770Y925813D01*
X1277161Y927911D01*
X1275063Y929520D01*
X1272621Y930532D01*
X1270000Y930877D01*
X1267379Y930532D01*
X1264937Y929520D01*
X1262839Y927911D01*
X1261230Y925813D01*
X1260218Y923371D01*
X1259873Y920750D01*
X1260218Y918129D01*
X1261230Y915687D01*
X1262839Y913589D01*
X1263341Y913205D01*
X1262910Y911935D01*
X1255861D01*
X1233243Y934553D01*
X1231982Y935395D01*
X1230496Y935691D01*
X1219012D01*
X1217810Y935856D01*
Y954547D01*
X1250848D01*
X1259969Y945426D01*
X1260218Y943529D01*
X1261230Y941087D01*
X1262839Y938989D01*
X1264937Y937380D01*
X1267379Y936368D01*
X1270000Y936023D01*
X1272621Y936368D01*
X1275063Y937380D01*
X1277161Y938989D01*
X1278770Y941087D01*
X1279782Y943529D01*
X1280127Y946150D01*
X1279782Y948771D01*
X1278770Y951213D01*
X1277161Y953311D01*
X1275063Y954920D01*
X1272621Y955932D01*
X1270724Y956181D01*
X1260256Y966649D01*
X1260782Y967919D01*
X1337993D01*
X1339901Y966011D01*
D02*
G37*
G36*
X1094919Y941493D02*
Y924560D01*
X1095215Y923073D01*
X1096057Y921813D01*
X1112821Y905049D01*
X1114081Y904207D01*
X1115568Y903911D01*
X1124480D01*
X1124911Y902641D01*
X1124409Y902257D01*
X1122800Y900159D01*
X1121788Y897717D01*
X1121443Y895096D01*
X1121788Y892475D01*
X1122800Y890033D01*
X1124409Y887935D01*
X1125242Y887297D01*
X1124811Y886027D01*
X1111603D01*
X1102973Y894657D01*
X1101712Y895499D01*
X1100226Y895795D01*
X1087120D01*
X1085633Y895499D01*
X1084373Y894657D01*
X1079293Y889577D01*
X1078451Y888317D01*
X1078155Y886830D01*
Y886412D01*
X1077016Y885850D01*
X1076363Y886351D01*
X1074201Y887247D01*
X1071880Y887553D01*
X1059180D01*
X1056859Y887247D01*
X1054697Y886351D01*
X1054044Y885850D01*
X1052905Y886412D01*
Y896160D01*
X1054044Y896722D01*
X1054697Y896221D01*
X1056859Y895325D01*
X1059180Y895019D01*
X1071880D01*
X1074201Y895325D01*
X1076363Y896221D01*
X1078220Y897646D01*
X1079645Y899503D01*
X1080541Y901665D01*
X1080847Y903986D01*
X1080541Y906307D01*
X1079645Y908469D01*
X1078220Y910326D01*
X1076650Y911531D01*
X1076952Y912766D01*
X1076969Y912801D01*
X1076971Y912803D01*
X1078447Y913097D01*
X1079707Y913939D01*
X1084787Y919019D01*
X1085629Y920279D01*
X1085925Y921766D01*
Y934466D01*
X1085629Y935953D01*
X1084787Y937213D01*
X1079707Y942293D01*
X1078447Y943135D01*
X1076960Y943431D01*
X1055709D01*
X1053328Y945812D01*
X1053402Y946413D01*
X1054697Y947021D01*
X1056859Y946125D01*
X1059180Y945819D01*
X1071880D01*
X1074201Y946125D01*
X1076363Y947021D01*
X1078220Y948446D01*
X1079645Y950303D01*
X1079893Y950901D01*
X1085511D01*
X1094919Y941493D01*
D02*
G37*
G36*
X1197730Y949781D02*
X1152143D01*
X1150656Y949485D01*
X1149396Y948643D01*
X1141805Y941052D01*
X1140729Y941772D01*
X1141352Y943275D01*
X1141601Y945172D01*
X1150976Y954547D01*
X1197730D01*
Y949781D01*
D02*
G37*
G36*
X1046088Y1041168D02*
X1034589Y1029669D01*
X1033747Y1028409D01*
X1033451Y1026922D01*
Y951569D01*
X1021503Y939621D01*
X1017386D01*
X1016900Y940794D01*
X1028399Y952293D01*
X1029241Y953553D01*
X1029537Y955040D01*
Y1029631D01*
X1042247Y1042341D01*
X1045602D01*
X1046088Y1041168D01*
D02*
G37*
G36*
X1050444Y1032740D02*
X1050213Y1030986D01*
X1050519Y1028665D01*
X1051415Y1026503D01*
X1052840Y1024646D01*
X1053898Y1023833D01*
X1053893Y1022313D01*
X1053856Y1022265D01*
X1046273Y1014683D01*
X1045431Y1013423D01*
X1045135Y1011936D01*
Y944626D01*
X1045431Y943139D01*
X1046273Y941879D01*
X1051353Y936799D01*
X1051822Y936486D01*
X1052166Y934852D01*
X1052164Y934846D01*
X1051415Y933869D01*
X1051167Y933271D01*
X1027800D01*
X1027314Y934444D01*
X1040083Y947213D01*
X1040925Y948473D01*
X1041221Y949960D01*
Y1025313D01*
X1049241Y1033334D01*
X1050444Y1032740D01*
D02*
G37*
G36*
X1197730Y935856D02*
X1198725D01*
X1199111Y934586D01*
X1199061Y934553D01*
X1194731Y930223D01*
X1157363D01*
X1157115Y930821D01*
X1155690Y932678D01*
X1153833Y934103D01*
X1151671Y934999D01*
X1149350Y935305D01*
X1148764Y935228D01*
X1148171Y936431D01*
X1153752Y942011D01*
X1197730D01*
Y935856D01*
D02*
G37*
G36*
X976780Y931646D02*
X977256Y930425D01*
X964861Y918031D01*
X924560D01*
X923073Y917735D01*
X922095Y917081D01*
X920825Y917525D01*
Y929809D01*
X922164Y931149D01*
X923367Y930555D01*
X923213Y929386D01*
X923519Y927065D01*
X924415Y924903D01*
X925840Y923046D01*
X927697Y921621D01*
X929859Y920725D01*
X932180Y920419D01*
X944880D01*
X947201Y920725D01*
X949363Y921621D01*
X951220Y923046D01*
X952645Y924903D01*
X952893Y925501D01*
X967994D01*
X969481Y925797D01*
X970741Y926639D01*
X975849Y931747D01*
X976780Y931646D01*
D02*
G37*
G36*
X1197768Y921442D02*
X1197643Y920496D01*
X1197988Y917875D01*
X1198477Y916696D01*
X1193461Y911681D01*
X1138660D01*
X1138229Y912951D01*
X1138731Y913335D01*
X1140340Y915433D01*
X1141352Y917875D01*
X1141599Y919750D01*
X1142926Y920106D01*
X1143010Y919998D01*
X1144867Y918573D01*
X1147029Y917677D01*
X1149350Y917371D01*
X1151671Y917677D01*
X1153833Y918573D01*
X1155690Y919998D01*
X1157115Y921855D01*
X1157363Y922453D01*
X1196340D01*
X1196628Y922511D01*
X1197768Y921442D01*
D02*
G37*
G36*
X1451465Y941667D02*
X1452890Y939810D01*
X1454747Y938385D01*
X1456909Y937489D01*
X1459230Y937183D01*
X1461551Y937489D01*
X1463713Y938385D01*
X1464336Y938862D01*
X1465606Y938236D01*
Y872986D01*
X1464336Y872733D01*
X1463947Y873671D01*
X1462522Y875528D01*
X1460665Y876953D01*
X1458503Y877849D01*
X1456182Y878155D01*
X1453861Y877849D01*
X1451699Y876953D01*
X1449842Y875528D01*
X1448417Y873671D01*
X1447521Y871509D01*
X1447215Y869188D01*
X1447521Y866867D01*
X1447769Y866268D01*
X1392343Y810843D01*
X1353750D01*
X1353675Y811064D01*
X1353455Y812113D01*
X1354970Y814087D01*
X1355982Y816529D01*
X1356327Y819150D01*
X1355982Y821771D01*
X1354970Y824213D01*
X1353361Y826311D01*
X1353102Y826509D01*
X1353511Y827711D01*
X1388872D01*
X1390359Y828007D01*
X1391619Y828849D01*
X1421767Y858997D01*
X1422365Y858749D01*
X1424686Y858443D01*
X1427007Y858749D01*
X1429169Y859645D01*
X1431026Y861070D01*
X1432451Y862927D01*
X1433347Y865089D01*
X1433653Y867410D01*
X1433347Y869731D01*
X1432451Y871893D01*
X1431026Y873750D01*
X1429169Y875175D01*
X1427007Y876071D01*
X1424686Y876377D01*
X1422365Y876071D01*
X1420203Y875175D01*
X1418346Y873750D01*
X1416921Y871893D01*
X1416025Y869731D01*
X1415719Y867410D01*
X1416025Y865089D01*
X1416273Y864491D01*
X1387263Y835481D01*
X1352959D01*
X1352528Y836751D01*
X1353361Y837389D01*
X1354970Y839487D01*
X1355982Y841929D01*
X1356327Y844550D01*
X1355982Y847171D01*
X1354970Y849613D01*
X1353361Y851711D01*
X1351263Y853320D01*
X1351154Y853365D01*
X1351406Y854635D01*
X1379220D01*
X1380707Y854931D01*
X1381967Y855773D01*
X1442341Y916147D01*
X1442939Y915899D01*
X1445260Y915593D01*
X1447581Y915899D01*
X1449743Y916795D01*
X1451600Y918220D01*
X1453025Y920077D01*
X1453921Y922239D01*
X1454227Y924560D01*
X1453921Y926881D01*
X1453025Y929043D01*
X1451600Y930900D01*
X1449743Y932325D01*
X1447581Y933221D01*
X1445260Y933527D01*
X1442939Y933221D01*
X1440777Y932325D01*
X1438920Y930900D01*
X1437495Y929043D01*
X1436599Y926881D01*
X1436293Y924560D01*
X1436599Y922239D01*
X1436847Y921640D01*
X1377611Y862405D01*
X1354666D01*
X1354040Y863675D01*
X1354970Y864887D01*
X1355982Y867329D01*
X1356327Y869950D01*
X1355982Y872571D01*
X1354970Y875013D01*
X1353361Y877111D01*
X1351263Y878720D01*
X1350864Y878885D01*
X1351117Y880155D01*
X1367536D01*
X1369023Y880451D01*
X1370283Y881293D01*
X1431255Y942265D01*
X1451217D01*
X1451465Y941667D01*
D02*
G37*
G36*
X1251505Y905303D02*
X1252765Y904461D01*
X1254252Y904165D01*
X1262910D01*
X1263341Y902895D01*
X1262839Y902511D01*
X1261230Y900413D01*
X1260218Y897971D01*
X1259873Y895350D01*
X1260218Y892729D01*
X1261230Y890287D01*
X1262839Y888189D01*
X1263760Y887483D01*
X1263443Y886125D01*
X1262736Y885985D01*
X1261476Y885143D01*
X1249914Y873581D01*
X1234762D01*
X1234679Y874851D01*
X1236761Y875125D01*
X1238923Y876021D01*
X1240780Y877446D01*
X1242205Y879303D01*
X1243101Y881465D01*
X1243407Y883786D01*
X1243101Y886107D01*
X1242205Y888269D01*
X1240780Y890126D01*
X1238923Y891551D01*
X1236761Y892447D01*
X1234440Y892753D01*
X1232119Y892447D01*
X1229957Y891551D01*
X1228100Y890126D01*
X1226675Y888269D01*
X1226427Y887671D01*
X1216328D01*
X1215702Y888941D01*
X1216540Y890033D01*
X1217552Y892475D01*
X1217897Y895096D01*
X1217552Y897717D01*
X1216540Y900159D01*
X1214931Y902257D01*
X1212833Y903866D01*
X1210391Y904878D01*
X1207770Y905223D01*
X1205149Y904878D01*
X1202707Y903866D01*
X1200609Y902257D01*
X1199000Y900159D01*
X1197988Y897717D01*
X1197643Y895096D01*
X1197988Y892475D01*
X1199000Y890033D01*
X1199838Y888941D01*
X1199212Y887671D01*
X1197949D01*
X1185745Y899875D01*
X1184484Y900717D01*
X1182998Y901013D01*
X1174127D01*
X1173879Y901611D01*
X1173089Y902641D01*
X1173715Y903911D01*
X1195070D01*
X1196557Y904207D01*
X1197817Y905049D01*
X1203970Y911203D01*
X1205149Y910714D01*
X1207770Y910369D01*
X1210391Y910714D01*
X1212833Y911726D01*
X1214931Y913335D01*
X1216540Y915433D01*
X1217552Y917875D01*
X1217897Y920496D01*
X1217552Y923117D01*
X1216540Y925559D01*
X1215702Y926652D01*
X1216328Y927922D01*
X1228887D01*
X1251505Y905303D01*
D02*
G37*
G36*
X1295456Y902895D02*
X1293886Y901690D01*
X1292461Y899833D01*
X1291565Y897671D01*
X1291259Y895350D01*
X1291565Y893029D01*
X1292461Y890867D01*
X1293886Y889010D01*
X1295743Y887585D01*
X1295825Y887551D01*
X1295572Y886281D01*
X1276759D01*
X1276328Y887551D01*
X1277161Y888189D01*
X1278770Y890287D01*
X1279782Y892729D01*
X1280127Y895350D01*
X1279782Y897971D01*
X1278770Y900413D01*
X1277161Y902511D01*
X1276659Y902895D01*
X1277090Y904165D01*
X1295128D01*
X1295456Y902895D01*
D02*
G37*
G36*
X1159139Y902641D02*
X1158349Y901611D01*
X1157453Y899449D01*
X1157147Y897128D01*
X1157453Y894807D01*
X1158349Y892645D01*
X1159774Y890788D01*
X1161631Y889363D01*
X1163793Y888467D01*
X1166114Y888161D01*
X1168435Y888467D01*
X1170597Y889363D01*
X1172454Y890788D01*
X1173879Y892645D01*
X1174127Y893243D01*
X1181389D01*
X1187467Y887165D01*
X1186841Y885995D01*
X1186681Y886027D01*
X1138329D01*
X1137898Y887297D01*
X1138731Y887935D01*
X1140340Y890033D01*
X1141352Y892475D01*
X1141697Y895096D01*
X1141352Y897717D01*
X1140340Y900159D01*
X1138731Y902257D01*
X1138229Y902641D01*
X1138660Y903911D01*
X1158513D01*
X1159139Y902641D01*
D02*
G37*
G36*
X1329236Y876213D02*
X1330497Y875371D01*
X1331983Y875075D01*
X1335581D01*
X1336907Y873750D01*
X1336418Y872571D01*
X1336073Y869950D01*
X1336418Y867329D01*
X1337430Y864887D01*
X1338360Y863675D01*
X1337734Y862405D01*
X1283039D01*
X1279293Y866150D01*
X1279782Y867329D01*
X1280127Y869950D01*
X1279782Y872571D01*
X1278770Y875013D01*
X1277161Y877111D01*
X1276902Y877309D01*
X1277311Y878511D01*
X1326938D01*
X1329236Y876213D01*
D02*
G37*
G36*
X1107247Y879395D02*
X1108508Y878553D01*
X1109994Y878257D01*
X1124259D01*
X1124668Y877055D01*
X1124409Y876857D01*
X1122800Y874759D01*
X1121788Y872317D01*
X1121443Y869696D01*
X1121788Y867075D01*
X1122800Y864633D01*
X1124409Y862535D01*
X1124911Y862151D01*
X1124480Y860881D01*
X1118447D01*
X1100613Y878715D01*
X1100861Y879313D01*
X1101167Y881634D01*
X1100861Y883955D01*
X1100840Y884007D01*
X1101916Y884726D01*
X1107247Y879395D01*
D02*
G37*
G36*
X1465606Y865390D02*
Y822130D01*
X1430277Y786801D01*
X1355123D01*
X1354497Y788071D01*
X1354970Y788687D01*
X1355982Y791129D01*
X1356327Y793750D01*
X1355982Y796371D01*
X1354970Y798813D01*
X1353361Y800911D01*
X1352197Y801803D01*
X1352628Y803073D01*
X1393952D01*
X1395439Y803369D01*
X1396699Y804211D01*
X1453262Y860775D01*
X1453861Y860527D01*
X1456182Y860221D01*
X1458503Y860527D01*
X1460665Y861423D01*
X1462522Y862848D01*
X1463947Y864705D01*
X1464336Y865643D01*
X1465606Y865390D01*
D02*
G37*
G36*
X1196380Y866949D02*
X1197640Y866107D01*
X1198457Y865945D01*
X1199000Y864633D01*
X1200609Y862535D01*
X1202707Y860926D01*
X1202816Y860881D01*
X1202564Y859611D01*
X1170155D01*
X1169902Y860881D01*
X1170597Y861169D01*
X1172454Y862594D01*
X1173879Y864451D01*
X1174775Y866613D01*
X1175081Y868934D01*
X1174775Y871255D01*
X1173879Y873417D01*
X1172454Y875274D01*
X1170597Y876699D01*
X1169902Y876987D01*
X1170155Y878257D01*
X1185072D01*
X1196380Y866949D01*
D02*
G37*
G36*
X1259996Y870879D02*
X1259873Y869950D01*
X1260218Y867329D01*
X1261230Y864887D01*
X1262839Y862789D01*
X1264937Y861180D01*
X1267379Y860168D01*
X1270000Y859823D01*
X1272621Y860168D01*
X1273800Y860657D01*
X1278683Y855773D01*
X1279943Y854931D01*
X1281430Y854635D01*
X1340994D01*
X1341246Y853365D01*
X1341137Y853320D01*
X1339039Y851711D01*
X1337430Y849613D01*
X1336418Y847171D01*
X1336073Y844550D01*
X1336418Y841929D01*
X1337430Y839487D01*
X1339039Y837389D01*
X1339872Y836751D01*
X1339441Y835481D01*
X1276759D01*
X1276328Y836751D01*
X1277161Y837389D01*
X1278770Y839487D01*
X1279782Y841929D01*
X1280127Y844550D01*
X1279782Y847171D01*
X1278770Y849613D01*
X1277161Y851711D01*
X1275063Y853320D01*
X1272621Y854332D01*
X1270000Y854677D01*
X1267379Y854332D01*
X1264937Y853320D01*
X1262839Y851711D01*
X1261230Y849613D01*
X1260218Y847171D01*
X1259873Y844550D01*
X1260218Y841929D01*
X1261230Y839487D01*
X1262839Y837389D01*
X1263672Y836751D01*
X1263241Y835481D01*
X1214860D01*
X1214429Y836751D01*
X1214931Y837135D01*
X1216540Y839233D01*
X1217552Y841675D01*
X1217897Y844296D01*
X1217552Y846917D01*
X1216752Y848847D01*
X1217861Y849487D01*
X1217940Y849386D01*
X1219797Y847961D01*
X1221959Y847065D01*
X1224280Y846759D01*
X1226601Y847065D01*
X1228763Y847961D01*
X1230620Y849386D01*
X1232045Y851243D01*
X1232941Y853405D01*
X1233247Y855726D01*
X1232941Y858047D01*
X1232045Y860209D01*
X1230620Y862066D01*
X1228763Y863491D01*
X1226601Y864387D01*
X1225430Y864541D01*
X1225513Y865811D01*
X1251523D01*
X1253010Y866107D01*
X1254270Y866949D01*
X1258793Y871472D01*
X1259996Y870879D01*
D02*
G37*
G36*
X1051415Y924903D02*
X1052840Y923046D01*
X1054697Y921621D01*
X1054845Y921559D01*
X1054880Y920726D01*
X1054795Y920205D01*
X1053639Y919433D01*
X1046273Y912067D01*
X1045431Y910807D01*
X1045135Y909320D01*
Y873760D01*
X1045431Y872273D01*
X1046273Y871013D01*
X1051607Y865679D01*
X1052867Y864837D01*
X1054354Y864541D01*
X1080431D01*
X1122277Y822696D01*
X1121788Y821517D01*
X1121443Y818896D01*
X1121788Y816275D01*
X1122800Y813833D01*
X1124409Y811735D01*
X1124911Y811351D01*
X1124480Y810081D01*
X1090930D01*
X1089443Y809785D01*
X1088183Y808943D01*
X1082069Y802829D01*
X1080728Y803284D01*
X1080541Y804707D01*
X1079645Y806869D01*
X1078220Y808726D01*
X1076363Y810151D01*
X1074201Y811047D01*
X1071880Y811353D01*
X1066800D01*
Y802386D01*
X1065530D01*
Y801116D01*
X1050380D01*
X1050519Y800065D01*
X1051415Y797903D01*
X1052010Y797127D01*
X1051384Y795857D01*
X1046311D01*
X1001597Y840571D01*
Y876348D01*
X1002736Y876910D01*
X1003389Y876409D01*
X1005551Y875513D01*
X1007872Y875207D01*
X1010193Y875513D01*
X1010791Y875761D01*
X1046273Y840279D01*
X1047533Y839437D01*
X1049020Y839141D01*
X1079107D01*
X1079355Y838543D01*
X1080780Y836686D01*
X1082637Y835261D01*
X1084799Y834365D01*
X1087120Y834059D01*
X1089441Y834365D01*
X1091603Y835261D01*
X1093460Y836686D01*
X1094885Y838543D01*
X1095781Y840705D01*
X1096087Y843026D01*
X1095781Y845347D01*
X1094885Y847509D01*
X1093460Y849366D01*
X1091603Y850791D01*
X1089441Y851687D01*
X1087120Y851993D01*
X1084799Y851687D01*
X1082637Y850791D01*
X1081535Y849946D01*
X1080492Y850747D01*
X1080541Y850865D01*
X1080847Y853186D01*
X1080541Y855507D01*
X1079645Y857669D01*
X1078220Y859526D01*
X1076363Y860951D01*
X1074201Y861847D01*
X1071880Y862153D01*
X1059180D01*
X1056859Y861847D01*
X1054697Y860951D01*
X1052840Y859526D01*
X1051415Y857669D01*
X1050519Y855507D01*
X1050213Y853186D01*
X1050519Y850865D01*
X1051415Y848703D01*
X1050807Y847408D01*
X1050206Y847334D01*
X1016285Y881255D01*
X1016533Y881853D01*
X1016839Y884174D01*
X1016533Y886495D01*
X1015637Y888657D01*
X1014212Y890514D01*
X1012355Y891939D01*
X1010193Y892835D01*
X1007872Y893141D01*
X1005551Y892835D01*
X1003389Y891939D01*
X1002720Y891426D01*
X1001533Y892116D01*
X1001301Y893281D01*
X1000459Y894541D01*
X988267Y906733D01*
X987007Y907575D01*
X985520Y907871D01*
X952893D01*
X952645Y908469D01*
X952144Y909122D01*
X952706Y910261D01*
X966470D01*
X967957Y910557D01*
X969217Y911399D01*
X983319Y925501D01*
X1051167D01*
X1051415Y924903D01*
D02*
G37*
G36*
X1084834Y876630D02*
X1085860Y875294D01*
X1087717Y873869D01*
X1089879Y872973D01*
X1092200Y872667D01*
X1094521Y872973D01*
X1095119Y873221D01*
X1114091Y854249D01*
X1115351Y853407D01*
X1116838Y853111D01*
X1124480D01*
X1124911Y851841D01*
X1124409Y851457D01*
X1122800Y849359D01*
X1121788Y846917D01*
X1121443Y844296D01*
X1121788Y841675D01*
X1122800Y839233D01*
X1124409Y837135D01*
X1126507Y835526D01*
X1128949Y834514D01*
X1131570Y834169D01*
X1134191Y834514D01*
X1136633Y835526D01*
X1138731Y837135D01*
X1140340Y839233D01*
X1141352Y841675D01*
X1141697Y844296D01*
X1141352Y846917D01*
X1140863Y848096D01*
X1144609Y851841D01*
X1199304D01*
X1199930Y850571D01*
X1199000Y849359D01*
X1197988Y846917D01*
X1197643Y844296D01*
X1197988Y841675D01*
X1199000Y839233D01*
X1200609Y837135D01*
X1201111Y836751D01*
X1200680Y835481D01*
X1177036D01*
X1175549Y835185D01*
X1174289Y834343D01*
X1150027Y810081D01*
X1138660D01*
X1138229Y811351D01*
X1138731Y811735D01*
X1140340Y813833D01*
X1141352Y816275D01*
X1141697Y818896D01*
X1141352Y821517D01*
X1140340Y823959D01*
X1138731Y826057D01*
X1136633Y827666D01*
X1134191Y828678D01*
X1131570Y829023D01*
X1128949Y828678D01*
X1127770Y828189D01*
X1084787Y871173D01*
X1083527Y872015D01*
X1082040Y872311D01*
X1079706D01*
X1079144Y873450D01*
X1079645Y874103D01*
X1079929Y874787D01*
X1080987Y874997D01*
X1082247Y875839D01*
X1083291Y876884D01*
X1084834Y876630D01*
D02*
G37*
G36*
X1339298Y826509D02*
X1339039Y826311D01*
X1337430Y824213D01*
X1336418Y821771D01*
X1336073Y819150D01*
X1336418Y816529D01*
X1337430Y814087D01*
X1338945Y812113D01*
X1338725Y811064D01*
X1338650Y810843D01*
X1283208D01*
X1281721Y810547D01*
X1280461Y809705D01*
X1273800Y803043D01*
X1272621Y803532D01*
X1270000Y803877D01*
X1267379Y803532D01*
X1264937Y802520D01*
X1262839Y800911D01*
X1261230Y798813D01*
X1260218Y796371D01*
X1259873Y793750D01*
X1260218Y791129D01*
X1261230Y788687D01*
X1262160Y787475D01*
X1261534Y786205D01*
X1220555D01*
X1217063Y789696D01*
X1217552Y790875D01*
X1217897Y793496D01*
X1217552Y796117D01*
X1216540Y798559D01*
X1214931Y800657D01*
X1212833Y802266D01*
X1210391Y803278D01*
X1207770Y803623D01*
X1205149Y803278D01*
X1202707Y802266D01*
X1200609Y800657D01*
X1199000Y798559D01*
X1197988Y796117D01*
X1197643Y793496D01*
X1197988Y790875D01*
X1199000Y788433D01*
X1200609Y786335D01*
X1202707Y784726D01*
X1205149Y783714D01*
X1207770Y783369D01*
X1210391Y783714D01*
X1211570Y784203D01*
X1216199Y779573D01*
X1217459Y778731D01*
X1218946Y778435D01*
X1249406D01*
X1249658Y777165D01*
X1247737Y776369D01*
X1245880Y774944D01*
X1244455Y773087D01*
X1243559Y770925D01*
X1243253Y768604D01*
X1243559Y766283D01*
X1243807Y765685D01*
X1238673Y760551D01*
X1216236D01*
X1215610Y761821D01*
X1216540Y763033D01*
X1217552Y765475D01*
X1217729Y766826D01*
X1207770D01*
X1197811D01*
X1197988Y765475D01*
X1199000Y763033D01*
X1199930Y761821D01*
X1199304Y760551D01*
X1144609D01*
X1140863Y764296D01*
X1141352Y765475D01*
X1141697Y768096D01*
X1141352Y770717D01*
X1140340Y773159D01*
X1138731Y775257D01*
X1138229Y775641D01*
X1138660Y776911D01*
X1169670D01*
X1171157Y777207D01*
X1172417Y778049D01*
X1203970Y809603D01*
X1205149Y809114D01*
X1207770Y808769D01*
X1210391Y809114D01*
X1212833Y810126D01*
X1214931Y811735D01*
X1216540Y813833D01*
X1217552Y816275D01*
X1217897Y818896D01*
X1217552Y821517D01*
X1216540Y823959D01*
X1214931Y826057D01*
X1214429Y826441D01*
X1214860Y827711D01*
X1262689D01*
X1263098Y826509D01*
X1262839Y826311D01*
X1261230Y824213D01*
X1260218Y821771D01*
X1259873Y819150D01*
X1260218Y816529D01*
X1261230Y814087D01*
X1262839Y811989D01*
X1264937Y810380D01*
X1267379Y809368D01*
X1270000Y809023D01*
X1272621Y809368D01*
X1275063Y810380D01*
X1277161Y811989D01*
X1278770Y814087D01*
X1279782Y816529D01*
X1280127Y819150D01*
X1279782Y821771D01*
X1278770Y824213D01*
X1277161Y826311D01*
X1276902Y826509D01*
X1277311Y827711D01*
X1338889D01*
X1339298Y826509D01*
D02*
G37*
G36*
X1340203Y801803D02*
X1339039Y800911D01*
X1337430Y798813D01*
X1336418Y796371D01*
X1336073Y793750D01*
X1336418Y791129D01*
X1337430Y788687D01*
X1338360Y787475D01*
X1337734Y786205D01*
X1278466D01*
X1277840Y787475D01*
X1278770Y788687D01*
X1279782Y791129D01*
X1280127Y793750D01*
X1279782Y796371D01*
X1279293Y797550D01*
X1284817Y803073D01*
X1339772D01*
X1340203Y801803D01*
D02*
G37*
G36*
X1201111Y826441D02*
X1200609Y826057D01*
X1199000Y823959D01*
X1197988Y821517D01*
X1197643Y818896D01*
X1197988Y816275D01*
X1198477Y815096D01*
X1168061Y784681D01*
X1138660D01*
X1138229Y785951D01*
X1138731Y786335D01*
X1140340Y788433D01*
X1141352Y790875D01*
X1141697Y793496D01*
X1141352Y796117D01*
X1140340Y798559D01*
X1138731Y800657D01*
X1138229Y801041D01*
X1138660Y802311D01*
X1151636D01*
X1153123Y802607D01*
X1154383Y803449D01*
X1178645Y827711D01*
X1200680D01*
X1201111Y826441D01*
D02*
G37*
G36*
X993827Y890185D02*
Y838962D01*
X994123Y837475D01*
X994965Y836215D01*
X1041955Y789225D01*
X1043215Y788383D01*
X1044702Y788087D01*
X1076706D01*
X1078193Y788383D01*
X1079453Y789225D01*
X1092539Y802311D01*
X1124480D01*
X1124911Y801041D01*
X1124409Y800657D01*
X1122800Y798559D01*
X1121788Y796117D01*
X1121443Y793496D01*
X1121788Y790875D01*
X1122800Y788433D01*
X1124409Y786335D01*
X1124911Y785951D01*
X1124480Y784681D01*
X1113790D01*
X1112303Y784385D01*
X1111043Y783543D01*
X1091607Y764107D01*
X1035389D01*
X963243Y836253D01*
Y879348D01*
X962947Y880835D01*
X962105Y882095D01*
X949230Y894970D01*
X949596Y896399D01*
X951220Y897646D01*
X952645Y899503D01*
X952893Y900101D01*
X983911D01*
X993827Y890185D01*
D02*
G37*
G36*
X1341246Y777165D02*
X1341137Y777120D01*
X1339039Y775511D01*
X1337430Y773413D01*
X1336418Y770971D01*
X1336241Y769620D01*
X1346200D01*
Y767080D01*
X1336241D01*
X1336418Y765729D01*
X1337430Y763287D01*
X1338360Y762075D01*
X1337734Y760805D01*
X1283039D01*
X1279293Y764550D01*
X1279782Y765729D01*
X1280127Y768350D01*
X1279782Y770971D01*
X1278770Y773413D01*
X1277161Y775511D01*
X1275063Y777120D01*
X1274954Y777165D01*
X1275206Y778435D01*
X1340994D01*
X1341246Y777165D01*
D02*
G37*
G36*
X1261076Y763658D02*
X1261230Y763287D01*
X1262839Y761189D01*
X1264937Y759580D01*
X1267379Y758568D01*
X1270000Y758223D01*
X1272621Y758568D01*
X1273800Y759057D01*
X1277894Y754963D01*
X1277368Y753693D01*
X1244598D01*
X1244072Y754963D01*
X1249301Y760191D01*
X1249899Y759943D01*
X1252220Y759637D01*
X1254541Y759943D01*
X1256703Y760839D01*
X1258560Y762264D01*
X1259677Y763718D01*
X1261076Y763658D01*
D02*
G37*
%LPC*%
G36*
X1397000Y1337398D02*
X1394348Y1337048D01*
X1391876Y1336025D01*
X1389754Y1334396D01*
X1388125Y1332274D01*
X1387101Y1329802D01*
X1386752Y1327150D01*
X1387101Y1324498D01*
X1388125Y1322026D01*
X1389754Y1319904D01*
X1391876Y1318275D01*
X1394348Y1317251D01*
X1397000Y1316902D01*
X1399652Y1317251D01*
X1402124Y1318275D01*
X1404246Y1319904D01*
X1405875Y1322026D01*
X1406898Y1324498D01*
X1407248Y1327150D01*
X1406898Y1329802D01*
X1405875Y1332274D01*
X1404246Y1334396D01*
X1402124Y1336025D01*
X1399652Y1337048D01*
X1397000Y1337398D01*
D02*
G37*
G36*
X1371600D02*
X1368948Y1337048D01*
X1366476Y1336025D01*
X1364354Y1334396D01*
X1362725Y1332274D01*
X1361702Y1329802D01*
X1361352Y1327150D01*
X1361702Y1324498D01*
X1362725Y1322026D01*
X1364354Y1319904D01*
X1366476Y1318275D01*
X1368948Y1317251D01*
X1371600Y1316902D01*
X1374252Y1317251D01*
X1376724Y1318275D01*
X1378846Y1319904D01*
X1380475Y1322026D01*
X1381499Y1324498D01*
X1381848Y1327150D01*
X1381499Y1329802D01*
X1380475Y1332274D01*
X1378846Y1334396D01*
X1376724Y1336025D01*
X1374252Y1337048D01*
X1371600Y1337398D01*
D02*
G37*
G36*
X967674Y1339441D02*
X927674D01*
X924236Y1339102D01*
X920929Y1338099D01*
X917882Y1336470D01*
X915211Y1334279D01*
X913019Y1331608D01*
X911391Y1328561D01*
X910388Y1325254D01*
X910049Y1321816D01*
X910388Y1318378D01*
X911391Y1315071D01*
X913019Y1312024D01*
X915211Y1309353D01*
X917882Y1307162D01*
X920929Y1305533D01*
X924236Y1304530D01*
X927674Y1304191D01*
X967674D01*
X971113Y1304530D01*
X974419Y1305533D01*
X977466Y1307162D01*
X980137Y1309353D01*
X982328Y1312024D01*
X983957Y1315071D01*
X984960Y1318378D01*
X985299Y1321816D01*
X984960Y1325254D01*
X983957Y1328561D01*
X982328Y1331608D01*
X980137Y1334279D01*
X977466Y1336470D01*
X974419Y1338099D01*
X971113Y1339102D01*
X967674Y1339441D01*
D02*
G37*
G36*
X1043940Y1311148D02*
X1036411D01*
X1036549Y1310097D01*
X1037445Y1307935D01*
X1038870Y1306078D01*
X1040727Y1304653D01*
X1042889Y1303757D01*
X1043940Y1303618D01*
Y1311148D01*
D02*
G37*
G36*
X944880Y862153D02*
X932180D01*
X929859Y861847D01*
X927697Y860951D01*
X925840Y859526D01*
X924415Y857669D01*
X923519Y855507D01*
X923213Y853186D01*
X923519Y850865D01*
X924415Y848703D01*
X925840Y846846D01*
X927697Y845421D01*
X929859Y844525D01*
X932180Y844219D01*
X944880D01*
X947201Y844525D01*
X949363Y845421D01*
X951220Y846846D01*
X952645Y848703D01*
X953541Y850865D01*
X953847Y853186D01*
X953541Y855507D01*
X952645Y857669D01*
X951220Y859526D01*
X949363Y860951D01*
X947201Y861847D01*
X944880Y862153D01*
D02*
G37*
G36*
Y836753D02*
X932180D01*
X929859Y836447D01*
X927697Y835551D01*
X925840Y834126D01*
X924415Y832269D01*
X923519Y830107D01*
X923213Y827786D01*
X923519Y825465D01*
X924415Y823303D01*
X925840Y821446D01*
X927697Y820021D01*
X929859Y819125D01*
X932180Y818819D01*
X944880D01*
X947201Y819125D01*
X949363Y820021D01*
X951220Y821446D01*
X952645Y823303D01*
X953541Y825465D01*
X953847Y827786D01*
X953541Y830107D01*
X952645Y832269D01*
X951220Y834126D01*
X949363Y835551D01*
X947201Y836447D01*
X944880Y836753D01*
D02*
G37*
G36*
Y811353D02*
X932180D01*
X929859Y811047D01*
X927697Y810151D01*
X925840Y808726D01*
X924415Y806869D01*
X923519Y804707D01*
X923213Y802386D01*
X923519Y800065D01*
X924415Y797903D01*
X925840Y796046D01*
X927697Y794621D01*
X929859Y793725D01*
X932180Y793419D01*
X944880D01*
X947201Y793725D01*
X949363Y794621D01*
X951220Y796046D01*
X952645Y797903D01*
X953541Y800065D01*
X953847Y802386D01*
X953541Y804707D01*
X952645Y806869D01*
X951220Y808726D01*
X949363Y810151D01*
X947201Y811047D01*
X944880Y811353D01*
D02*
G37*
G36*
Y785953D02*
X932180D01*
X929859Y785647D01*
X927697Y784751D01*
X925840Y783326D01*
X924415Y781469D01*
X923519Y779307D01*
X923213Y776986D01*
X923519Y774665D01*
X924415Y772503D01*
X925840Y770646D01*
X927697Y769221D01*
X929859Y768325D01*
X932180Y768019D01*
X944880D01*
X947201Y768325D01*
X949363Y769221D01*
X951220Y770646D01*
X952645Y772503D01*
X953541Y774665D01*
X953847Y776986D01*
X953541Y779307D01*
X952645Y781469D01*
X951220Y783326D01*
X949363Y784751D01*
X947201Y785647D01*
X944880Y785953D01*
D02*
G37*
G36*
X1071880Y1217753D02*
X1059180D01*
X1056859Y1217447D01*
X1054697Y1216551D01*
X1052840Y1215126D01*
X1051415Y1213269D01*
X1050519Y1211107D01*
X1050213Y1208786D01*
X1050519Y1206465D01*
X1051415Y1204303D01*
X1052840Y1202446D01*
X1054697Y1201021D01*
X1056859Y1200125D01*
X1059180Y1199819D01*
X1071880D01*
X1074201Y1200125D01*
X1076363Y1201021D01*
X1078220Y1202446D01*
X1079645Y1204303D01*
X1080541Y1206465D01*
X1080847Y1208786D01*
X1080541Y1211107D01*
X1079645Y1213269D01*
X1078220Y1215126D01*
X1076363Y1216551D01*
X1074201Y1217447D01*
X1071880Y1217753D01*
D02*
G37*
G36*
X1790700Y1305648D02*
X1788048Y1305298D01*
X1785576Y1304275D01*
X1783454Y1302646D01*
X1781825Y1300524D01*
X1780802Y1298052D01*
X1780452Y1295400D01*
X1780802Y1292748D01*
X1781825Y1290276D01*
X1783454Y1288154D01*
X1785576Y1286525D01*
X1788048Y1285502D01*
X1790700Y1285152D01*
X1793352Y1285502D01*
X1795824Y1286525D01*
X1797946Y1288154D01*
X1799575Y1290276D01*
X1800598Y1292748D01*
X1800948Y1295400D01*
X1800598Y1298052D01*
X1799575Y1300524D01*
X1797946Y1302646D01*
X1795824Y1304275D01*
X1793352Y1305298D01*
X1790700Y1305648D01*
D02*
G37*
G36*
X1714500Y1191348D02*
X1711848Y1190999D01*
X1709376Y1189975D01*
X1707722Y1188705D01*
X1645078D01*
X1643424Y1189975D01*
X1640952Y1190999D01*
X1638300Y1191348D01*
X1635648Y1190999D01*
X1633176Y1189975D01*
X1631054Y1188346D01*
X1629425Y1186224D01*
X1628401Y1183752D01*
X1628052Y1181100D01*
X1628401Y1178448D01*
X1629425Y1175976D01*
X1631054Y1173854D01*
X1633176Y1172225D01*
X1635648Y1171201D01*
X1638300Y1170852D01*
X1640952Y1171201D01*
X1643424Y1172225D01*
X1645078Y1173495D01*
X1707722D01*
X1709376Y1172225D01*
X1711848Y1171201D01*
X1714500Y1170852D01*
X1717152Y1171201D01*
X1719624Y1172225D01*
X1721746Y1173854D01*
X1723375Y1175976D01*
X1724398Y1178448D01*
X1724748Y1181100D01*
X1724398Y1183752D01*
X1723375Y1186224D01*
X1721746Y1188346D01*
X1719624Y1189975D01*
X1717152Y1190999D01*
X1714500Y1191348D01*
D02*
G37*
G36*
X1753870Y1177855D02*
Y1169670D01*
X1762055D01*
X1761894Y1170890D01*
X1760933Y1173211D01*
X1759404Y1175204D01*
X1757411Y1176733D01*
X1755090Y1177694D01*
X1753870Y1177855D01*
D02*
G37*
G36*
X1751330D02*
X1750110Y1177694D01*
X1747789Y1176733D01*
X1745796Y1175204D01*
X1744267Y1173211D01*
X1743306Y1170890D01*
X1743145Y1169670D01*
X1751330D01*
Y1177855D01*
D02*
G37*
G36*
X1606550Y1184998D02*
X1603898Y1184649D01*
X1601426Y1183625D01*
X1599304Y1181996D01*
X1597675Y1179874D01*
X1596651Y1177402D01*
X1596302Y1174750D01*
X1596651Y1172098D01*
X1597675Y1169626D01*
X1599304Y1167504D01*
X1601426Y1165875D01*
X1603898Y1164852D01*
X1606550Y1164502D01*
X1609202Y1164852D01*
X1611674Y1165875D01*
X1613796Y1167504D01*
X1615425Y1169626D01*
X1616449Y1172098D01*
X1616798Y1174750D01*
X1616449Y1177402D01*
X1615425Y1179874D01*
X1613796Y1181996D01*
X1611674Y1183625D01*
X1609202Y1184649D01*
X1606550Y1184998D01*
D02*
G37*
G36*
X1581150D02*
X1578498Y1184649D01*
X1576026Y1183625D01*
X1573904Y1181996D01*
X1572275Y1179874D01*
X1571252Y1177402D01*
X1570902Y1174750D01*
X1571252Y1172098D01*
X1572275Y1169626D01*
X1573904Y1167504D01*
X1576026Y1165875D01*
X1578498Y1164852D01*
X1581150Y1164502D01*
X1583802Y1164852D01*
X1586274Y1165875D01*
X1588396Y1167504D01*
X1590025Y1169626D01*
X1591048Y1172098D01*
X1591398Y1174750D01*
X1591048Y1177402D01*
X1590025Y1179874D01*
X1588396Y1181996D01*
X1586274Y1183625D01*
X1583802Y1184649D01*
X1581150Y1184998D01*
D02*
G37*
G36*
X1555750D02*
X1553098Y1184649D01*
X1550626Y1183625D01*
X1548504Y1181996D01*
X1546875Y1179874D01*
X1545851Y1177402D01*
X1545502Y1174750D01*
X1545851Y1172098D01*
X1546875Y1169626D01*
X1548504Y1167504D01*
X1550626Y1165875D01*
X1553098Y1164852D01*
X1555750Y1164502D01*
X1558402Y1164852D01*
X1560874Y1165875D01*
X1562996Y1167504D01*
X1564625Y1169626D01*
X1565648Y1172098D01*
X1565998Y1174750D01*
X1565648Y1177402D01*
X1564625Y1179874D01*
X1562996Y1181996D01*
X1560874Y1183625D01*
X1558402Y1184649D01*
X1555750Y1184998D01*
D02*
G37*
G36*
X1530350D02*
X1527698Y1184649D01*
X1525226Y1183625D01*
X1523104Y1181996D01*
X1521475Y1179874D01*
X1520452Y1177402D01*
X1520102Y1174750D01*
X1520452Y1172098D01*
X1521475Y1169626D01*
X1523104Y1167504D01*
X1525226Y1165875D01*
X1527698Y1164852D01*
X1530350Y1164502D01*
X1533002Y1164852D01*
X1535474Y1165875D01*
X1537596Y1167504D01*
X1539225Y1169626D01*
X1540249Y1172098D01*
X1540598Y1174750D01*
X1540249Y1177402D01*
X1539225Y1179874D01*
X1537596Y1181996D01*
X1535474Y1183625D01*
X1533002Y1184649D01*
X1530350Y1184998D01*
D02*
G37*
G36*
X1504950D02*
X1502298Y1184649D01*
X1499826Y1183625D01*
X1497704Y1181996D01*
X1496075Y1179874D01*
X1495052Y1177402D01*
X1494702Y1174750D01*
X1495052Y1172098D01*
X1496075Y1169626D01*
X1497704Y1167504D01*
X1499826Y1165875D01*
X1502298Y1164852D01*
X1504950Y1164502D01*
X1507602Y1164852D01*
X1510074Y1165875D01*
X1512196Y1167504D01*
X1513825Y1169626D01*
X1514848Y1172098D01*
X1515198Y1174750D01*
X1514848Y1177402D01*
X1513825Y1179874D01*
X1512196Y1181996D01*
X1510074Y1183625D01*
X1507602Y1184649D01*
X1504950Y1184998D01*
D02*
G37*
G36*
X1371600D02*
X1368948Y1184649D01*
X1366476Y1183625D01*
X1364354Y1181996D01*
X1362725Y1179874D01*
X1361702Y1177402D01*
X1361352Y1174750D01*
X1361702Y1172098D01*
X1362725Y1169626D01*
X1364354Y1167504D01*
X1366476Y1165875D01*
X1368948Y1164852D01*
X1371600Y1164502D01*
X1374252Y1164852D01*
X1376724Y1165875D01*
X1378846Y1167504D01*
X1380475Y1169626D01*
X1381499Y1172098D01*
X1381848Y1174750D01*
X1381499Y1177402D01*
X1380475Y1179874D01*
X1378846Y1181996D01*
X1376724Y1183625D01*
X1374252Y1184649D01*
X1371600Y1184998D01*
D02*
G37*
G36*
X1828800Y1178022D02*
X1826310Y1177694D01*
X1823989Y1176733D01*
X1821996Y1175204D01*
X1820467Y1173211D01*
X1819506Y1170890D01*
X1819178Y1168400D01*
X1819506Y1165910D01*
X1820467Y1163589D01*
X1821996Y1161596D01*
X1823989Y1160067D01*
X1826310Y1159106D01*
X1828800Y1158778D01*
X1831290Y1159106D01*
X1833611Y1160067D01*
X1835604Y1161596D01*
X1837133Y1163589D01*
X1838094Y1165910D01*
X1838422Y1168400D01*
X1838094Y1170890D01*
X1837133Y1173211D01*
X1835604Y1175204D01*
X1833611Y1176733D01*
X1831290Y1177694D01*
X1828800Y1178022D01*
D02*
G37*
G36*
X1820545Y1103088D02*
X1811655D01*
X1808837Y1102717D01*
X1806211Y1101629D01*
X1803956Y1099899D01*
X1802226Y1097644D01*
X1801138Y1095018D01*
X1800767Y1092200D01*
X1801138Y1089382D01*
X1802226Y1086756D01*
X1803956Y1084501D01*
X1806211Y1082771D01*
X1808837Y1081683D01*
X1811655Y1081312D01*
X1820545D01*
X1823363Y1081683D01*
X1825989Y1082771D01*
X1828244Y1084501D01*
X1829974Y1086756D01*
X1831062Y1089382D01*
X1831433Y1092200D01*
X1831062Y1095018D01*
X1829974Y1097644D01*
X1828244Y1099899D01*
X1825989Y1101629D01*
X1823363Y1102717D01*
X1820545Y1103088D01*
D02*
G37*
G36*
X1071880Y1141553D02*
X1059180D01*
X1056859Y1141247D01*
X1054697Y1140351D01*
X1052840Y1138926D01*
X1051415Y1137069D01*
X1050519Y1134907D01*
X1050213Y1132586D01*
X1050519Y1130265D01*
X1051415Y1128103D01*
X1052840Y1126246D01*
X1054697Y1124821D01*
X1056859Y1123925D01*
X1059180Y1123619D01*
X1071880D01*
X1074201Y1123925D01*
X1076363Y1124821D01*
X1078220Y1126246D01*
X1079645Y1128103D01*
X1080541Y1130265D01*
X1080847Y1132586D01*
X1080541Y1134907D01*
X1079645Y1137069D01*
X1078220Y1138926D01*
X1076363Y1140351D01*
X1074201Y1141247D01*
X1071880Y1141553D01*
D02*
G37*
G36*
X1788080Y976630D02*
X1779270D01*
Y967820D01*
X1780652Y968001D01*
X1783124Y969025D01*
X1785246Y970654D01*
X1786875Y972776D01*
X1787899Y975248D01*
X1788080Y976630D01*
D02*
G37*
G36*
X1830070Y906318D02*
Y896620D01*
X1839768D01*
X1839556Y898232D01*
X1838443Y900918D01*
X1836674Y903224D01*
X1834368Y904993D01*
X1831682Y906106D01*
X1830070Y906318D01*
D02*
G37*
G36*
X1839768Y894080D02*
X1830070D01*
Y884382D01*
X1831682Y884594D01*
X1834368Y885707D01*
X1836674Y887476D01*
X1838443Y889782D01*
X1839556Y892468D01*
X1839768Y894080D01*
D02*
G37*
G36*
X1637950Y913432D02*
X1634218Y913064D01*
X1630628Y911976D01*
X1627321Y910208D01*
X1624422Y907828D01*
X1622042Y904929D01*
X1620274Y901621D01*
X1619185Y898032D01*
X1618818Y894300D01*
X1619185Y890567D01*
X1620274Y886978D01*
X1622042Y883671D01*
X1624422Y880771D01*
X1627321Y878392D01*
X1630628Y876624D01*
X1634218Y875536D01*
X1637950Y875168D01*
X1641682Y875536D01*
X1645271Y876624D01*
X1648579Y878392D01*
X1651478Y880771D01*
X1653858Y883671D01*
X1655626Y886978D01*
X1656714Y890567D01*
X1657082Y894300D01*
X1656714Y898032D01*
X1655626Y901621D01*
X1653858Y904929D01*
X1651478Y907828D01*
X1648579Y910208D01*
X1645271Y911976D01*
X1641682Y913064D01*
X1637950Y913432D01*
D02*
G37*
G36*
X1804670Y822880D02*
Y814070D01*
X1813481D01*
X1813298Y815452D01*
X1812275Y817924D01*
X1810646Y820046D01*
X1808524Y821675D01*
X1806052Y822699D01*
X1804670Y822880D01*
D02*
G37*
G36*
X1802130D02*
X1800748Y822699D01*
X1798276Y821675D01*
X1796154Y820046D01*
X1794525Y817924D01*
X1793501Y815452D01*
X1793320Y814070D01*
X1802130D01*
Y822880D01*
D02*
G37*
G36*
X1813481Y811530D02*
X1804670D01*
Y802719D01*
X1806052Y802902D01*
X1808524Y803925D01*
X1810646Y805554D01*
X1812275Y807676D01*
X1813298Y810148D01*
X1813481Y811530D01*
D02*
G37*
G36*
X1802130D02*
X1793320D01*
X1793501Y810148D01*
X1794525Y807676D01*
X1796154Y805554D01*
X1798276Y803925D01*
X1800748Y802902D01*
X1802130Y802719D01*
Y811530D01*
D02*
G37*
G36*
X1828800Y823048D02*
X1826148Y822699D01*
X1823676Y821675D01*
X1821554Y820046D01*
X1819925Y817924D01*
X1818902Y815452D01*
X1818552Y812800D01*
X1818902Y810148D01*
X1819925Y807676D01*
X1821554Y805554D01*
X1823676Y803925D01*
X1826148Y802902D01*
X1828800Y802552D01*
X1831452Y802902D01*
X1833924Y803925D01*
X1836046Y805554D01*
X1837675Y807676D01*
X1838698Y810148D01*
X1839048Y812800D01*
X1838698Y815452D01*
X1837675Y817924D01*
X1836046Y820046D01*
X1833924Y821675D01*
X1831452Y822699D01*
X1828800Y823048D01*
D02*
G37*
G36*
X1205230Y1116330D02*
X1196541D01*
X1196718Y1114979D01*
X1197730Y1112537D01*
X1199339Y1110439D01*
X1201437Y1108830D01*
X1203879Y1107818D01*
X1205230Y1107641D01*
Y1116330D01*
D02*
G37*
G36*
X1356240Y956190D02*
X1336160D01*
Y936110D01*
X1356240D01*
Y956190D01*
D02*
G37*
G36*
X1071880Y836753D02*
X1059180D01*
X1056859Y836447D01*
X1054697Y835551D01*
X1052840Y834126D01*
X1051415Y832269D01*
X1050519Y830107D01*
X1050213Y827786D01*
X1050519Y825465D01*
X1051415Y823303D01*
X1052840Y821446D01*
X1054697Y820021D01*
X1056859Y819125D01*
X1059180Y818819D01*
X1071880D01*
X1074201Y819125D01*
X1076363Y820021D01*
X1078220Y821446D01*
X1079645Y823303D01*
X1080541Y825465D01*
X1080847Y827786D01*
X1080541Y830107D01*
X1079645Y832269D01*
X1078220Y834126D01*
X1076363Y835551D01*
X1074201Y836447D01*
X1071880Y836753D01*
D02*
G37*
G36*
X1064260Y811353D02*
X1059180D01*
X1056859Y811047D01*
X1054697Y810151D01*
X1052840Y808726D01*
X1051415Y806869D01*
X1050519Y804707D01*
X1050380Y803656D01*
X1064260D01*
Y811353D01*
D02*
G37*
G36*
X1209040Y778055D02*
Y769366D01*
X1217729D01*
X1217552Y770717D01*
X1216540Y773159D01*
X1214931Y775257D01*
X1212833Y776866D01*
X1210391Y777878D01*
X1209040Y778055D01*
D02*
G37*
G36*
X1206500D02*
X1205149Y777878D01*
X1202707Y776866D01*
X1200609Y775257D01*
X1199000Y773159D01*
X1197988Y770717D01*
X1197811Y769366D01*
X1206500D01*
Y778055D01*
D02*
G37*
G36*
X1071880Y785953D02*
X1059180D01*
X1056859Y785647D01*
X1054697Y784751D01*
X1052840Y783326D01*
X1051415Y781469D01*
X1050519Y779307D01*
X1050213Y776986D01*
X1050519Y774665D01*
X1051415Y772503D01*
X1052840Y770646D01*
X1054697Y769221D01*
X1056859Y768325D01*
X1059180Y768019D01*
X1071880D01*
X1074201Y768325D01*
X1076363Y769221D01*
X1078220Y770646D01*
X1079645Y772503D01*
X1080541Y774665D01*
X1080847Y776986D01*
X1080541Y779307D01*
X1079645Y781469D01*
X1078220Y783326D01*
X1076363Y784751D01*
X1074201Y785647D01*
X1071880Y785953D01*
D02*
G37*
%LPD*%
D10*
X1639824Y1065276D02*
X1679956D01*
X1619250Y1085850D02*
X1639824Y1065276D01*
X1606550Y1085850D02*
X1619250D01*
X1593850Y1073150D02*
X1606550Y1085850D01*
X1365250Y1073150D02*
X1384300D01*
X1352550Y1085850D02*
X1365250Y1073150D01*
X1339850Y1085850D02*
X1352550D01*
X1327150Y1073150D02*
X1339850Y1085850D01*
X1498600Y1073150D02*
X1517650D01*
X1485900Y1085850D02*
X1498600Y1073150D01*
X1473200Y1085850D02*
X1485900D01*
X1460500Y1073150D02*
X1473200Y1085850D01*
X1164336Y1310386D02*
X1181100Y1327150D01*
X1145540Y1310386D02*
X1164336D01*
X1140406Y1315520D02*
X1145540Y1310386D01*
X1048312Y1315520D02*
X1140406D01*
X1045210Y1312418D02*
X1048312Y1315520D01*
X1253998Y962152D02*
X1270000Y946150D01*
X1147826Y962152D02*
X1253998D01*
X1131570Y945896D02*
X1147826Y962152D01*
X1549732Y977900D02*
X1778000D01*
X1549400Y977568D02*
X1549732Y977900D01*
X1358139Y977568D02*
X1549400D01*
X1351458Y984250D02*
X1358139Y977568D01*
X1320800Y984250D02*
X1351458D01*
X1181100D02*
X1205128Y1008278D01*
X1296772D01*
X1320800Y984250D01*
X1730756Y1065276D02*
X1819402D01*
X1838198Y1046480D01*
Y1017016D02*
Y1046480D01*
X1812544Y991362D02*
X1838198Y1017016D01*
X1812544Y886206D02*
Y991362D01*
Y886206D02*
X1828800Y869950D01*
X1788160Y1041400D02*
X1816100D01*
X1778000Y1031240D02*
X1788160Y1041400D01*
X1778000Y977900D02*
Y1031240D01*
X1638300Y1320800D02*
X1714500D01*
X1638300Y1181100D02*
X1714500D01*
X1705356Y1065276D02*
X1730756D01*
X1679956D02*
X1705356D01*
X1250950Y1073150D02*
X1327150D01*
X1517650D02*
X1593850D01*
X1384300D02*
X1460500D01*
D11*
X1289050Y1327150D02*
X1309116Y1307084D01*
X1736852D01*
X1802130Y1241806D01*
Y1168400D02*
Y1241806D01*
X1788922Y1155192D02*
X1802130Y1168400D01*
X1693672Y1155192D02*
X1788922D01*
X1679956Y1141476D02*
X1693672Y1155192D01*
X1137920Y1332484D02*
X1144016Y1338580D01*
X1226820D01*
X1238250Y1327150D01*
X1130300Y1270000D02*
X1182370D01*
X1195070Y1282700D01*
X1219200D01*
X1263650Y1327150D01*
X1238250Y1174750D02*
Y1187196D01*
X1219200Y1206246D02*
X1238250Y1187196D01*
X1162050Y1206246D02*
X1219200D01*
X1148842Y1193038D02*
X1162050Y1206246D01*
X1240282Y756666D02*
X1252220Y768604D01*
X1143000Y756666D02*
X1240282D01*
X1131570Y768096D02*
X1143000Y756666D01*
X1363726Y769366D02*
Y772668D01*
X1351280Y756920D02*
X1363726Y769366D01*
X1281430Y756920D02*
X1351280D01*
X1270000Y768350D02*
X1281430Y756920D01*
X1026160Y1065276D02*
X1029970Y1069086D01*
X1179576D01*
X1217931Y1107440D01*
Y1120775D01*
X1238886Y1141730D01*
X1357630D01*
X1361440Y1145540D01*
X1367790D01*
X1397000Y1174750D01*
X1270000Y793750D02*
X1283208Y806958D01*
X1393952D01*
X1456182Y869188D01*
X1303020Y1163320D02*
X1314450Y1174750D01*
X1232408Y1163320D02*
X1303020D01*
X1215898Y1179830D02*
X1232408Y1163320D01*
X1141730Y1179830D02*
X1215898D01*
X1130300Y1168400D02*
X1141730Y1179830D01*
X1082040Y868426D02*
X1131570Y818896D01*
X1054354Y868426D02*
X1082040D01*
X1049020Y873760D02*
X1054354Y868426D01*
X1049020Y873760D02*
Y909320D01*
X1056386Y916686D01*
X1076960D01*
X1082040Y921766D01*
Y934466D01*
X1076960Y939546D02*
X1082040Y934466D01*
X1054100Y939546D02*
X1076960D01*
X1049020Y944626D02*
X1054100Y939546D01*
X1049020Y944626D02*
Y1011936D01*
X1056640Y1019556D01*
X1079896D01*
X1112520Y1052180D01*
X1201377D01*
X1249018Y1099820D01*
X1361440D01*
X1371292Y1109672D01*
Y1129992D01*
X1376680Y1135380D01*
X1408430D01*
X1447800Y1174750D01*
X1300226Y895350D02*
X1323460D01*
X1334770Y884040D01*
X1367536D01*
X1429646Y946150D01*
X1459230D01*
X938530Y929386D02*
X967994D01*
X974344Y935736D01*
X1023112D01*
X1037336Y949960D01*
Y1026922D01*
X1051560Y1041146D01*
X1088278D01*
X1104923Y1057791D01*
X1198713D01*
X1250950Y1110028D01*
Y1123950D01*
X1339850Y1111250D02*
X1352550D01*
X1327150Y1123950D02*
X1339850Y1111250D01*
X1473200D02*
X1485900D01*
X1460500Y1123950D02*
X1473200Y1111250D01*
X1606550D02*
X1619250D01*
X1593850Y1123950D02*
X1606550Y1111250D01*
X938530Y980186D02*
X998474D01*
X1013968Y995680D01*
Y1082294D01*
X1026160Y1094486D01*
X1082294D01*
X1116838Y1129030D01*
X1143508D01*
X1151128Y1136650D01*
X1200150D01*
X1206500Y1143000D01*
X1109958Y1019556D02*
X1136406D01*
X1143772Y1012190D01*
X1151890D01*
X1159256Y1019556D01*
X1367536D01*
X1378966Y1008126D01*
X1149096Y1026414D02*
X1378712D01*
X1389126Y1016000D01*
Y1003300D02*
Y1016000D01*
X1377442Y991616D02*
X1389126Y1003300D01*
X1365250Y991616D02*
X1377442D01*
X1120140Y1039876D02*
X1385570D01*
X1399286Y1026160D01*
X1143000Y855726D02*
X1224280D01*
X1131570Y844296D02*
X1143000Y855726D01*
X1422400Y1327150D02*
X1433830Y1315720D01*
X1512570D01*
X1517650Y1320800D01*
Y1332230D01*
X1524000Y1338580D01*
X1715516D01*
X1807210Y1246886D01*
Y1144524D02*
Y1246886D01*
X1793240Y1130554D02*
X1807210Y1144524D01*
X1716278Y1130554D02*
X1793240D01*
X1705356Y1141476D02*
X1716278Y1130554D01*
X1379220Y858520D02*
X1445260Y924560D01*
X1281430Y858520D02*
X1379220D01*
X1270000Y869950D02*
X1281430Y858520D01*
X1065530Y1005586D02*
X1158240D01*
X1168654Y995172D01*
Y980440D02*
Y995172D01*
Y980440D02*
X1177290Y971804D01*
X1339602D01*
X1342648Y968758D01*
X1457089D01*
X1469491Y956357D01*
Y820521D02*
Y956357D01*
X1431886Y782916D02*
X1469491Y820521D01*
X1354181Y782916D02*
X1431886D01*
X1353585Y782320D02*
X1354181Y782916D01*
X1218946Y782320D02*
X1353585D01*
X1207770Y793496D02*
X1218946Y782320D01*
X922274Y878586D02*
X938530D01*
X916940Y883920D02*
X922274Y878586D01*
X916940Y883920D02*
Y931418D01*
X927608Y942086D01*
X1012698D01*
X1025652Y955040D01*
Y1031240D01*
X1040638Y1046226D01*
X1085596D01*
X1102241Y1062871D01*
X1193204D01*
X1238599Y1108267D01*
Y1129379D01*
X1244600Y1135380D01*
X1363980D01*
X1369060Y1140460D01*
X1391158D01*
X1410970Y1160272D01*
Y1179830D01*
X1417320Y1186180D01*
X1483868D01*
X1489202Y1180846D01*
Y1152398D02*
Y1180846D01*
Y1152398D02*
X1517650Y1123950D01*
X1263650Y1174750D02*
X1275080Y1186180D01*
X1320800D01*
X1325880Y1181100D01*
Y1168400D02*
Y1181100D01*
X1313942Y1156462D02*
X1325880Y1168400D01*
X1192022Y1156462D02*
X1313942D01*
X1178560Y1143000D02*
X1192022Y1156462D01*
X1130300Y1143000D02*
X1178560D01*
X1337190Y878960D02*
X1346200Y869950D01*
X1331983Y878960D02*
X1337190D01*
X1328547Y882396D02*
X1331983Y878960D01*
X1264223Y882396D02*
X1328547D01*
X1251523Y869696D02*
X1264223Y882396D01*
X1207770Y869696D02*
X1251523D01*
X1065530Y878586D02*
X1079500D01*
X1082040Y881126D01*
Y886830D01*
X1087120Y891910D01*
X1100226D01*
X1109994Y882142D01*
X1186681D01*
X1199127Y869696D01*
X1207770D01*
X938530Y1183386D02*
X996696D01*
X1009650Y1196340D01*
X1007872Y884174D02*
X1049020Y843026D01*
X1087120D01*
X1092200Y881634D02*
X1116838Y856996D01*
X1135380D01*
X1147318Y868934D01*
X1166114D01*
Y897128D02*
X1182998D01*
X1196340Y883786D01*
X1234440D01*
X1295908Y1231900D02*
X1638300D01*
X938530Y903986D02*
X985520D01*
X997712Y891794D01*
Y838962D02*
Y891794D01*
Y838962D02*
X1044702Y791972D01*
X1076706D01*
X1090930Y806196D01*
X1151636D01*
X1177036Y831596D01*
X1388872D01*
X1424686Y867410D01*
X1019810Y1310640D02*
X1052830Y1343660D01*
X1431290D01*
X1447800Y1327150D01*
X1152143Y945896D02*
X1207770D01*
X1139951Y933704D02*
X1152143Y945896D01*
X1121664Y933704D02*
X1139951D01*
X1110488Y944880D02*
X1121664Y933704D01*
X1110488Y944880D02*
Y966978D01*
X1097280Y980186D02*
X1110488Y966978D01*
X1065530Y980186D02*
X1097280D01*
X1065530Y954786D02*
X1087120D01*
X1098804Y943102D01*
Y924560D02*
Y943102D01*
Y924560D02*
X1115568Y907796D01*
X1195070D01*
X1207770Y920496D01*
X1092454Y1082294D02*
X1116838D01*
X1165850Y1131306D01*
X1211197D01*
X1227208Y1147318D01*
X1335278D01*
X1351280Y1163320D01*
Y1208786D01*
X1361694Y1219200D01*
X1790700D01*
X1143000Y1231900D02*
X1251712D01*
X1130300Y1219200D02*
X1143000Y1231900D01*
X970788Y1283970D02*
X1177036D01*
X1188466Y1295400D01*
X1206500D01*
X1100328Y1298448D02*
X1110608D01*
X1118870Y1306710D01*
X1134985D01*
X1141723Y1299972D01*
X1181608D01*
X1192784Y1311148D01*
X1239520D01*
X1250950Y1322578D01*
Y1330960D01*
X1258570Y1338580D01*
X1328420D01*
X1339850Y1327150D01*
X1149350Y926338D02*
X1196340D01*
X1201808Y931806D01*
X1230496D01*
X1254252Y908050D01*
X1333500D01*
X1346200Y920750D01*
X1184919Y1168400D02*
X1206500D01*
X1173489Y1156970D02*
X1184919Y1168400D01*
X1114298Y1156970D02*
X1173489D01*
X1100582Y1170686D02*
X1114298Y1156970D01*
X1014476Y1170686D02*
X1100582D01*
X1002030Y1158240D02*
X1014476Y1170686D01*
X1002030Y1066800D02*
Y1158240D01*
X991616Y1056386D02*
X1002030Y1066800D01*
X938530Y1056386D02*
X991616D01*
X981710Y929386D02*
X1065530D01*
X966470Y914146D02*
X981710Y929386D01*
X924560Y914146D02*
X966470D01*
X922020Y911606D02*
X924560Y914146D01*
X922020Y899160D02*
Y911606D01*
Y899160D02*
X927354Y893826D01*
X944880D01*
X959358Y879348D01*
Y834644D02*
Y879348D01*
Y834644D02*
X1033780Y760222D01*
X1093216D01*
X1113790Y780796D01*
X1169670D01*
X1207770Y818896D01*
X924560Y954786D02*
X938530D01*
X922020Y957326D02*
X924560Y954786D01*
X922020Y957326D02*
Y1239520D01*
X929386Y1246886D01*
X1090168D01*
X1099312Y1256030D01*
X1624330D01*
X1638300Y1270000D01*
Y1231900D02*
X1714500D01*
X1638300Y1270000D02*
X1714500D01*
X1250950Y1123950D02*
X1327150D01*
X1384300D02*
X1460500D01*
X1517650D02*
X1593850D01*
D12*
X1490950Y894550D02*
D03*
X1637950Y894300D02*
D03*
D13*
X1638300Y1231900D02*
D03*
X1714500D02*
D03*
Y1181100D02*
D03*
X1638300D02*
D03*
X1714500Y1270000D02*
D03*
X1638300D02*
D03*
Y1320800D02*
D03*
X1714500D02*
D03*
X1517650Y1123950D02*
D03*
X1593850D02*
D03*
Y1073150D02*
D03*
X1517650D02*
D03*
X1384300Y1123950D02*
D03*
X1460500D02*
D03*
Y1073150D02*
D03*
X1384300D02*
D03*
X1250950Y1123950D02*
D03*
X1327150D02*
D03*
Y1073150D02*
D03*
X1250950D02*
D03*
X1790700Y1219200D02*
D03*
Y1295400D02*
D03*
X1352550Y1111250D02*
D03*
Y1085850D02*
D03*
X1619250Y1111250D02*
D03*
Y1085850D02*
D03*
X1485900Y1111250D02*
D03*
Y1085850D02*
D03*
X1155700Y1327150D02*
D03*
X1181100D02*
D03*
X1320800Y984250D02*
D03*
X1295400D02*
D03*
X1238250Y1327150D02*
D03*
X1263650D02*
D03*
X1289050D02*
D03*
X1314450D02*
D03*
X1339850D02*
D03*
Y1174750D02*
D03*
X1314450D02*
D03*
X1289050D02*
D03*
X1263650D02*
D03*
X1238250D02*
D03*
X1371600Y1327150D02*
D03*
X1397000D02*
D03*
X1422400D02*
D03*
X1447800D02*
D03*
X1473200D02*
D03*
Y1174750D02*
D03*
X1447800D02*
D03*
X1422400D02*
D03*
X1397000D02*
D03*
X1371600D02*
D03*
X1504950Y1327150D02*
D03*
X1530350D02*
D03*
X1555750D02*
D03*
X1581150D02*
D03*
X1606550D02*
D03*
Y1174750D02*
D03*
X1581150D02*
D03*
X1555750D02*
D03*
X1530350D02*
D03*
X1504950D02*
D03*
X1828800Y977900D02*
D03*
X1778000D02*
D03*
X1155700Y984250D02*
D03*
X1181100D02*
D03*
X1803400Y812800D02*
D03*
X1828800D02*
D03*
D14*
X938530Y776986D02*
D03*
Y802386D02*
D03*
Y827786D02*
D03*
Y853186D02*
D03*
Y878586D02*
D03*
Y903986D02*
D03*
Y929386D02*
D03*
Y954786D02*
D03*
Y980186D02*
D03*
Y1005586D02*
D03*
Y1030986D02*
D03*
Y1056386D02*
D03*
Y1081786D02*
D03*
Y1107186D02*
D03*
Y1132586D02*
D03*
Y1157986D02*
D03*
Y1183386D02*
D03*
Y1208786D02*
D03*
Y1234186D02*
D03*
Y1259586D02*
D03*
X1065530Y776986D02*
D03*
Y802386D02*
D03*
Y827786D02*
D03*
Y853186D02*
D03*
Y878586D02*
D03*
Y903986D02*
D03*
Y929386D02*
D03*
Y954786D02*
D03*
Y980186D02*
D03*
Y1005586D02*
D03*
Y1030986D02*
D03*
Y1056386D02*
D03*
Y1081786D02*
D03*
Y1107186D02*
D03*
Y1132586D02*
D03*
Y1157986D02*
D03*
Y1183386D02*
D03*
Y1208786D02*
D03*
Y1234186D02*
D03*
D15*
Y1259586D02*
D03*
D16*
X1828800Y1168400D02*
D03*
X1752600D02*
D03*
X1679956Y1141476D02*
D03*
Y1065276D02*
D03*
X1705356Y1141476D02*
D03*
Y1065276D02*
D03*
X1730756Y1141476D02*
D03*
Y1065276D02*
D03*
D17*
X1130300Y1117600D02*
D03*
Y1143000D02*
D03*
Y1168400D02*
D03*
Y1193800D02*
D03*
Y1219200D02*
D03*
Y1244600D02*
D03*
Y1270000D02*
D03*
Y1295400D02*
D03*
X1206500Y1117600D02*
D03*
Y1143000D02*
D03*
Y1168400D02*
D03*
Y1193800D02*
D03*
Y1219200D02*
D03*
Y1244600D02*
D03*
Y1270000D02*
D03*
X1131570Y768096D02*
D03*
Y793496D02*
D03*
Y818896D02*
D03*
Y844296D02*
D03*
Y869696D02*
D03*
Y895096D02*
D03*
Y920496D02*
D03*
Y945896D02*
D03*
X1207770Y768096D02*
D03*
Y793496D02*
D03*
Y818896D02*
D03*
Y844296D02*
D03*
Y869696D02*
D03*
Y895096D02*
D03*
Y920496D02*
D03*
X1270000Y768350D02*
D03*
Y793750D02*
D03*
Y819150D02*
D03*
Y844550D02*
D03*
Y869950D02*
D03*
Y895350D02*
D03*
Y920750D02*
D03*
Y946150D02*
D03*
X1346200Y768350D02*
D03*
Y793750D02*
D03*
Y819150D02*
D03*
Y844550D02*
D03*
Y869950D02*
D03*
Y895350D02*
D03*
Y920750D02*
D03*
D18*
X1206500Y1295400D02*
D03*
X1207770Y945896D02*
D03*
X1346200Y946150D02*
D03*
D19*
X947674Y1321816D02*
D03*
D20*
X1816100Y1041400D02*
D03*
Y1092200D02*
D03*
D21*
X1828800Y920750D02*
D03*
D22*
Y895350D02*
D03*
Y869950D02*
D03*
D23*
X1045210Y1312418D02*
D03*
X1137920Y1332484D02*
D03*
X1148842Y1193038D02*
D03*
X1252220Y768604D02*
D03*
X1363726Y772668D02*
D03*
X1026160Y1065276D02*
D03*
X1456182Y869188D02*
D03*
X1300226Y895350D02*
D03*
X1459230Y946150D02*
D03*
X1109958Y1019556D02*
D03*
X1378966Y1008126D02*
D03*
X1149096Y1026414D02*
D03*
X1365250Y991616D02*
D03*
X1120140Y1039876D02*
D03*
X1399286Y1026160D02*
D03*
X1224280Y855726D02*
D03*
X1445260Y924560D02*
D03*
X1009650Y1196340D02*
D03*
X1007872Y884174D02*
D03*
X1087120Y843026D02*
D03*
X1092200Y881634D02*
D03*
X1166114Y868934D02*
D03*
Y897128D02*
D03*
X1234440Y883786D02*
D03*
X1295908Y1231900D02*
D03*
X1424686Y867410D02*
D03*
X1019810Y1310640D02*
D03*
X1092454Y1082294D02*
D03*
X1251712Y1231900D02*
D03*
X970788Y1283970D02*
D03*
X1100328Y1298448D02*
D03*
X1149350Y926338D02*
D03*
M02*
