G04 Layer_Physical_Order=1*
G04 Layer_Color=255*
%FSLAX44Y44*%
%MOMM*%
G71*
G01*
G75*
%ADD10C,1.0000*%
%ADD11C,0.2540*%
%ADD12C,3.3000*%
%ADD13C,1.5240*%
%ADD14O,2.5400X1.2700*%
%ADD15R,2.5400X1.2700*%
%ADD16C,1.4000*%
%ADD17C,1.5000*%
%ADD18R,1.5000X1.5000*%
%ADD19O,7.0000X3.0000*%
%ADD20O,2.5400X1.6510*%
%ADD21R,1.7000X1.7000*%
%ADD22C,1.7000*%
%ADD23C,1.2700*%
G36*
X1392046Y1345734D02*
X1392050Y1345109D01*
X1390951Y1344375D01*
X1380675Y1334099D01*
X1379140Y1334013D01*
X1378846Y1334396D01*
X1376724Y1336025D01*
X1374252Y1337048D01*
X1371600Y1337398D01*
X1368948Y1337048D01*
X1367708Y1336535D01*
X1362917Y1341327D01*
X1361657Y1342169D01*
X1360170Y1342465D01*
X1309370D01*
X1307883Y1342169D01*
X1306623Y1341327D01*
X1299003Y1333707D01*
X1298734Y1333305D01*
X1297173Y1333254D01*
X1296296Y1334396D01*
X1294174Y1336025D01*
X1291702Y1337048D01*
X1289050Y1337398D01*
X1286398Y1337048D01*
X1283926Y1336025D01*
X1281804Y1334396D01*
X1280175Y1332274D01*
X1279152Y1329802D01*
X1278802Y1327150D01*
X1279152Y1324498D01*
X1280175Y1322026D01*
X1281804Y1319904D01*
X1283926Y1318275D01*
X1286398Y1317251D01*
X1289050Y1316902D01*
X1291702Y1317251D01*
X1294174Y1318275D01*
X1296296Y1319904D01*
X1296663Y1320381D01*
X1297865Y1319973D01*
Y1315106D01*
X1245214Y1262455D01*
X1214966D01*
X1214340Y1263725D01*
X1215270Y1264937D01*
X1216282Y1267379D01*
X1216627Y1270000D01*
X1216282Y1272621D01*
X1215793Y1273800D01*
X1242267Y1300273D01*
X1243109Y1301533D01*
X1243405Y1303020D01*
Y1304063D01*
X1243109Y1305549D01*
X1242267Y1306810D01*
X1203871Y1345206D01*
X1204357Y1346379D01*
X1391839D01*
X1392046Y1345734D01*
D02*
G37*
G36*
X1145625Y1325836D02*
X1145801Y1324498D01*
X1146634Y1322489D01*
X1129576Y1305431D01*
X1127679Y1305182D01*
X1125237Y1304170D01*
X1124025Y1303240D01*
X1122755Y1303866D01*
Y1311825D01*
X1135001Y1324071D01*
X1135599Y1323823D01*
X1137920Y1323517D01*
X1140241Y1323823D01*
X1142403Y1324719D01*
X1144260Y1326144D01*
X1144297Y1326192D01*
X1145625Y1325836D01*
D02*
G37*
G36*
X1598559Y1333425D02*
X1597675Y1332274D01*
X1596651Y1329802D01*
X1596302Y1327150D01*
X1596651Y1324498D01*
X1597165Y1323259D01*
X1592373Y1318467D01*
X1591531Y1317207D01*
X1591235Y1315720D01*
Y1180592D01*
X1590100Y1179945D01*
X1589965Y1179951D01*
X1588396Y1181996D01*
X1586274Y1183625D01*
X1583802Y1184649D01*
X1581150Y1184998D01*
X1578498Y1184649D01*
X1576026Y1183625D01*
X1573904Y1181996D01*
X1572275Y1179874D01*
X1571252Y1177402D01*
X1570902Y1174750D01*
X1571252Y1172098D01*
X1572275Y1169626D01*
X1573904Y1167504D01*
X1576026Y1165875D01*
X1577265Y1165362D01*
Y1097365D01*
X1456483Y976583D01*
X1455641Y975323D01*
X1455345Y973836D01*
Y954163D01*
X1454747Y953915D01*
X1454094Y953414D01*
X1452955Y953976D01*
Y982895D01*
X1533097Y1063038D01*
X1533939Y1064298D01*
X1534235Y1065785D01*
Y1165362D01*
X1535474Y1165875D01*
X1537596Y1167504D01*
X1539225Y1169626D01*
X1540249Y1172098D01*
X1540598Y1174750D01*
X1540249Y1177402D01*
X1539225Y1179874D01*
X1537596Y1181996D01*
X1535474Y1183625D01*
X1533002Y1184649D01*
X1530350Y1184998D01*
X1527698Y1184649D01*
X1525226Y1183625D01*
X1523104Y1181996D01*
X1522737Y1181518D01*
X1521535Y1181927D01*
Y1262041D01*
X1577258Y1317765D01*
X1578498Y1317251D01*
X1581150Y1316902D01*
X1583802Y1317251D01*
X1586274Y1318275D01*
X1588396Y1319904D01*
X1590025Y1322026D01*
X1591048Y1324498D01*
X1591398Y1327150D01*
X1591048Y1329802D01*
X1590025Y1332274D01*
X1589141Y1333425D01*
X1589767Y1334695D01*
X1597932D01*
X1598559Y1333425D01*
D02*
G37*
G36*
X1498218Y1345734D02*
X1498222Y1345109D01*
X1497123Y1344375D01*
X1486455Y1333707D01*
X1485613Y1332447D01*
X1485317Y1330960D01*
Y1282785D01*
X1408223Y1205691D01*
X1407381Y1204431D01*
X1407085Y1202944D01*
Y1180592D01*
X1405950Y1179945D01*
X1405815Y1179951D01*
X1404246Y1181996D01*
X1402124Y1183625D01*
X1399652Y1184649D01*
X1397000Y1184998D01*
X1394348Y1184649D01*
X1391876Y1183625D01*
X1389754Y1181996D01*
X1388125Y1179874D01*
X1387101Y1177402D01*
X1386752Y1174750D01*
X1387101Y1172098D01*
X1388125Y1169626D01*
X1389754Y1167504D01*
X1391876Y1165875D01*
X1394348Y1164852D01*
X1397000Y1164502D01*
X1399652Y1164852D01*
X1402124Y1165875D01*
X1404246Y1167504D01*
X1405815Y1169549D01*
X1405950Y1169555D01*
X1407085Y1168908D01*
Y1120987D01*
X1361863Y1075765D01*
X1358392D01*
X1357745Y1076900D01*
X1357751Y1077035D01*
X1359796Y1078604D01*
X1361425Y1080726D01*
X1362448Y1083198D01*
X1362798Y1085850D01*
X1362448Y1088502D01*
X1361425Y1090974D01*
X1359796Y1093096D01*
X1357674Y1094725D01*
X1355202Y1095749D01*
X1353134Y1096021D01*
X1348670Y1100486D01*
X1349389Y1101562D01*
X1349898Y1101351D01*
X1352550Y1101002D01*
X1355202Y1101351D01*
X1357674Y1102375D01*
X1359796Y1104004D01*
X1361425Y1106126D01*
X1362448Y1108598D01*
X1362798Y1111250D01*
X1362448Y1113902D01*
X1361425Y1116374D01*
X1359796Y1118496D01*
X1357674Y1120125D01*
X1355202Y1121149D01*
X1352550Y1121498D01*
X1349898Y1121149D01*
X1347426Y1120125D01*
X1345304Y1118496D01*
X1343675Y1116374D01*
X1342652Y1113902D01*
X1342302Y1111250D01*
X1342652Y1108598D01*
X1343488Y1106579D01*
X1342549Y1105593D01*
X1341818Y1105896D01*
X1339850Y1106155D01*
X1334110D01*
X1327763Y1112502D01*
X1328218Y1113843D01*
X1329802Y1114052D01*
X1332274Y1115075D01*
X1334396Y1116704D01*
X1336025Y1118826D01*
X1337048Y1121298D01*
X1337398Y1123950D01*
X1337048Y1126602D01*
X1336025Y1129074D01*
X1334396Y1131196D01*
X1332274Y1132825D01*
X1329802Y1133848D01*
X1327150Y1134198D01*
X1324498Y1133848D01*
X1322026Y1132825D01*
X1320785Y1131872D01*
X1319515Y1132499D01*
Y1143660D01*
X1322760Y1146905D01*
X1334690D01*
X1336659Y1147164D01*
X1337473Y1147501D01*
X1338493Y1147924D01*
X1340068Y1149132D01*
X1340068Y1149132D01*
X1341277Y1150707D01*
X1341699Y1151728D01*
X1342036Y1152541D01*
X1342295Y1154510D01*
X1342295Y1164824D01*
X1342502Y1164852D01*
X1344974Y1165875D01*
X1347096Y1167504D01*
X1348725Y1169626D01*
X1349749Y1172098D01*
X1350098Y1174750D01*
X1349749Y1177402D01*
X1348725Y1179874D01*
X1347096Y1181996D01*
X1344974Y1183625D01*
X1342502Y1184649D01*
X1340755Y1184879D01*
X1340109Y1186245D01*
X1340180Y1186359D01*
X1354497D01*
X1362215Y1178642D01*
X1361702Y1177402D01*
X1361352Y1174750D01*
X1361702Y1172098D01*
X1362725Y1169626D01*
X1364354Y1167504D01*
X1366476Y1165875D01*
X1368948Y1164852D01*
X1371600Y1164502D01*
X1374252Y1164852D01*
X1376724Y1165875D01*
X1378846Y1167504D01*
X1380475Y1169626D01*
X1381499Y1172098D01*
X1381848Y1174750D01*
X1381499Y1177402D01*
X1380475Y1179874D01*
X1378846Y1181996D01*
X1376724Y1183625D01*
X1374252Y1184649D01*
X1371600Y1184998D01*
X1368948Y1184649D01*
X1367708Y1184135D01*
X1358853Y1192991D01*
X1357593Y1193833D01*
X1356106Y1194129D01*
X1337564D01*
X1336077Y1193833D01*
X1334817Y1192991D01*
X1323525Y1181699D01*
X1321990Y1181613D01*
X1321696Y1181996D01*
X1319574Y1183625D01*
X1317102Y1184649D01*
X1314450Y1184998D01*
X1311798Y1184649D01*
X1309326Y1183625D01*
X1308175Y1182741D01*
X1306905Y1183367D01*
Y1214017D01*
X1399747Y1306859D01*
X1400589Y1308120D01*
X1400885Y1309606D01*
Y1317762D01*
X1402124Y1318275D01*
X1404246Y1319904D01*
X1405875Y1322026D01*
X1406898Y1324498D01*
X1407248Y1327150D01*
X1406898Y1329802D01*
X1405875Y1332274D01*
X1404246Y1334396D01*
X1402124Y1336025D01*
X1401041Y1336473D01*
X1401293Y1337743D01*
X1418107D01*
X1418359Y1336473D01*
X1417276Y1336025D01*
X1415154Y1334396D01*
X1413525Y1332274D01*
X1412502Y1329802D01*
X1412152Y1327150D01*
X1412502Y1324498D01*
X1413525Y1322026D01*
X1415154Y1319904D01*
X1417276Y1318275D01*
X1419748Y1317251D01*
X1422400Y1316902D01*
X1425052Y1317251D01*
X1427524Y1318275D01*
X1429646Y1319904D01*
X1431275Y1322026D01*
X1432298Y1324498D01*
X1432648Y1327150D01*
X1432298Y1329802D01*
X1431275Y1332274D01*
X1429646Y1334396D01*
X1427524Y1336025D01*
X1426441Y1336473D01*
X1426694Y1337743D01*
X1443506D01*
X1443759Y1336473D01*
X1442676Y1336025D01*
X1440554Y1334396D01*
X1438925Y1332274D01*
X1437901Y1329802D01*
X1437552Y1327150D01*
X1437901Y1324498D01*
X1438925Y1322026D01*
X1440554Y1319904D01*
X1442676Y1318275D01*
X1445148Y1317251D01*
X1447800Y1316902D01*
X1450452Y1317251D01*
X1452924Y1318275D01*
X1455046Y1319904D01*
X1456675Y1322026D01*
X1457699Y1324498D01*
X1458048Y1327150D01*
X1457699Y1329802D01*
X1456675Y1332274D01*
X1455046Y1334396D01*
X1452924Y1336025D01*
X1451841Y1336473D01*
X1452094Y1337743D01*
X1457113D01*
X1463815Y1331042D01*
X1463302Y1329802D01*
X1462952Y1327150D01*
X1463302Y1324498D01*
X1464325Y1322026D01*
X1465954Y1319904D01*
X1468076Y1318275D01*
X1470548Y1317251D01*
X1473200Y1316902D01*
X1475852Y1317251D01*
X1478324Y1318275D01*
X1480446Y1319904D01*
X1482075Y1322026D01*
X1483098Y1324498D01*
X1483448Y1327150D01*
X1483098Y1329802D01*
X1482075Y1332274D01*
X1480446Y1334396D01*
X1478324Y1336025D01*
X1475852Y1337048D01*
X1473200Y1337398D01*
X1470548Y1337048D01*
X1469308Y1336535D01*
X1461469Y1344375D01*
X1460370Y1345109D01*
X1460374Y1345734D01*
X1460581Y1346379D01*
X1498011D01*
X1498218Y1345734D01*
D02*
G37*
G36*
X1362215Y1331042D02*
X1361702Y1329802D01*
X1361352Y1327150D01*
X1361702Y1324498D01*
X1362725Y1322026D01*
X1363609Y1320875D01*
X1362982Y1319605D01*
X1353820D01*
X1352333Y1319309D01*
X1351073Y1318467D01*
X1261438Y1228832D01*
X1260362Y1229551D01*
X1260373Y1229579D01*
X1260679Y1231900D01*
X1260373Y1234221D01*
X1260125Y1234819D01*
X1317197Y1291891D01*
X1318039Y1293151D01*
X1318335Y1294638D01*
Y1317762D01*
X1319574Y1318275D01*
X1321696Y1319904D01*
X1323325Y1322026D01*
X1324348Y1324498D01*
X1324698Y1327150D01*
X1324348Y1329802D01*
X1323325Y1332274D01*
X1322441Y1333425D01*
X1323067Y1334695D01*
X1331232D01*
X1331859Y1333425D01*
X1330975Y1332274D01*
X1329951Y1329802D01*
X1329602Y1327150D01*
X1329951Y1324498D01*
X1330975Y1322026D01*
X1332604Y1319904D01*
X1334726Y1318275D01*
X1337198Y1317251D01*
X1339850Y1316902D01*
X1342502Y1317251D01*
X1344974Y1318275D01*
X1347096Y1319904D01*
X1348725Y1322026D01*
X1349749Y1324498D01*
X1350098Y1327150D01*
X1349749Y1329802D01*
X1348725Y1332274D01*
X1347841Y1333425D01*
X1348468Y1334695D01*
X1358561D01*
X1362215Y1331042D01*
D02*
G37*
G36*
X1010782Y1345206D02*
X996685Y1331108D01*
X995843Y1329848D01*
X995547Y1328362D01*
Y1045491D01*
X984927Y1034871D01*
X952893D01*
X952645Y1035469D01*
X951220Y1037326D01*
X949363Y1038751D01*
X947201Y1039647D01*
X944880Y1039953D01*
X932180D01*
X929859Y1039647D01*
X927697Y1038751D01*
X925840Y1037326D01*
X924415Y1035469D01*
X923519Y1033307D01*
X923365Y1032136D01*
X922095Y1032219D01*
Y1055153D01*
X923365Y1055236D01*
X923519Y1054065D01*
X924415Y1051903D01*
X925840Y1050046D01*
X927697Y1048621D01*
X929859Y1047725D01*
X932180Y1047419D01*
X944880D01*
X947201Y1047725D01*
X949363Y1048621D01*
X951220Y1050046D01*
X952645Y1051903D01*
X953541Y1054065D01*
X953847Y1056386D01*
X953541Y1058707D01*
X952645Y1060869D01*
X951220Y1062726D01*
X949363Y1064151D01*
X947201Y1065047D01*
X944880Y1065353D01*
X932180D01*
X929859Y1065047D01*
X927697Y1064151D01*
X925840Y1062726D01*
X924415Y1060869D01*
X923519Y1058707D01*
X923365Y1057536D01*
X922095Y1057619D01*
Y1080553D01*
X923365Y1080636D01*
X923519Y1079465D01*
X924415Y1077303D01*
X925840Y1075446D01*
X927697Y1074021D01*
X929859Y1073125D01*
X932180Y1072819D01*
X944880D01*
X947201Y1073125D01*
X949363Y1074021D01*
X951220Y1075446D01*
X952645Y1077303D01*
X953541Y1079465D01*
X953847Y1081786D01*
X953541Y1084107D01*
X952645Y1086269D01*
X951220Y1088126D01*
X949363Y1089551D01*
X947201Y1090447D01*
X944880Y1090753D01*
X932180D01*
X929859Y1090447D01*
X927697Y1089551D01*
X925840Y1088126D01*
X924415Y1086269D01*
X923519Y1084107D01*
X923365Y1082936D01*
X922095Y1083019D01*
Y1089067D01*
X926169Y1093141D01*
X966216D01*
X967703Y1093437D01*
X968963Y1094279D01*
X973535Y1098851D01*
X974377Y1100111D01*
X974673Y1101598D01*
Y1275957D01*
X975271Y1276205D01*
X977128Y1277630D01*
X978553Y1279487D01*
X979449Y1281649D01*
X979755Y1283970D01*
X979449Y1286291D01*
X978553Y1288453D01*
X977128Y1290310D01*
X975271Y1291735D01*
X973109Y1292631D01*
X970788Y1292937D01*
X968467Y1292631D01*
X966305Y1291735D01*
X964448Y1290310D01*
X963023Y1288453D01*
X962127Y1286291D01*
X961821Y1283970D01*
X962127Y1281649D01*
X963023Y1279487D01*
X964448Y1277630D01*
X966305Y1276205D01*
X966903Y1275957D01*
Y1103207D01*
X964607Y1100911D01*
X952706D01*
X952144Y1102050D01*
X952645Y1102703D01*
X953541Y1104865D01*
X953847Y1107186D01*
X953541Y1109507D01*
X952645Y1111669D01*
X951220Y1113526D01*
X949363Y1114951D01*
X947201Y1115847D01*
X944880Y1116153D01*
X932180D01*
X929859Y1115847D01*
X927697Y1114951D01*
X927044Y1114450D01*
X925905Y1115012D01*
Y1124760D01*
X927044Y1125322D01*
X927697Y1124821D01*
X929859Y1123925D01*
X932180Y1123619D01*
X944880D01*
X947201Y1123925D01*
X949363Y1124821D01*
X951220Y1126246D01*
X952645Y1128103D01*
X953541Y1130265D01*
X953847Y1132586D01*
X953541Y1134907D01*
X952645Y1137069D01*
X951220Y1138926D01*
X949363Y1140351D01*
X947201Y1141247D01*
X944880Y1141553D01*
X932180D01*
X929859Y1141247D01*
X927697Y1140351D01*
X927044Y1139850D01*
X925905Y1140412D01*
Y1150160D01*
X927044Y1150722D01*
X927697Y1150221D01*
X929859Y1149325D01*
X932180Y1149019D01*
X944880D01*
X947201Y1149325D01*
X949363Y1150221D01*
X951220Y1151646D01*
X952645Y1153503D01*
X953541Y1155665D01*
X953847Y1157986D01*
X953541Y1160307D01*
X952645Y1162469D01*
X951220Y1164326D01*
X949363Y1165751D01*
X947201Y1166647D01*
X944880Y1166953D01*
X932180D01*
X929859Y1166647D01*
X927697Y1165751D01*
X927044Y1165250D01*
X925905Y1165812D01*
Y1175560D01*
X927044Y1176122D01*
X927697Y1175621D01*
X929859Y1174725D01*
X932180Y1174419D01*
X944880D01*
X947201Y1174725D01*
X949363Y1175621D01*
X951220Y1177046D01*
X952645Y1178903D01*
X953541Y1181065D01*
X953847Y1183386D01*
X953541Y1185707D01*
X952645Y1187869D01*
X951220Y1189726D01*
X949363Y1191151D01*
X947201Y1192047D01*
X944880Y1192353D01*
X932180D01*
X929859Y1192047D01*
X927697Y1191151D01*
X927044Y1190650D01*
X925905Y1191212D01*
Y1200960D01*
X927044Y1201522D01*
X927697Y1201021D01*
X929859Y1200125D01*
X932180Y1199819D01*
X944880D01*
X947201Y1200125D01*
X949363Y1201021D01*
X951220Y1202446D01*
X952645Y1204303D01*
X953541Y1206465D01*
X953847Y1208786D01*
X953541Y1211107D01*
X952645Y1213269D01*
X951220Y1215126D01*
X949363Y1216551D01*
X947201Y1217447D01*
X944880Y1217753D01*
X932180D01*
X929859Y1217447D01*
X927697Y1216551D01*
X927044Y1216050D01*
X925905Y1216612D01*
Y1226360D01*
X927044Y1226922D01*
X927697Y1226421D01*
X929859Y1225525D01*
X932180Y1225219D01*
X944880D01*
X947201Y1225525D01*
X949363Y1226421D01*
X951220Y1227846D01*
X952645Y1229703D01*
X953541Y1231865D01*
X953847Y1234186D01*
X953541Y1236507D01*
X952645Y1238669D01*
X951220Y1240526D01*
X949363Y1241951D01*
X947201Y1242847D01*
X944880Y1243153D01*
X932180D01*
X929859Y1242847D01*
X927697Y1241951D01*
X927044Y1241450D01*
X925905Y1242012D01*
Y1251760D01*
X927044Y1252322D01*
X927697Y1251821D01*
X929859Y1250925D01*
X932180Y1250619D01*
X944880D01*
X947201Y1250925D01*
X949363Y1251821D01*
X951220Y1253246D01*
X952645Y1255103D01*
X953541Y1257265D01*
X953847Y1259586D01*
X953541Y1261907D01*
X952645Y1264069D01*
X951220Y1265926D01*
X949363Y1267351D01*
X947201Y1268247D01*
X944880Y1268553D01*
X932180D01*
X929859Y1268247D01*
X927697Y1267351D01*
X927044Y1266850D01*
X925905Y1267412D01*
Y1303420D01*
X926846Y1304273D01*
X927674Y1304191D01*
X967674D01*
X971113Y1304530D01*
X974419Y1305533D01*
X977466Y1307162D01*
X980137Y1309353D01*
X982328Y1312024D01*
X983957Y1315071D01*
X984960Y1318378D01*
X985299Y1321816D01*
X984960Y1325254D01*
X983957Y1328561D01*
X982328Y1331608D01*
X980137Y1334279D01*
X977466Y1336470D01*
X974419Y1338099D01*
X971113Y1339102D01*
X967674Y1339441D01*
X927674D01*
X924236Y1339102D01*
X920929Y1338099D01*
X917882Y1336470D01*
X915211Y1334279D01*
X913019Y1331608D01*
X911391Y1328561D01*
X910388Y1325254D01*
X910049Y1321816D01*
X910388Y1318378D01*
X911391Y1315071D01*
X913019Y1312024D01*
X915211Y1309353D01*
X917882Y1307162D01*
X918135Y1307026D01*
Y1109726D01*
X918431Y1108239D01*
X919273Y1106979D01*
X921813Y1104439D01*
X923073Y1103597D01*
X924131Y1103387D01*
X924415Y1102703D01*
X924928Y1102034D01*
X924238Y1100847D01*
X923073Y1100615D01*
X921813Y1099773D01*
X915463Y1093423D01*
X914621Y1092163D01*
X914325Y1090676D01*
Y1010920D01*
X914621Y1009433D01*
X915463Y1008173D01*
X920797Y1002839D01*
X922057Y1001997D01*
X923544Y1001701D01*
X924167D01*
X924415Y1001103D01*
X925840Y999246D01*
X927697Y997821D01*
X929859Y996925D01*
X932180Y996619D01*
X944880D01*
X947201Y996925D01*
X949363Y997821D01*
X951220Y999246D01*
X952645Y1001103D01*
X953541Y1003265D01*
X953847Y1005586D01*
X953541Y1007907D01*
X952645Y1010069D01*
X951220Y1011926D01*
X949363Y1013351D01*
X947201Y1014247D01*
X944880Y1014553D01*
X932180D01*
X929859Y1014247D01*
X927697Y1013351D01*
X925840Y1011926D01*
X925062Y1010912D01*
X923794Y1010829D01*
X922095Y1012529D01*
Y1029753D01*
X923365Y1029836D01*
X923519Y1028665D01*
X924415Y1026503D01*
X925840Y1024646D01*
X927697Y1023221D01*
X929859Y1022325D01*
X932180Y1022019D01*
X944880D01*
X947201Y1022325D01*
X949363Y1023221D01*
X951220Y1024646D01*
X952645Y1026503D01*
X952893Y1027101D01*
X986536D01*
X988023Y1027397D01*
X989283Y1028239D01*
X1002178Y1041135D01*
X1003020Y1042395D01*
X1003316Y1043882D01*
Y1188559D01*
X1004455Y1189120D01*
X1005167Y1188575D01*
X1005765Y1188327D01*
Y892863D01*
X1005551Y892835D01*
X1003389Y891939D01*
X1001532Y890514D01*
X1000107Y888657D01*
X999211Y886495D01*
X998905Y884174D01*
X999211Y881853D01*
X1000107Y879691D01*
X1001532Y877834D01*
X1003389Y876409D01*
X1005551Y875513D01*
X1007872Y875207D01*
X1010193Y875513D01*
X1012355Y876409D01*
X1013004Y876906D01*
X1014274Y876280D01*
Y795147D01*
X1014569Y793661D01*
X1015412Y792401D01*
X1023413Y784399D01*
X1024673Y783557D01*
X1026160Y783261D01*
X1051354D01*
X1051916Y782122D01*
X1051415Y781469D01*
X1050519Y779307D01*
X1050213Y776986D01*
X1050519Y774665D01*
X1051415Y772503D01*
X1052840Y770646D01*
X1054697Y769221D01*
X1056859Y768325D01*
X1059180Y768019D01*
X1071880D01*
X1074201Y768325D01*
X1076363Y769221D01*
X1078220Y770646D01*
X1079645Y772503D01*
X1080541Y774665D01*
X1080847Y776986D01*
X1080541Y779307D01*
X1079645Y781469D01*
X1080253Y782764D01*
X1080854Y782838D01*
X1084373Y779319D01*
X1085633Y778477D01*
X1087120Y778181D01*
X1126364D01*
X1126616Y776911D01*
X1126507Y776866D01*
X1124409Y775257D01*
X1122800Y773159D01*
X1121788Y770717D01*
X1121443Y768096D01*
X1121788Y765475D01*
X1122800Y763033D01*
X1124409Y760935D01*
X1126507Y759326D01*
X1128949Y758314D01*
X1131570Y757969D01*
X1134191Y758314D01*
X1136633Y759326D01*
X1138731Y760935D01*
X1140340Y763033D01*
X1141352Y765475D01*
X1141697Y768096D01*
X1141352Y770717D01*
X1140340Y773159D01*
X1138731Y775257D01*
X1136633Y776866D01*
X1136524Y776911D01*
X1136776Y778181D01*
X1137546D01*
X1139033Y778477D01*
X1140293Y779319D01*
X1145627Y784653D01*
X1146469Y785913D01*
X1146765Y787400D01*
Y802390D01*
X1147938Y802876D01*
X1195852Y754963D01*
X1195326Y753693D01*
X905331D01*
Y899287D01*
Y1199769D01*
Y1237329D01*
Y1312450D01*
Y1346379D01*
X1010296D01*
X1010782Y1345206D01*
D02*
G37*
G36*
X1234548Y1303542D02*
X1217713Y1286707D01*
X1216540Y1287193D01*
Y1305440D01*
X1198193D01*
Y1336802D01*
X1197897Y1338289D01*
X1198948Y1339002D01*
X1199048Y1339041D01*
X1234548Y1303542D01*
D02*
G37*
G36*
X1845997Y753693D02*
X1376656D01*
X1376130Y754963D01*
X1472237Y851070D01*
X1473080Y852330D01*
X1473375Y853817D01*
Y884426D01*
X1474607Y884735D01*
X1475042Y883921D01*
X1477422Y881021D01*
X1480321Y878642D01*
X1483629Y876874D01*
X1487218Y875785D01*
X1490950Y875418D01*
X1494682Y875785D01*
X1498272Y876874D01*
X1501579Y878642D01*
X1504478Y881021D01*
X1506858Y883921D01*
X1508626Y887228D01*
X1509715Y890817D01*
X1510082Y894550D01*
X1509715Y898282D01*
X1508626Y901871D01*
X1506858Y905179D01*
X1504478Y908078D01*
X1501579Y910458D01*
X1498272Y912226D01*
X1494682Y913314D01*
X1490950Y913682D01*
X1487218Y913314D01*
X1483629Y912226D01*
X1480321Y910458D01*
X1477422Y908078D01*
X1475042Y905179D01*
X1474607Y904365D01*
X1473375Y904674D01*
Y975122D01*
X1607929Y1109675D01*
X1608378Y1109645D01*
X1609256Y1109326D01*
X1609352Y1108598D01*
X1610375Y1106126D01*
X1612004Y1104004D01*
X1614126Y1102375D01*
X1616598Y1101351D01*
X1619250Y1101002D01*
X1621902Y1101351D01*
X1622411Y1101562D01*
X1623130Y1100486D01*
X1618666Y1096021D01*
X1616598Y1095749D01*
X1614126Y1094725D01*
X1612004Y1093096D01*
X1610375Y1090974D01*
X1609352Y1088502D01*
X1609002Y1085850D01*
X1609352Y1083198D01*
X1610375Y1080726D01*
X1612004Y1078604D01*
X1614126Y1076975D01*
X1616598Y1075952D01*
X1619250Y1075602D01*
X1621902Y1075952D01*
X1624374Y1076975D01*
X1626496Y1078604D01*
X1628125Y1080726D01*
X1629149Y1083198D01*
X1629421Y1085266D01*
X1643678Y1099522D01*
X1644886Y1101097D01*
X1645201Y1101857D01*
X1645646Y1102932D01*
X1645905Y1104900D01*
Y1174322D01*
X1647175Y1175976D01*
X1648199Y1178448D01*
X1648471Y1180516D01*
X1658918Y1190962D01*
X1660126Y1192538D01*
X1660441Y1193297D01*
X1660886Y1194372D01*
X1661145Y1196340D01*
Y1305560D01*
X1660886Y1307528D01*
X1660441Y1308603D01*
X1660126Y1309362D01*
X1658918Y1310938D01*
X1648471Y1321384D01*
X1648199Y1323452D01*
X1647175Y1325924D01*
X1645546Y1328046D01*
X1643424Y1329675D01*
X1640952Y1330699D01*
X1638300Y1331048D01*
X1635648Y1330699D01*
X1633176Y1329675D01*
X1631054Y1328046D01*
X1629425Y1325924D01*
X1628401Y1323452D01*
X1628052Y1320800D01*
X1628401Y1318148D01*
X1629425Y1315676D01*
X1631054Y1313554D01*
X1633176Y1311925D01*
X1635648Y1310901D01*
X1637716Y1310629D01*
X1645935Y1302410D01*
Y1278549D01*
X1644665Y1277922D01*
X1643424Y1278875D01*
X1640952Y1279899D01*
X1638300Y1280248D01*
X1635648Y1279899D01*
X1633176Y1278875D01*
X1631054Y1277246D01*
X1629425Y1275124D01*
X1628401Y1272652D01*
X1628052Y1270000D01*
X1628401Y1267348D01*
X1629425Y1264876D01*
X1631054Y1262754D01*
X1633176Y1261125D01*
X1635648Y1260101D01*
X1638300Y1259752D01*
X1640952Y1260101D01*
X1643424Y1261125D01*
X1644665Y1262078D01*
X1645935Y1261451D01*
Y1240449D01*
X1644665Y1239822D01*
X1643424Y1240775D01*
X1640952Y1241798D01*
X1638300Y1242148D01*
X1635648Y1241798D01*
X1633176Y1240775D01*
X1631054Y1239146D01*
X1629425Y1237024D01*
X1628401Y1234552D01*
X1628052Y1231900D01*
X1628401Y1229248D01*
X1629425Y1226776D01*
X1631054Y1224654D01*
X1633176Y1223025D01*
X1635648Y1222001D01*
X1638300Y1221652D01*
X1640952Y1222001D01*
X1643424Y1223025D01*
X1644665Y1223978D01*
X1645935Y1223351D01*
Y1199490D01*
X1637716Y1191271D01*
X1635648Y1190999D01*
X1633176Y1189975D01*
X1631054Y1188346D01*
X1629425Y1186224D01*
X1628401Y1183752D01*
X1628052Y1181100D01*
X1628401Y1178448D01*
X1629425Y1175976D01*
X1630695Y1174322D01*
Y1111886D01*
X1629425Y1111803D01*
X1629149Y1113902D01*
X1628125Y1116374D01*
X1626496Y1118496D01*
X1624374Y1120125D01*
X1621902Y1121149D01*
X1619250Y1121498D01*
X1616598Y1121149D01*
X1614126Y1120125D01*
X1612004Y1118496D01*
X1610435Y1116451D01*
X1610300Y1116445D01*
X1609165Y1117092D01*
Y1146556D01*
X1608869Y1148043D01*
X1608027Y1149303D01*
X1599005Y1158325D01*
Y1166133D01*
X1600275Y1166759D01*
X1601426Y1165875D01*
X1603898Y1164852D01*
X1606550Y1164502D01*
X1609202Y1164852D01*
X1611674Y1165875D01*
X1613796Y1167504D01*
X1615425Y1169626D01*
X1616449Y1172098D01*
X1616798Y1174750D01*
X1616449Y1177402D01*
X1615425Y1179874D01*
X1613796Y1181996D01*
X1611674Y1183625D01*
X1609202Y1184649D01*
X1606550Y1184998D01*
X1603898Y1184649D01*
X1601426Y1183625D01*
X1600275Y1182741D01*
X1599005Y1183367D01*
Y1314111D01*
X1602659Y1317765D01*
X1603898Y1317251D01*
X1606550Y1316902D01*
X1609202Y1317251D01*
X1611674Y1318275D01*
X1613796Y1319904D01*
X1615425Y1322026D01*
X1616449Y1324498D01*
X1616798Y1327150D01*
X1616449Y1329802D01*
X1615425Y1332274D01*
X1614541Y1333425D01*
X1615168Y1334695D01*
X1663361D01*
X1716835Y1281221D01*
X1716242Y1280018D01*
X1714500Y1280248D01*
X1711848Y1279899D01*
X1709376Y1278875D01*
X1707254Y1277246D01*
X1705625Y1275124D01*
X1704601Y1272652D01*
X1704252Y1270000D01*
X1704601Y1267348D01*
X1705625Y1264876D01*
X1707254Y1262754D01*
X1709376Y1261125D01*
X1711848Y1260101D01*
X1714500Y1259752D01*
X1717152Y1260101D01*
X1719624Y1261125D01*
X1721746Y1262754D01*
X1723375Y1264876D01*
X1724398Y1267348D01*
X1724748Y1270000D01*
X1724518Y1271742D01*
X1725721Y1272335D01*
X1726871Y1271185D01*
Y1150193D01*
X1725945Y1149809D01*
X1723952Y1148280D01*
X1722423Y1146287D01*
X1721462Y1143966D01*
X1721134Y1141476D01*
X1721462Y1138986D01*
X1722423Y1136665D01*
X1723952Y1134672D01*
X1725945Y1133143D01*
X1728266Y1132182D01*
X1730756Y1131854D01*
X1733246Y1132182D01*
X1735567Y1133143D01*
X1737560Y1134672D01*
X1739089Y1136665D01*
X1740050Y1138986D01*
X1740378Y1141476D01*
X1740050Y1143966D01*
X1739089Y1146287D01*
X1737560Y1148280D01*
X1735567Y1149809D01*
X1734641Y1150193D01*
Y1272794D01*
X1734345Y1274281D01*
X1733503Y1275541D01*
X1667717Y1341327D01*
X1666457Y1342169D01*
X1664970Y1342465D01*
X1567180D01*
X1565693Y1342169D01*
X1564433Y1341327D01*
X1559642Y1336535D01*
X1558402Y1337048D01*
X1555750Y1337398D01*
X1553098Y1337048D01*
X1550626Y1336025D01*
X1548504Y1334396D01*
X1546875Y1332274D01*
X1545851Y1329802D01*
X1545502Y1327150D01*
X1545851Y1324498D01*
X1546875Y1322026D01*
X1548504Y1319904D01*
X1550626Y1318275D01*
X1553098Y1317251D01*
X1555750Y1316902D01*
X1558402Y1317251D01*
X1560874Y1318275D01*
X1562996Y1319904D01*
X1564625Y1322026D01*
X1565648Y1324498D01*
X1565998Y1327150D01*
X1565648Y1329802D01*
X1565135Y1331042D01*
X1568789Y1334695D01*
X1572533D01*
X1573159Y1333425D01*
X1572275Y1332274D01*
X1571252Y1329802D01*
X1570902Y1327150D01*
X1571252Y1324498D01*
X1571765Y1323259D01*
X1514903Y1266397D01*
X1514061Y1265137D01*
X1513765Y1263650D01*
Y1181927D01*
X1512563Y1181518D01*
X1512196Y1181996D01*
X1510074Y1183625D01*
X1507602Y1184649D01*
X1504950Y1184998D01*
X1502298Y1184649D01*
X1499826Y1183625D01*
X1497704Y1181996D01*
X1496075Y1179874D01*
X1495052Y1177402D01*
X1494702Y1174750D01*
X1495052Y1172098D01*
X1495569Y1170848D01*
X1494757Y1169633D01*
X1494461Y1168146D01*
Y1118758D01*
X1493259Y1118350D01*
X1493146Y1118496D01*
X1491024Y1120125D01*
X1488552Y1121149D01*
X1485900Y1121498D01*
X1484158Y1121268D01*
X1483565Y1122471D01*
X1491949Y1130855D01*
X1492791Y1132115D01*
X1493087Y1133602D01*
Y1189397D01*
X1507697Y1204007D01*
X1508539Y1205267D01*
X1508835Y1206754D01*
Y1317762D01*
X1510074Y1318275D01*
X1512196Y1319904D01*
X1513825Y1322026D01*
X1514848Y1324498D01*
X1515198Y1327150D01*
X1514848Y1329802D01*
X1513825Y1332274D01*
X1512196Y1334396D01*
X1510074Y1336025D01*
X1508991Y1336473D01*
X1509243Y1337743D01*
X1514263D01*
X1520965Y1331042D01*
X1520452Y1329802D01*
X1520102Y1327150D01*
X1520452Y1324498D01*
X1521475Y1322026D01*
X1523104Y1319904D01*
X1525226Y1318275D01*
X1527698Y1317251D01*
X1530350Y1316902D01*
X1533002Y1317251D01*
X1535474Y1318275D01*
X1537596Y1319904D01*
X1539225Y1322026D01*
X1540249Y1324498D01*
X1540598Y1327150D01*
X1540249Y1329802D01*
X1539225Y1332274D01*
X1537596Y1334396D01*
X1535474Y1336025D01*
X1533002Y1337048D01*
X1530350Y1337398D01*
X1527698Y1337048D01*
X1526458Y1336535D01*
X1518619Y1344375D01*
X1517520Y1345109D01*
X1517524Y1345734D01*
X1517731Y1346379D01*
X1845997D01*
Y753693D01*
D02*
G37*
G36*
X1172285Y1321949D02*
X1173495Y1320372D01*
Y1236513D01*
X1172322Y1236027D01*
X1171015Y1237334D01*
Y1321308D01*
X1172150Y1321955D01*
X1172285Y1321949D01*
D02*
G37*
G36*
X1307204Y1319904D02*
X1309326Y1318275D01*
X1310565Y1317762D01*
Y1296247D01*
X1254632Y1240313D01*
X1254033Y1240561D01*
X1251712Y1240867D01*
X1249391Y1240561D01*
X1247229Y1239665D01*
X1245372Y1238240D01*
X1243947Y1236383D01*
X1243051Y1234221D01*
X1242745Y1231900D01*
X1243051Y1229579D01*
X1243947Y1227417D01*
X1245372Y1225560D01*
X1247229Y1224135D01*
X1249391Y1223239D01*
X1251712Y1222933D01*
X1254033Y1223239D01*
X1254061Y1223250D01*
X1254780Y1222174D01*
X1224258Y1191652D01*
X1223085Y1192138D01*
Y1206500D01*
X1222789Y1207987D01*
X1221947Y1209247D01*
X1215793Y1215400D01*
X1216282Y1216579D01*
X1216627Y1219200D01*
X1216282Y1221821D01*
X1215270Y1224263D01*
X1213661Y1226361D01*
X1211563Y1227970D01*
X1209121Y1228982D01*
X1206500Y1229327D01*
X1203879Y1228982D01*
X1201437Y1227970D01*
X1199339Y1226361D01*
X1197730Y1224263D01*
X1196718Y1221821D01*
X1196373Y1219200D01*
X1196718Y1216579D01*
X1197730Y1214137D01*
X1199339Y1212039D01*
X1201437Y1210430D01*
X1203879Y1209418D01*
X1206500Y1209073D01*
X1209121Y1209418D01*
X1210300Y1209907D01*
X1215315Y1204891D01*
Y1200890D01*
X1214045Y1200459D01*
X1213661Y1200961D01*
X1211563Y1202570D01*
X1209121Y1203582D01*
X1206500Y1203927D01*
X1203879Y1203582D01*
X1201437Y1202570D01*
X1199339Y1200961D01*
X1197730Y1198863D01*
X1196718Y1196421D01*
X1196373Y1193800D01*
X1196718Y1191179D01*
X1197730Y1188737D01*
X1199339Y1186639D01*
X1201437Y1185030D01*
X1203879Y1184018D01*
X1206500Y1183673D01*
X1209121Y1184018D01*
X1211563Y1185030D01*
X1213661Y1186639D01*
X1214045Y1187141D01*
X1215315Y1186710D01*
Y1175490D01*
X1214045Y1175059D01*
X1213661Y1175561D01*
X1211563Y1177170D01*
X1209121Y1178182D01*
X1206500Y1178527D01*
X1203879Y1178182D01*
X1201437Y1177170D01*
X1199339Y1175561D01*
X1197730Y1173463D01*
X1196718Y1171021D01*
X1196373Y1168400D01*
X1196718Y1165779D01*
X1197730Y1163337D01*
X1199339Y1161239D01*
X1201437Y1159630D01*
X1203879Y1158618D01*
X1206500Y1158273D01*
X1209121Y1158618D01*
X1211563Y1159630D01*
X1213661Y1161239D01*
X1214045Y1161741D01*
X1215315Y1161310D01*
Y1150090D01*
X1214045Y1149659D01*
X1213661Y1150161D01*
X1211563Y1151770D01*
X1209121Y1152782D01*
X1206500Y1153127D01*
X1203879Y1152782D01*
X1201437Y1151770D01*
X1199339Y1150161D01*
X1197730Y1148063D01*
X1196718Y1145621D01*
X1196373Y1143000D01*
X1196718Y1140379D01*
X1197034Y1139617D01*
X1195957Y1138898D01*
X1188705Y1146150D01*
Y1319788D01*
X1189153Y1320163D01*
X1190423Y1319569D01*
Y1265682D01*
X1190719Y1264195D01*
X1191561Y1262935D01*
X1198673Y1255823D01*
X1199933Y1254981D01*
X1201335Y1254702D01*
X1201404Y1254589D01*
X1201437Y1253370D01*
X1199339Y1251761D01*
X1197730Y1249663D01*
X1196718Y1247221D01*
X1196373Y1244600D01*
X1196718Y1241979D01*
X1197730Y1239537D01*
X1199339Y1237439D01*
X1201437Y1235830D01*
X1203879Y1234818D01*
X1206500Y1234473D01*
X1209121Y1234818D01*
X1211563Y1235830D01*
X1213661Y1237439D01*
X1215270Y1239537D01*
X1216282Y1241979D01*
X1216627Y1244600D01*
X1216282Y1247221D01*
X1215270Y1249663D01*
X1213661Y1251761D01*
X1211563Y1253370D01*
X1211454Y1253415D01*
X1211706Y1254685D01*
X1246823D01*
X1248310Y1254981D01*
X1249570Y1255823D01*
X1304497Y1310750D01*
X1305339Y1312010D01*
X1305635Y1313497D01*
Y1319973D01*
X1306837Y1320381D01*
X1307204Y1319904D01*
D02*
G37*
G36*
X1388185Y1321949D02*
X1389754Y1319904D01*
X1391876Y1318275D01*
X1393115Y1317762D01*
Y1311215D01*
X1300273Y1218373D01*
X1299431Y1217113D01*
X1299135Y1215626D01*
Y1180592D01*
X1298000Y1179945D01*
X1297865Y1179951D01*
X1296296Y1181996D01*
X1294174Y1183625D01*
X1291702Y1184649D01*
X1289050Y1184998D01*
X1286398Y1184649D01*
X1283926Y1183625D01*
X1281804Y1181996D01*
X1280235Y1179951D01*
X1280100Y1179945D01*
X1278965Y1180592D01*
Y1209463D01*
X1292988Y1223487D01*
X1293587Y1223239D01*
X1295908Y1222933D01*
X1298229Y1223239D01*
X1300391Y1224135D01*
X1302248Y1225560D01*
X1303673Y1227417D01*
X1304569Y1229579D01*
X1304875Y1231900D01*
X1304569Y1234221D01*
X1303673Y1236383D01*
X1302248Y1238240D01*
X1300391Y1239665D01*
X1298229Y1240561D01*
X1295908Y1240867D01*
X1293587Y1240561D01*
X1291425Y1239665D01*
X1289568Y1238240D01*
X1288143Y1236383D01*
X1287247Y1234221D01*
X1286941Y1231900D01*
X1287247Y1229579D01*
X1287495Y1228980D01*
X1272333Y1213819D01*
X1271491Y1212559D01*
X1271195Y1211072D01*
Y1183367D01*
X1269925Y1182741D01*
X1268774Y1183625D01*
X1266302Y1184649D01*
X1263650Y1184998D01*
X1260998Y1184649D01*
X1258526Y1183625D01*
X1256404Y1181996D01*
X1254775Y1179874D01*
X1253752Y1177402D01*
X1253402Y1174750D01*
X1253752Y1172098D01*
X1254775Y1169626D01*
X1256404Y1167504D01*
X1258526Y1165875D01*
X1260998Y1164852D01*
X1263650Y1164502D01*
X1266302Y1164852D01*
X1268774Y1165875D01*
X1269925Y1166759D01*
X1271195Y1166133D01*
Y1076283D01*
X1231693Y1036781D01*
X1230851Y1035521D01*
X1230555Y1034034D01*
Y891799D01*
X1229957Y891551D01*
X1229304Y891050D01*
X1228165Y891612D01*
Y1168908D01*
X1229300Y1169555D01*
X1229435Y1169549D01*
X1231004Y1167504D01*
X1233126Y1165875D01*
X1235598Y1164852D01*
X1238250Y1164502D01*
X1240902Y1164852D01*
X1243374Y1165875D01*
X1245496Y1167504D01*
X1247125Y1169626D01*
X1248148Y1172098D01*
X1248498Y1174750D01*
X1248148Y1177402D01*
X1247125Y1179874D01*
X1245496Y1181996D01*
X1243374Y1183625D01*
X1240902Y1184649D01*
X1238250Y1184998D01*
X1235598Y1184649D01*
X1233126Y1183625D01*
X1231004Y1181996D01*
X1229435Y1179951D01*
X1229300Y1179945D01*
X1228165Y1180592D01*
Y1184571D01*
X1355429Y1311835D01*
X1377950D01*
X1379437Y1312131D01*
X1380697Y1312973D01*
X1385777Y1318053D01*
X1386619Y1319313D01*
X1386915Y1320800D01*
Y1321308D01*
X1388050Y1321955D01*
X1388185Y1321949D01*
D02*
G37*
G36*
X1131335Y1338505D02*
X1130155Y1336967D01*
X1129259Y1334805D01*
X1128953Y1332484D01*
X1129259Y1330163D01*
X1129507Y1329565D01*
X1116123Y1316181D01*
X1115281Y1314921D01*
X1114985Y1313434D01*
Y1256030D01*
X1115281Y1254543D01*
X1116123Y1253283D01*
X1121007Y1248400D01*
X1120518Y1247221D01*
X1120173Y1244600D01*
X1120518Y1241979D01*
X1121530Y1239537D01*
X1123139Y1237439D01*
X1125237Y1235830D01*
X1127679Y1234818D01*
X1130300Y1234473D01*
X1132921Y1234818D01*
X1135363Y1235830D01*
X1137461Y1237439D01*
X1139070Y1239537D01*
X1140082Y1241979D01*
X1140427Y1244600D01*
X1140082Y1247221D01*
X1139070Y1249663D01*
X1137461Y1251761D01*
X1135363Y1253370D01*
X1132921Y1254382D01*
X1130300Y1254727D01*
X1127679Y1254382D01*
X1126500Y1253893D01*
X1122755Y1257639D01*
Y1261534D01*
X1124025Y1262160D01*
X1125237Y1261230D01*
X1127679Y1260218D01*
X1130300Y1259873D01*
X1132921Y1260218D01*
X1135363Y1261230D01*
X1137461Y1262839D01*
X1139070Y1264937D01*
X1140082Y1267379D01*
X1140427Y1270000D01*
X1140082Y1272621D01*
X1139070Y1275063D01*
X1137461Y1277161D01*
X1135363Y1278770D01*
X1132921Y1279782D01*
X1130300Y1280127D01*
X1127679Y1279782D01*
X1125237Y1278770D01*
X1124025Y1277840D01*
X1122755Y1278466D01*
Y1286934D01*
X1124025Y1287560D01*
X1125237Y1286630D01*
X1127679Y1285618D01*
X1130300Y1285273D01*
X1132921Y1285618D01*
X1135363Y1286630D01*
X1137461Y1288239D01*
X1139070Y1290337D01*
X1140082Y1292779D01*
X1140331Y1294676D01*
X1146922Y1301266D01*
X1148095Y1300780D01*
Y1212516D01*
X1148354Y1210548D01*
X1149114Y1208714D01*
X1150322Y1207139D01*
X1155381Y1202080D01*
Y1200827D01*
X1154111Y1200200D01*
X1153325Y1200803D01*
X1151163Y1201699D01*
X1148842Y1202005D01*
X1146521Y1201699D01*
X1144359Y1200803D01*
X1142502Y1199378D01*
X1141077Y1197521D01*
X1141039Y1197429D01*
X1139664D01*
X1139070Y1198863D01*
X1137461Y1200961D01*
X1135363Y1202570D01*
X1132921Y1203582D01*
X1130300Y1203927D01*
X1127679Y1203582D01*
X1126500Y1203093D01*
X1104213Y1225381D01*
Y1290435D01*
X1104811Y1290683D01*
X1106668Y1292108D01*
X1108093Y1293965D01*
X1108989Y1296127D01*
X1109295Y1298448D01*
X1108989Y1300769D01*
X1108093Y1302931D01*
X1106668Y1304788D01*
X1104811Y1306213D01*
X1102649Y1307109D01*
X1100328Y1307415D01*
X1098007Y1307109D01*
X1095845Y1306213D01*
X1093988Y1304788D01*
X1092563Y1302931D01*
X1091667Y1300769D01*
X1091361Y1298448D01*
X1091667Y1296127D01*
X1092563Y1293965D01*
X1093988Y1292108D01*
X1095845Y1290683D01*
X1096443Y1290435D01*
Y1223772D01*
X1096739Y1222285D01*
X1097581Y1221025D01*
X1121007Y1197600D01*
X1120518Y1196421D01*
X1120173Y1193800D01*
X1120518Y1191179D01*
X1121530Y1188737D01*
X1123139Y1186639D01*
X1125237Y1185030D01*
X1127679Y1184018D01*
X1130300Y1183673D01*
X1132921Y1184018D01*
X1135363Y1185030D01*
X1137461Y1186639D01*
X1139070Y1188737D01*
X1139348Y1189409D01*
X1140723D01*
X1141077Y1188555D01*
X1142502Y1186698D01*
X1144359Y1185273D01*
X1144957Y1185025D01*
Y1137751D01*
X1134100Y1126893D01*
X1132921Y1127382D01*
X1130300Y1127727D01*
X1127679Y1127382D01*
X1125237Y1126370D01*
X1123139Y1124761D01*
X1121530Y1122663D01*
X1120518Y1120221D01*
X1120173Y1117600D01*
X1120518Y1114979D01*
X1121530Y1112537D01*
X1123139Y1110439D01*
X1125237Y1108830D01*
X1127679Y1107818D01*
X1130300Y1107473D01*
X1132921Y1107818D01*
X1135363Y1108830D01*
X1137461Y1110439D01*
X1139070Y1112537D01*
X1140082Y1114979D01*
X1140427Y1117600D01*
X1140082Y1120221D01*
X1139593Y1121400D01*
X1151589Y1133395D01*
X1152431Y1134655D01*
X1152727Y1136142D01*
Y1185025D01*
X1153325Y1185273D01*
X1154111Y1185876D01*
X1155381Y1185249D01*
Y1034232D01*
X1154242Y1033671D01*
X1153579Y1034179D01*
X1152981Y1034427D01*
Y1068324D01*
X1152685Y1069811D01*
X1151843Y1071071D01*
X1116405Y1106509D01*
Y1158240D01*
X1116109Y1159727D01*
X1115267Y1160987D01*
X1103075Y1173179D01*
X1101815Y1174021D01*
X1100328Y1174317D01*
X1076534D01*
X1076281Y1175587D01*
X1076363Y1175621D01*
X1078220Y1177046D01*
X1079645Y1178903D01*
X1080541Y1181065D01*
X1080847Y1183386D01*
X1080541Y1185707D01*
X1079645Y1187869D01*
X1078220Y1189726D01*
X1076363Y1191151D01*
X1074201Y1192047D01*
X1071880Y1192353D01*
X1059180D01*
X1056859Y1192047D01*
X1054697Y1191151D01*
X1052840Y1189726D01*
X1051415Y1187869D01*
X1050519Y1185707D01*
X1050213Y1183386D01*
X1050519Y1181065D01*
X1051415Y1178903D01*
X1052840Y1177046D01*
X1054697Y1175621D01*
X1054779Y1175587D01*
X1054526Y1174317D01*
X1052830D01*
X1051343Y1174021D01*
X1050083Y1173179D01*
X1048988Y1172084D01*
X1047815Y1172570D01*
Y1303875D01*
X1049693Y1304653D01*
X1051550Y1306078D01*
X1052975Y1307935D01*
X1053871Y1310097D01*
X1054009Y1311148D01*
X1045210D01*
Y1312418D01*
X1043940D01*
Y1321217D01*
X1042889Y1321079D01*
X1040727Y1320183D01*
X1038870Y1318758D01*
X1037445Y1316901D01*
X1036549Y1314739D01*
X1036515Y1314478D01*
X1034832Y1312795D01*
X1033624Y1311220D01*
X1032864Y1309386D01*
X1032605Y1307418D01*
Y1073137D01*
X1031335Y1072511D01*
X1030643Y1073041D01*
X1028481Y1073937D01*
X1026160Y1074243D01*
X1023839Y1073937D01*
X1021677Y1073041D01*
X1021024Y1072540D01*
X1019885Y1073102D01*
Y1182930D01*
X1022557Y1185602D01*
X1023399Y1186863D01*
X1023695Y1188349D01*
Y1302627D01*
X1024293Y1302875D01*
X1026150Y1304300D01*
X1027575Y1306157D01*
X1028471Y1308319D01*
X1028777Y1310640D01*
X1028471Y1312961D01*
X1027575Y1315123D01*
X1026150Y1316980D01*
X1024293Y1318405D01*
X1022131Y1319301D01*
X1019810Y1319607D01*
X1017489Y1319301D01*
X1015327Y1318405D01*
X1013470Y1316980D01*
X1012045Y1315123D01*
X1011149Y1312961D01*
X1010843Y1310640D01*
X1011149Y1308319D01*
X1012045Y1306157D01*
X1013470Y1304300D01*
X1015327Y1302875D01*
X1015925Y1302627D01*
Y1204166D01*
X1014786Y1203604D01*
X1014133Y1204105D01*
X1011971Y1205001D01*
X1009650Y1205307D01*
X1007329Y1205001D01*
X1005167Y1204105D01*
X1004455Y1203559D01*
X1003316Y1204121D01*
Y1326752D01*
X1016339Y1339775D01*
X1130880D01*
X1131335Y1338505D01*
D02*
G37*
G36*
X1513765Y1167573D02*
Y1156039D01*
X1503501Y1145774D01*
X1502231Y1146300D01*
Y1163579D01*
X1503501Y1164693D01*
X1504950Y1164502D01*
X1507602Y1164852D01*
X1510074Y1165875D01*
X1512196Y1167504D01*
X1512563Y1167981D01*
X1513765Y1167573D01*
D02*
G37*
G36*
X1494996Y1329378D02*
X1494702Y1327150D01*
X1495052Y1324498D01*
X1496075Y1322026D01*
X1497704Y1319904D01*
X1499826Y1318275D01*
X1501065Y1317762D01*
Y1208363D01*
X1486455Y1193753D01*
X1485613Y1192493D01*
X1485317Y1191006D01*
Y1135211D01*
X1471721Y1121615D01*
X1470518Y1122208D01*
X1470748Y1123950D01*
X1470399Y1126602D01*
X1469375Y1129074D01*
X1467746Y1131196D01*
X1465624Y1132825D01*
X1463152Y1133848D01*
X1460500Y1134198D01*
X1457848Y1133848D01*
X1455376Y1132825D01*
X1453254Y1131196D01*
X1451625Y1129074D01*
X1450602Y1126602D01*
X1450252Y1123950D01*
X1450602Y1121298D01*
X1451625Y1118826D01*
X1453254Y1116704D01*
X1455376Y1115075D01*
X1457848Y1114052D01*
X1460500Y1113702D01*
X1462242Y1113932D01*
X1462835Y1112729D01*
X1354497Y1004391D01*
X1320800D01*
X1319313Y1004095D01*
X1318053Y1003253D01*
X1305353Y990553D01*
X1305175Y990287D01*
X1303951Y990247D01*
X1303005Y991248D01*
Y1038250D01*
X1327734Y1062979D01*
X1329802Y1063251D01*
X1332274Y1064275D01*
X1334396Y1065904D01*
X1336025Y1068026D01*
X1337048Y1070498D01*
X1337398Y1073150D01*
X1337130Y1075184D01*
X1338333Y1075778D01*
X1344977Y1069133D01*
X1346237Y1068291D01*
X1347724Y1067995D01*
X1363472D01*
X1364959Y1068291D01*
X1366219Y1069133D01*
X1373228Y1076143D01*
X1373393Y1076095D01*
X1374359Y1075477D01*
X1374052Y1073150D01*
X1374402Y1070498D01*
X1375425Y1068026D01*
X1377054Y1065904D01*
X1379176Y1064275D01*
X1381648Y1063251D01*
X1384300Y1062902D01*
X1386952Y1063251D01*
X1389424Y1064275D01*
X1391546Y1065904D01*
X1393175Y1068026D01*
X1394198Y1070498D01*
X1394548Y1073150D01*
X1394198Y1075802D01*
X1393175Y1078274D01*
X1391546Y1080396D01*
X1389424Y1082025D01*
X1386952Y1083048D01*
X1384300Y1083398D01*
X1381973Y1083091D01*
X1381355Y1084057D01*
X1381308Y1084222D01*
X1413717Y1116631D01*
X1414559Y1117891D01*
X1414855Y1119378D01*
Y1166133D01*
X1416125Y1166759D01*
X1417276Y1165875D01*
X1419748Y1164852D01*
X1422400Y1164502D01*
X1425052Y1164852D01*
X1427524Y1165875D01*
X1429646Y1167504D01*
X1431275Y1169626D01*
X1432298Y1172098D01*
X1432648Y1174750D01*
X1432298Y1177402D01*
X1431275Y1179874D01*
X1429646Y1181996D01*
X1427524Y1183625D01*
X1425052Y1184649D01*
X1422400Y1184998D01*
X1419748Y1184649D01*
X1417276Y1183625D01*
X1416125Y1182741D01*
X1414855Y1183367D01*
Y1201335D01*
X1491949Y1278429D01*
X1492791Y1279689D01*
X1493087Y1281176D01*
Y1329273D01*
X1493978Y1330039D01*
X1494996Y1329378D01*
D02*
G37*
G36*
X1102286Y1102307D02*
X1102438Y1101591D01*
X1102581Y1100873D01*
X1102596Y1100851D01*
X1102602Y1100824D01*
X1103016Y1100222D01*
X1103423Y1099613D01*
X1116255Y1086781D01*
Y1047889D01*
X1115657Y1047641D01*
X1114982Y1047124D01*
X1113843Y1047685D01*
Y1081889D01*
X1113547Y1083376D01*
X1112705Y1084636D01*
X1100027Y1097314D01*
X1098767Y1098156D01*
X1097280Y1098452D01*
X1086947D01*
X1085461Y1098156D01*
X1084200Y1097314D01*
X1076753Y1089867D01*
X1076564Y1089585D01*
X1076363Y1089551D01*
X1074201Y1090447D01*
X1071880Y1090753D01*
X1059180D01*
X1056859Y1090447D01*
X1055097Y1089717D01*
X1054378Y1090794D01*
X1059133Y1095549D01*
X1059975Y1096809D01*
X1060255Y1098219D01*
X1071880D01*
X1074201Y1098525D01*
X1076363Y1099421D01*
X1078220Y1100846D01*
X1079645Y1102703D01*
X1080541Y1104865D01*
X1080847Y1107186D01*
X1080541Y1109507D01*
X1079645Y1111669D01*
X1078220Y1113526D01*
X1076363Y1114951D01*
X1074201Y1115847D01*
X1071880Y1116153D01*
X1059180D01*
X1056859Y1115847D01*
X1054697Y1114951D01*
X1052840Y1113526D01*
X1051415Y1111669D01*
X1050519Y1109507D01*
X1050213Y1107186D01*
X1050519Y1104865D01*
X1051415Y1102703D01*
X1052501Y1101286D01*
Y1099905D01*
X1048988Y1096392D01*
X1047815Y1096878D01*
Y1129221D01*
X1049085Y1129658D01*
X1050073Y1128997D01*
X1051131Y1128787D01*
X1051415Y1128103D01*
X1052840Y1126246D01*
X1054697Y1124821D01*
X1056859Y1123925D01*
X1059180Y1123619D01*
X1071880D01*
X1074201Y1123925D01*
X1076363Y1124821D01*
X1078220Y1126246D01*
X1079645Y1128103D01*
X1080541Y1130265D01*
X1080847Y1132586D01*
X1080541Y1134907D01*
X1079645Y1137069D01*
X1078220Y1138926D01*
X1076363Y1140351D01*
X1074201Y1141247D01*
X1071880Y1141553D01*
X1059180D01*
X1056859Y1141247D01*
X1054697Y1140351D01*
X1054044Y1139850D01*
X1052905Y1140412D01*
Y1150160D01*
X1054044Y1150722D01*
X1054697Y1150221D01*
X1056859Y1149325D01*
X1059180Y1149019D01*
X1071880D01*
X1074201Y1149325D01*
X1076363Y1150221D01*
X1078220Y1151646D01*
X1079645Y1153503D01*
X1079893Y1154101D01*
X1101576D01*
X1102286Y1102307D01*
D02*
G37*
G36*
X1591235Y1168908D02*
Y1156716D01*
X1591531Y1155229D01*
X1592373Y1153969D01*
X1601395Y1144947D01*
Y1132568D01*
X1600125Y1131941D01*
X1598974Y1132825D01*
X1596502Y1133848D01*
X1593850Y1134198D01*
X1591198Y1133848D01*
X1588726Y1132825D01*
X1586604Y1131196D01*
X1586237Y1130719D01*
X1585035Y1131127D01*
Y1165362D01*
X1586274Y1165875D01*
X1588396Y1167504D01*
X1589965Y1169549D01*
X1590100Y1169555D01*
X1591235Y1168908D01*
D02*
G37*
G36*
X1523104Y1167504D02*
X1525226Y1165875D01*
X1526465Y1165362D01*
Y1131127D01*
X1525263Y1130719D01*
X1524896Y1131196D01*
X1522774Y1132825D01*
X1520302Y1133848D01*
X1517650Y1134198D01*
X1514998Y1133848D01*
X1512526Y1132825D01*
X1510867Y1131551D01*
X1509597Y1132145D01*
Y1140883D01*
X1520397Y1151683D01*
X1521239Y1152943D01*
X1521535Y1154430D01*
Y1167573D01*
X1522737Y1167981D01*
X1523104Y1167504D01*
D02*
G37*
G36*
X1526465Y1116773D02*
Y1080327D01*
X1525263Y1079919D01*
X1524896Y1080396D01*
X1522774Y1082025D01*
X1520302Y1083048D01*
X1517650Y1083398D01*
X1514998Y1083048D01*
X1512526Y1082025D01*
X1510867Y1080751D01*
X1509597Y1081345D01*
Y1115755D01*
X1510867Y1116349D01*
X1512526Y1115075D01*
X1514998Y1114052D01*
X1517650Y1113702D01*
X1520302Y1114052D01*
X1522774Y1115075D01*
X1524896Y1116704D01*
X1525263Y1117181D01*
X1526465Y1116773D01*
D02*
G37*
G36*
X1195745Y1117600D02*
X1177014Y1098869D01*
X1175841Y1099355D01*
Y1135845D01*
X1177014Y1136331D01*
X1195745Y1117600D01*
D02*
G37*
G36*
X1325582Y1093172D02*
X1327157Y1091964D01*
X1327634Y1091767D01*
X1327381Y1090497D01*
X1317498D01*
X1317251Y1090448D01*
X1317001Y1090465D01*
X1316514Y1090301D01*
X1316011Y1090201D01*
X1315802Y1090061D01*
X1315564Y1089981D01*
X1315178Y1089644D01*
X1314751Y1089359D01*
X1314612Y1089150D01*
X1314422Y1088985D01*
X1314194Y1088525D01*
X1313909Y1088099D01*
X1313860Y1087852D01*
X1313748Y1087627D01*
X1310505Y1075643D01*
X1257278Y1022416D01*
X1256105Y1022902D01*
Y1025821D01*
X1305847Y1075563D01*
X1306689Y1076823D01*
X1306984Y1078310D01*
Y1110111D01*
X1308158Y1110597D01*
X1325582Y1093172D01*
D02*
G37*
G36*
X1475882Y1112992D02*
X1475652Y1111250D01*
X1476001Y1108598D01*
X1476515Y1107358D01*
X1469183Y1100027D01*
X1468341Y1098767D01*
X1468045Y1097280D01*
Y1081768D01*
X1466775Y1081141D01*
X1465624Y1082025D01*
X1463152Y1083048D01*
X1460500Y1083398D01*
X1457848Y1083048D01*
X1455376Y1082025D01*
X1453254Y1080396D01*
X1451625Y1078274D01*
X1450602Y1075802D01*
X1450252Y1073150D01*
X1450602Y1070498D01*
X1451625Y1068026D01*
X1453254Y1065904D01*
X1455376Y1064275D01*
X1457848Y1063251D01*
X1460500Y1062902D01*
X1463152Y1063251D01*
X1465624Y1064275D01*
X1466775Y1065159D01*
X1468045Y1064532D01*
Y1063329D01*
X1421939Y1017223D01*
X1421097Y1015963D01*
X1420801Y1014476D01*
Y875423D01*
X1420203Y875175D01*
X1418346Y873750D01*
X1416921Y871893D01*
X1416025Y869731D01*
X1415719Y867410D01*
X1416025Y865089D01*
X1416921Y862927D01*
X1418346Y861070D01*
X1420203Y859645D01*
X1422365Y858749D01*
X1424686Y858443D01*
X1427007Y858749D01*
X1429169Y859645D01*
X1429945Y860240D01*
X1431215Y859614D01*
Y845651D01*
X1366646Y781081D01*
X1366047Y781329D01*
X1363726Y781635D01*
X1361405Y781329D01*
X1359243Y780433D01*
X1357386Y779008D01*
X1355961Y777151D01*
X1355169Y775240D01*
X1353891Y774819D01*
X1353361Y775511D01*
X1351263Y777120D01*
X1348821Y778132D01*
X1346924Y778381D01*
X1342098Y783207D01*
X1342817Y784284D01*
X1343579Y783968D01*
X1346200Y783623D01*
X1348821Y783968D01*
X1351263Y784980D01*
X1353361Y786589D01*
X1354970Y788687D01*
X1355982Y791129D01*
X1356327Y793750D01*
X1355982Y796371D01*
X1355493Y797550D01*
X1402033Y844089D01*
X1402875Y845349D01*
X1403171Y846836D01*
Y1018147D01*
X1403769Y1018395D01*
X1405626Y1019820D01*
X1407051Y1021677D01*
X1407947Y1023839D01*
X1408253Y1026160D01*
X1407947Y1028481D01*
X1407051Y1030643D01*
X1405626Y1032500D01*
X1403769Y1033925D01*
X1401607Y1034821D01*
X1399286Y1035127D01*
X1397824Y1034934D01*
X1397231Y1036137D01*
X1474679Y1113585D01*
X1475882Y1112992D01*
D02*
G37*
G36*
X1280235Y1169549D02*
X1281804Y1167504D01*
X1283926Y1165875D01*
X1286398Y1164852D01*
X1289050Y1164502D01*
X1291702Y1164852D01*
X1294174Y1165875D01*
X1296296Y1167504D01*
X1297865Y1169549D01*
X1298000Y1169555D01*
X1298850Y1169071D01*
X1298963Y1167747D01*
X1295273Y1164057D01*
X1294431Y1162796D01*
X1294135Y1161310D01*
Y1087205D01*
X1279926Y1072996D01*
X1278755Y1073621D01*
X1278965Y1074674D01*
Y1168908D01*
X1280100Y1169555D01*
X1280235Y1169549D01*
D02*
G37*
G36*
X1084025Y1079414D02*
X1084689Y1077811D01*
X1086114Y1075954D01*
X1087971Y1074529D01*
X1088569Y1074281D01*
Y916009D01*
X1081023Y908463D01*
X1080348Y908466D01*
X1079492Y908670D01*
X1078220Y910326D01*
X1076363Y911751D01*
X1074201Y912647D01*
X1071880Y912953D01*
X1059180D01*
X1056859Y912647D01*
X1054697Y911751D01*
X1054044Y911250D01*
X1052905Y911812D01*
Y921560D01*
X1054044Y922122D01*
X1054697Y921621D01*
X1056859Y920725D01*
X1059180Y920419D01*
X1071880D01*
X1074201Y920725D01*
X1076363Y921621D01*
X1078220Y923046D01*
X1079645Y924903D01*
X1080541Y927065D01*
X1080847Y929386D01*
X1080541Y931707D01*
X1079645Y933869D01*
X1078220Y935726D01*
X1076363Y937151D01*
X1074201Y938047D01*
X1071880Y938353D01*
X1059180D01*
X1056859Y938047D01*
X1054697Y937151D01*
X1054044Y936650D01*
X1052905Y937212D01*
Y946960D01*
X1054044Y947522D01*
X1054697Y947021D01*
X1056859Y946125D01*
X1059180Y945819D01*
X1071880D01*
X1074201Y946125D01*
X1076363Y947021D01*
X1078220Y948446D01*
X1079645Y950303D01*
X1080541Y952465D01*
X1080847Y954786D01*
X1080541Y957107D01*
X1079645Y959269D01*
X1078220Y961126D01*
X1076363Y962551D01*
X1074201Y963447D01*
X1071880Y963753D01*
X1059180D01*
X1056859Y963447D01*
X1054697Y962551D01*
X1054044Y962050D01*
X1052905Y962612D01*
Y972360D01*
X1054044Y972922D01*
X1054697Y972421D01*
X1056859Y971525D01*
X1059180Y971219D01*
X1071880D01*
X1074201Y971525D01*
X1076363Y972421D01*
X1078220Y973846D01*
X1079645Y975703D01*
X1080541Y977865D01*
X1080847Y980186D01*
X1080541Y982507D01*
X1079645Y984669D01*
X1078220Y986526D01*
X1076363Y987951D01*
X1074201Y988847D01*
X1071880Y989153D01*
X1059180D01*
X1056859Y988847D01*
X1054697Y987951D01*
X1054044Y987450D01*
X1052905Y988012D01*
Y997760D01*
X1054044Y998322D01*
X1054697Y997821D01*
X1056859Y996925D01*
X1059180Y996619D01*
X1071880D01*
X1074201Y996925D01*
X1076363Y997821D01*
X1078220Y999246D01*
X1079645Y1001103D01*
X1080541Y1003265D01*
X1080847Y1005586D01*
X1080541Y1007907D01*
X1079645Y1010069D01*
X1078220Y1011926D01*
X1076363Y1013351D01*
X1074201Y1014247D01*
X1071880Y1014553D01*
X1059180D01*
X1056859Y1014247D01*
X1054697Y1013351D01*
X1054044Y1012850D01*
X1052905Y1013412D01*
Y1023160D01*
X1054044Y1023722D01*
X1054697Y1023221D01*
X1056859Y1022325D01*
X1059180Y1022019D01*
X1071880D01*
X1074201Y1022325D01*
X1076363Y1023221D01*
X1078220Y1024646D01*
X1079645Y1026503D01*
X1080541Y1028665D01*
X1080847Y1030986D01*
X1080541Y1033307D01*
X1079645Y1035469D01*
X1078220Y1037326D01*
X1076363Y1038751D01*
X1074201Y1039647D01*
X1071880Y1039953D01*
X1059180D01*
X1056859Y1039647D01*
X1054697Y1038751D01*
X1054044Y1038250D01*
X1052905Y1038812D01*
Y1048560D01*
X1054044Y1049122D01*
X1054697Y1048621D01*
X1056859Y1047725D01*
X1059180Y1047419D01*
X1071880D01*
X1074201Y1047725D01*
X1076363Y1048621D01*
X1078220Y1050046D01*
X1079645Y1051903D01*
X1080541Y1054065D01*
X1080847Y1056386D01*
X1080541Y1058707D01*
X1079645Y1060869D01*
X1078220Y1062726D01*
X1076363Y1064151D01*
X1074201Y1065047D01*
X1071880Y1065353D01*
X1059180D01*
X1056859Y1065047D01*
X1054697Y1064151D01*
X1054044Y1063650D01*
X1052905Y1064212D01*
Y1073960D01*
X1054044Y1074522D01*
X1054697Y1074021D01*
X1056859Y1073125D01*
X1059180Y1072819D01*
X1071880D01*
X1074201Y1073125D01*
X1076363Y1074021D01*
X1078220Y1075446D01*
X1079645Y1077303D01*
X1079929Y1077987D01*
X1080987Y1078197D01*
X1082247Y1079039D01*
X1082619Y1079597D01*
X1084025Y1079414D01*
D02*
G37*
G36*
X1145211Y1066715D02*
Y1034427D01*
X1144613Y1034179D01*
X1142756Y1032754D01*
X1141331Y1030897D01*
X1140435Y1028735D01*
X1140129Y1026414D01*
X1140435Y1024093D01*
X1141331Y1021931D01*
X1142756Y1020074D01*
X1144613Y1018649D01*
X1146775Y1017753D01*
X1149096Y1017447D01*
X1151417Y1017753D01*
X1153303Y1018534D01*
X1154022Y1017457D01*
X1150322Y1013758D01*
X1149114Y1012182D01*
X1148354Y1010348D01*
X1148095Y1008380D01*
Y991029D01*
X1146825Y989374D01*
X1145801Y986902D01*
X1145452Y984250D01*
X1145801Y981598D01*
X1146825Y979126D01*
X1148095Y977471D01*
Y973176D01*
X1130846Y955927D01*
X1128949Y955678D01*
X1126507Y954666D01*
X1124989Y953501D01*
X1120970D01*
X1119002Y953242D01*
X1117168Y952482D01*
X1115592Y951274D01*
X1100713Y936394D01*
X1099504Y934819D01*
X1098744Y932984D01*
X1098485Y931016D01*
Y889453D01*
X1097346Y888891D01*
X1096683Y889399D01*
X1094521Y890295D01*
X1092200Y890601D01*
X1089879Y890295D01*
X1087717Y889399D01*
X1085860Y887974D01*
X1084435Y886117D01*
X1083539Y883955D01*
X1083233Y881634D01*
X1083539Y879313D01*
X1083861Y878535D01*
X1083531Y878041D01*
X1083235Y876554D01*
Y851039D01*
X1082637Y850791D01*
X1081535Y849946D01*
X1080492Y850747D01*
X1080541Y850865D01*
X1080847Y853186D01*
X1080541Y855507D01*
X1079645Y857669D01*
X1078220Y859526D01*
X1076363Y860951D01*
X1074201Y861847D01*
X1071880Y862153D01*
X1059180D01*
X1056859Y861847D01*
X1054697Y860951D01*
X1054044Y860450D01*
X1052905Y861012D01*
Y870760D01*
X1054044Y871322D01*
X1054697Y870821D01*
X1056859Y869925D01*
X1059180Y869619D01*
X1071880D01*
X1074201Y869925D01*
X1076363Y870821D01*
X1078220Y872246D01*
X1079645Y874103D01*
X1080541Y876265D01*
X1080847Y878586D01*
X1080541Y880907D01*
X1079645Y883069D01*
X1078220Y884926D01*
X1076363Y886351D01*
X1074201Y887247D01*
X1071880Y887553D01*
X1059180D01*
X1056859Y887247D01*
X1054697Y886351D01*
X1054044Y885850D01*
X1052905Y886412D01*
Y896160D01*
X1054044Y896722D01*
X1054697Y896221D01*
X1056859Y895325D01*
X1059180Y895019D01*
X1071880D01*
X1074201Y895325D01*
X1076363Y896221D01*
X1078220Y897646D01*
X1079645Y899503D01*
X1079893Y900101D01*
X1082040D01*
X1083527Y900397D01*
X1084787Y901239D01*
X1095201Y911653D01*
X1096043Y912913D01*
X1096339Y914400D01*
Y1074281D01*
X1096937Y1074529D01*
X1098794Y1075954D01*
X1100219Y1077811D01*
X1101115Y1079973D01*
X1101421Y1082294D01*
X1101293Y1083265D01*
X1102496Y1083858D01*
X1106074Y1080280D01*
Y1027569D01*
X1105475Y1027321D01*
X1103618Y1025896D01*
X1102193Y1024039D01*
X1101297Y1021877D01*
X1100991Y1019556D01*
X1101297Y1017235D01*
X1102193Y1015073D01*
X1103618Y1013216D01*
X1105475Y1011791D01*
X1107637Y1010895D01*
X1109958Y1010589D01*
X1112279Y1010895D01*
X1114442Y1011791D01*
X1116299Y1013216D01*
X1117723Y1015073D01*
X1118619Y1017235D01*
X1118925Y1019556D01*
X1118619Y1021877D01*
X1117723Y1024039D01*
X1116299Y1025896D01*
X1114442Y1027321D01*
X1113843Y1027569D01*
Y1032067D01*
X1114982Y1032628D01*
X1115657Y1032111D01*
X1117819Y1031215D01*
X1120140Y1030909D01*
X1122461Y1031215D01*
X1124623Y1032111D01*
X1126480Y1033536D01*
X1127905Y1035393D01*
X1128801Y1037555D01*
X1129107Y1039876D01*
X1128801Y1042197D01*
X1127905Y1044359D01*
X1126480Y1046216D01*
X1124623Y1047641D01*
X1124025Y1047889D01*
Y1086242D01*
X1125198Y1086728D01*
X1145211Y1066715D01*
D02*
G37*
G36*
X1501512Y1076765D02*
X1501625Y1075826D01*
X1441243Y1015445D01*
X1440401Y1014185D01*
X1440255Y1013449D01*
X1438985Y1013574D01*
Y1015953D01*
X1500273Y1077242D01*
X1501512Y1076765D01*
D02*
G37*
G36*
X1508140Y1069559D02*
X1508775Y1068026D01*
X1510404Y1065904D01*
X1512526Y1064275D01*
X1514998Y1063251D01*
X1517650Y1062902D01*
X1520302Y1063251D01*
X1520686Y1063410D01*
X1521406Y1062334D01*
X1449048Y989976D01*
X1447875Y990462D01*
Y1011089D01*
X1506642Y1069857D01*
X1508140Y1069559D01*
D02*
G37*
G36*
X1287795Y1040150D02*
Y991029D01*
X1286525Y989374D01*
X1285502Y986902D01*
X1285152Y984250D01*
X1285502Y981598D01*
X1286525Y979126D01*
X1287795Y977471D01*
Y974700D01*
X1269276Y956181D01*
X1267379Y955932D01*
X1264937Y954920D01*
X1263725Y953990D01*
X1262455Y954616D01*
Y1016605D01*
X1286525Y1040676D01*
X1287795Y1040150D01*
D02*
G37*
G36*
X1465606Y938236D02*
Y872986D01*
X1464336Y872733D01*
X1463947Y873671D01*
X1462522Y875528D01*
X1460665Y876953D01*
X1460067Y877201D01*
Y928925D01*
X1459771Y930411D01*
X1458929Y931672D01*
X1453422Y937179D01*
X1453493Y937746D01*
X1454674Y938347D01*
X1454849Y938342D01*
X1456909Y937489D01*
X1459230Y937183D01*
X1461551Y937489D01*
X1463713Y938385D01*
X1464336Y938862D01*
X1465606Y938236D01*
D02*
G37*
G36*
X1304215Y971013D02*
Y935059D01*
X1273800Y904643D01*
X1272621Y905132D01*
X1270000Y905477D01*
X1267379Y905132D01*
X1264937Y904120D01*
X1262839Y902511D01*
X1261230Y900413D01*
X1260218Y897971D01*
X1259873Y895350D01*
X1260218Y892729D01*
X1261230Y890287D01*
X1262839Y888189D01*
X1264937Y886580D01*
X1267379Y885568D01*
X1270000Y885223D01*
X1272621Y885568D01*
X1275063Y886580D01*
X1277161Y888189D01*
X1278770Y890287D01*
X1279782Y892729D01*
X1280127Y895350D01*
X1279782Y897971D01*
X1279293Y899150D01*
X1310847Y930703D01*
X1311689Y931963D01*
X1311925Y933150D01*
X1313195Y933025D01*
Y793750D01*
X1313454Y791782D01*
X1314214Y789948D01*
X1315422Y788372D01*
X1336169Y767626D01*
X1336418Y765729D01*
X1337430Y763287D01*
X1338360Y762075D01*
X1337734Y760805D01*
X1312249D01*
X1304365Y768689D01*
Y814070D01*
X1304069Y815557D01*
X1303227Y816817D01*
X1279293Y840750D01*
X1279782Y841929D01*
X1280127Y844550D01*
X1279782Y847171D01*
X1278770Y849613D01*
X1277794Y850885D01*
X1278320Y852285D01*
X1278853Y852391D01*
X1280113Y853233D01*
X1302973Y876093D01*
X1303815Y877353D01*
X1304111Y878840D01*
Y887337D01*
X1304709Y887585D01*
X1306566Y889010D01*
X1307991Y890867D01*
X1308887Y893029D01*
X1309193Y895350D01*
X1308887Y897671D01*
X1307991Y899833D01*
X1306566Y901690D01*
X1304709Y903115D01*
X1302547Y904011D01*
X1300226Y904317D01*
X1297905Y904011D01*
X1295743Y903115D01*
X1293886Y901690D01*
X1292461Y899833D01*
X1291565Y897671D01*
X1291259Y895350D01*
X1291565Y893029D01*
X1292461Y890867D01*
X1293886Y889010D01*
X1295743Y887585D01*
X1296341Y887337D01*
Y880449D01*
X1279024Y863132D01*
X1278067Y863971D01*
X1278770Y864887D01*
X1279782Y867329D01*
X1280127Y869950D01*
X1279782Y872571D01*
X1278770Y875013D01*
X1277161Y877111D01*
X1275063Y878720D01*
X1272621Y879732D01*
X1270000Y880077D01*
X1267379Y879732D01*
X1264937Y878720D01*
X1262839Y877111D01*
X1261230Y875013D01*
X1260218Y872571D01*
X1259873Y869950D01*
X1260218Y867329D01*
X1261230Y864887D01*
X1262839Y862789D01*
X1264937Y861180D01*
X1264904Y859961D01*
X1264835Y859848D01*
X1263433Y859569D01*
X1262173Y858727D01*
X1257278Y853832D01*
X1256105Y854318D01*
Y927492D01*
X1257278Y927978D01*
X1260707Y924550D01*
X1260218Y923371D01*
X1259873Y920750D01*
X1260218Y918129D01*
X1261230Y915687D01*
X1262839Y913589D01*
X1264937Y911980D01*
X1267379Y910968D01*
X1270000Y910623D01*
X1272621Y910968D01*
X1275063Y911980D01*
X1277161Y913589D01*
X1278770Y915687D01*
X1279782Y918129D01*
X1280127Y920750D01*
X1279782Y923371D01*
X1278770Y925813D01*
X1277161Y927911D01*
X1275063Y929520D01*
X1272621Y930532D01*
X1270000Y930877D01*
X1267379Y930532D01*
X1266200Y930043D01*
X1262455Y933789D01*
Y937684D01*
X1263725Y938310D01*
X1264937Y937380D01*
X1267379Y936368D01*
X1270000Y936023D01*
X1272621Y936368D01*
X1275063Y937380D01*
X1277161Y938989D01*
X1278770Y941087D01*
X1279782Y943529D01*
X1280031Y945426D01*
X1300778Y966172D01*
X1301986Y967747D01*
X1302746Y969582D01*
X1302945Y971096D01*
X1304215Y971013D01*
D02*
G37*
G36*
X1215315Y1110510D02*
Y955936D01*
X1197730D01*
Y935856D01*
X1215315D01*
Y928962D01*
X1214045Y928336D01*
X1212833Y929266D01*
X1210391Y930278D01*
X1207770Y930623D01*
X1205149Y930278D01*
X1202707Y929266D01*
X1200609Y927657D01*
X1199000Y925559D01*
X1197988Y923117D01*
X1197643Y920496D01*
X1197988Y917875D01*
X1199000Y915433D01*
X1200609Y913335D01*
X1202707Y911726D01*
X1205149Y910714D01*
X1207770Y910369D01*
X1210391Y910714D01*
X1212833Y911726D01*
X1214045Y912656D01*
X1215315Y912030D01*
Y903562D01*
X1214045Y902936D01*
X1212833Y903866D01*
X1210391Y904878D01*
X1207770Y905223D01*
X1205149Y904878D01*
X1202707Y903866D01*
X1200609Y902257D01*
X1199000Y900159D01*
X1197988Y897717D01*
X1197643Y895096D01*
X1197988Y892475D01*
X1199000Y890033D01*
X1200609Y887935D01*
X1202707Y886326D01*
X1205149Y885314D01*
X1207770Y884969D01*
X1210391Y885314D01*
X1212833Y886326D01*
X1214045Y887256D01*
X1215315Y886630D01*
Y882735D01*
X1211570Y878989D01*
X1210391Y879478D01*
X1207770Y879823D01*
X1205149Y879478D01*
X1202707Y878466D01*
X1200609Y876857D01*
X1199000Y874759D01*
X1197988Y872317D01*
X1197643Y869696D01*
X1197988Y867075D01*
X1199000Y864633D01*
X1200609Y862535D01*
X1202707Y860926D01*
X1205149Y859914D01*
X1207770Y859569D01*
X1210391Y859914D01*
X1212833Y860926D01*
X1214931Y862535D01*
X1216540Y864633D01*
X1217552Y867075D01*
X1217897Y869696D01*
X1217552Y872317D01*
X1217063Y873496D01*
X1219222Y875654D01*
X1220395Y875168D01*
Y863739D01*
X1219797Y863491D01*
X1217940Y862066D01*
X1216515Y860209D01*
X1215619Y858047D01*
X1215313Y855726D01*
X1215619Y853405D01*
X1216302Y851755D01*
X1215193Y851115D01*
X1214931Y851457D01*
X1212833Y853066D01*
X1210391Y854078D01*
X1207770Y854423D01*
X1205149Y854078D01*
X1202707Y853066D01*
X1200609Y851457D01*
X1199000Y849359D01*
X1197988Y846917D01*
X1197643Y844296D01*
X1197988Y841675D01*
X1199000Y839233D01*
X1200609Y837135D01*
X1202707Y835526D01*
X1205149Y834514D01*
X1207770Y834169D01*
X1210391Y834514D01*
X1212833Y835526D01*
X1214931Y837135D01*
X1216540Y839233D01*
X1217552Y841675D01*
X1217897Y844296D01*
X1217552Y846917D01*
X1216752Y848847D01*
X1217861Y849487D01*
X1217940Y849386D01*
X1219797Y847961D01*
X1221959Y847065D01*
X1224280Y846759D01*
X1226601Y847065D01*
X1228763Y847961D01*
X1230620Y849386D01*
X1232045Y851243D01*
X1232941Y853405D01*
X1233247Y855726D01*
X1232941Y858047D01*
X1232045Y860209D01*
X1230620Y862066D01*
X1228763Y863491D01*
X1228165Y863739D01*
Y875960D01*
X1229304Y876522D01*
X1229957Y876021D01*
X1232119Y875125D01*
X1234440Y874819D01*
X1236761Y875125D01*
X1238923Y876021D01*
X1239576Y876522D01*
X1240715Y875960D01*
Y780627D01*
X1220639Y760551D01*
X1216236D01*
X1215610Y761821D01*
X1216540Y763033D01*
X1217552Y765475D01*
X1217729Y766826D01*
X1207770D01*
Y769366D01*
X1217729D01*
X1217552Y770717D01*
X1216540Y773159D01*
X1214931Y775257D01*
X1212833Y776866D01*
X1210391Y777878D01*
X1208494Y778127D01*
X1203668Y782953D01*
X1204387Y784030D01*
X1205149Y783714D01*
X1207770Y783369D01*
X1210391Y783714D01*
X1212833Y784726D01*
X1214931Y786335D01*
X1216540Y788433D01*
X1217552Y790875D01*
X1217897Y793496D01*
X1217552Y796117D01*
X1216540Y798559D01*
X1214931Y800657D01*
X1212833Y802266D01*
X1210391Y803278D01*
X1207770Y803623D01*
X1205149Y803278D01*
X1202707Y802266D01*
X1200609Y800657D01*
X1199000Y798559D01*
X1197988Y796117D01*
X1197643Y793496D01*
X1197988Y790875D01*
X1198304Y790113D01*
X1197227Y789394D01*
X1188705Y797916D01*
Y977471D01*
X1189975Y979126D01*
X1190999Y981598D01*
X1191180Y982980D01*
X1181100D01*
Y985520D01*
X1191180D01*
X1190999Y986902D01*
X1189975Y989374D01*
X1188705Y991029D01*
Y1089050D01*
X1207224Y1107569D01*
X1209121Y1107818D01*
X1211563Y1108830D01*
X1213661Y1110439D01*
X1214045Y1110941D01*
X1215315Y1110510D01*
D02*
G37*
G36*
X1165785Y978408D02*
Y929217D01*
X1158538Y921969D01*
X1157461Y922689D01*
X1158011Y924017D01*
X1158317Y926338D01*
X1158011Y928659D01*
X1157115Y930821D01*
X1155690Y932678D01*
X1153833Y934103D01*
X1151671Y934999D01*
X1149350Y935305D01*
X1147029Y934999D01*
X1146431Y934751D01*
X1145493Y935689D01*
X1144233Y936531D01*
X1142746Y936827D01*
X1138329D01*
X1137898Y938097D01*
X1138731Y938735D01*
X1140340Y940833D01*
X1141352Y943275D01*
X1141601Y945172D01*
X1161078Y964648D01*
X1162286Y966224D01*
X1163046Y968058D01*
X1163305Y970026D01*
Y977471D01*
X1164515Y979049D01*
X1164650Y979055D01*
X1165785Y978408D01*
D02*
G37*
G36*
X1452297Y917153D02*
Y877201D01*
X1451699Y876953D01*
X1449842Y875528D01*
X1448417Y873671D01*
X1447521Y871509D01*
X1447215Y869188D01*
X1447521Y866867D01*
X1448417Y864705D01*
X1449842Y862848D01*
X1451699Y861423D01*
X1453861Y860527D01*
X1456182Y860221D01*
X1458503Y860527D01*
X1460665Y861423D01*
X1462522Y862848D01*
X1463947Y864705D01*
X1464336Y865643D01*
X1465606Y865390D01*
Y855426D01*
X1370985Y760805D01*
X1354666D01*
X1354040Y762075D01*
X1354970Y763287D01*
X1355982Y765729D01*
X1356038Y766157D01*
X1357265Y766485D01*
X1357386Y766328D01*
X1359243Y764903D01*
X1361405Y764007D01*
X1363726Y763701D01*
X1366047Y764007D01*
X1368209Y764903D01*
X1370066Y766328D01*
X1371491Y768185D01*
X1372387Y770347D01*
X1372693Y772668D01*
X1372387Y774989D01*
X1372139Y775587D01*
X1437847Y841295D01*
X1438689Y842555D01*
X1438985Y844042D01*
Y916734D01*
X1440124Y917296D01*
X1440777Y916795D01*
X1442939Y915899D01*
X1445260Y915593D01*
X1447581Y915899D01*
X1449743Y916795D01*
X1451027Y917780D01*
X1452297Y917153D01*
D02*
G37*
G36*
X1172985Y924507D02*
X1173495Y924189D01*
Y904013D01*
X1172225Y903644D01*
X1170597Y904893D01*
X1168435Y905789D01*
X1166114Y906095D01*
X1163793Y905789D01*
X1161631Y904893D01*
X1159774Y903468D01*
X1158349Y901611D01*
X1157453Y899449D01*
X1157147Y897128D01*
X1157453Y894807D01*
X1158349Y892645D01*
X1159774Y890788D01*
X1161631Y889363D01*
X1162229Y889115D01*
Y876947D01*
X1161631Y876699D01*
X1159774Y875274D01*
X1158349Y873417D01*
X1157453Y871255D01*
X1157147Y868934D01*
X1157453Y866613D01*
X1158349Y864451D01*
X1159774Y862594D01*
X1161631Y861169D01*
X1163793Y860273D01*
X1166114Y859967D01*
X1168435Y860273D01*
X1170597Y861169D01*
X1172225Y862418D01*
X1173495Y862049D01*
Y794766D01*
X1173754Y792798D01*
X1174514Y790964D01*
X1175722Y789388D01*
X1197739Y767372D01*
X1197968Y765630D01*
X1197668Y765341D01*
X1196817Y764985D01*
X1148872Y812930D01*
X1146883Y883775D01*
X1146726Y884462D01*
X1146589Y885153D01*
X1146558Y885199D01*
X1146546Y885253D01*
X1146138Y885827D01*
X1145747Y886413D01*
X1145701Y886444D01*
X1145669Y886489D01*
X1145072Y886864D01*
X1144487Y887255D01*
X1144432Y887266D01*
X1144385Y887295D01*
X1143691Y887413D01*
X1143000Y887551D01*
X1140036D01*
X1139410Y888821D01*
X1140340Y890033D01*
X1141352Y892475D01*
X1141697Y895096D01*
X1141352Y897717D01*
X1140863Y898896D01*
X1154261Y912293D01*
X1158240D01*
X1159727Y912589D01*
X1160987Y913431D01*
X1172225Y924669D01*
X1172985Y924507D01*
D02*
G37*
G36*
X1021677Y1057511D02*
X1022275Y1057263D01*
Y896718D01*
X1021005Y896332D01*
X1020905Y896482D01*
X1019885Y897503D01*
Y1057450D01*
X1021024Y1058012D01*
X1021677Y1057511D01*
D02*
G37*
G36*
X1240925Y1033229D02*
X1240715Y1032176D01*
Y891612D01*
X1239576Y891050D01*
X1238923Y891551D01*
X1238325Y891799D01*
Y1032425D01*
X1239754Y1033855D01*
X1240925Y1033229D01*
D02*
G37*
G36*
X1431215Y1013852D02*
Y875206D01*
X1429945Y874580D01*
X1429169Y875175D01*
X1428571Y875423D01*
Y1012867D01*
X1430042Y1014338D01*
X1431215Y1013852D01*
D02*
G37*
G36*
X1098485Y873816D02*
Y835391D01*
X1093749D01*
X1093341Y836594D01*
X1093460Y836686D01*
X1094885Y838543D01*
X1095781Y840705D01*
X1096087Y843026D01*
X1095781Y845347D01*
X1094885Y847509D01*
X1093460Y849366D01*
X1091603Y850791D01*
X1091005Y851039D01*
Y871862D01*
X1091960Y872699D01*
X1092200Y872667D01*
X1094521Y872973D01*
X1096683Y873869D01*
X1097346Y874377D01*
X1098485Y873816D01*
D02*
G37*
G36*
X1078508Y845465D02*
X1078459Y845347D01*
X1078153Y843026D01*
X1078459Y840705D01*
X1079355Y838543D01*
X1080780Y836686D01*
X1080899Y836594D01*
X1080491Y835391D01*
X1076572D01*
X1076363Y835551D01*
X1074201Y836447D01*
X1071880Y836753D01*
X1059180D01*
X1056859Y836447D01*
X1054697Y835551D01*
X1054044Y835050D01*
X1052905Y835612D01*
Y845360D01*
X1054044Y845922D01*
X1054697Y845421D01*
X1056859Y844525D01*
X1059180Y844219D01*
X1071880D01*
X1074201Y844525D01*
X1076363Y845421D01*
X1077465Y846266D01*
X1078508Y845465D01*
D02*
G37*
G36*
X1390512Y1027622D02*
X1390319Y1026160D01*
X1390625Y1023839D01*
X1391521Y1021677D01*
X1392946Y1019820D01*
X1394803Y1018395D01*
X1395401Y1018147D01*
Y848445D01*
X1350000Y803043D01*
X1348821Y803532D01*
X1346200Y803877D01*
X1343579Y803532D01*
X1341137Y802520D01*
X1339039Y800911D01*
X1337430Y798813D01*
X1336418Y796371D01*
X1336073Y793750D01*
X1336418Y791129D01*
X1336734Y790367D01*
X1335657Y789648D01*
X1328405Y796900D01*
Y977471D01*
X1329675Y979126D01*
X1330699Y981598D01*
X1330880Y982980D01*
X1320800D01*
Y985520D01*
X1330880D01*
X1330699Y986902D01*
X1329675Y989374D01*
X1328046Y991496D01*
X1325924Y993125D01*
X1323452Y994148D01*
X1321932Y994349D01*
X1321477Y995689D01*
X1322409Y996621D01*
X1356106D01*
X1356407Y996681D01*
X1357260Y995556D01*
X1356589Y993937D01*
X1356283Y991616D01*
X1356589Y989295D01*
X1357485Y987133D01*
X1358910Y985276D01*
X1360767Y983851D01*
X1361365Y983603D01*
Y966809D01*
X1350746Y956190D01*
X1336160D01*
Y936110D01*
X1356240D01*
Y950696D01*
X1367997Y962453D01*
X1368839Y963713D01*
X1369135Y965200D01*
Y983603D01*
X1369733Y983851D01*
X1371590Y985276D01*
X1373015Y987133D01*
X1373811Y989054D01*
X1375081Y988802D01*
Y853525D01*
X1350000Y828443D01*
X1348821Y828932D01*
X1346200Y829277D01*
X1343579Y828932D01*
X1341137Y827920D01*
X1339039Y826311D01*
X1337430Y824213D01*
X1336418Y821771D01*
X1336073Y819150D01*
X1336418Y816529D01*
X1337430Y814087D01*
X1339039Y811989D01*
X1341137Y810380D01*
X1343579Y809368D01*
X1346200Y809023D01*
X1348821Y809368D01*
X1351263Y810380D01*
X1353361Y811989D01*
X1354970Y814087D01*
X1355982Y816529D01*
X1356327Y819150D01*
X1355982Y821771D01*
X1355493Y822950D01*
X1381713Y849169D01*
X1382555Y850429D01*
X1382851Y851916D01*
Y1000113D01*
X1383449Y1000361D01*
X1385306Y1001786D01*
X1386731Y1003643D01*
X1387627Y1005805D01*
X1387933Y1008126D01*
X1387627Y1010447D01*
X1386731Y1012609D01*
X1385306Y1014466D01*
X1383449Y1015891D01*
X1381287Y1016787D01*
X1379864Y1016974D01*
X1379409Y1018315D01*
X1389309Y1028215D01*
X1390512Y1027622D01*
D02*
G37*
G36*
X1264937Y835780D02*
X1267379Y834768D01*
X1270000Y834423D01*
X1272621Y834768D01*
X1273800Y835257D01*
X1296595Y812461D01*
Y767080D01*
X1296891Y765593D01*
X1297733Y764333D01*
X1307104Y754963D01*
X1306577Y753693D01*
X1226564D01*
X1226038Y754963D01*
X1242385Y771310D01*
X1242804Y771172D01*
X1243523Y770651D01*
X1243253Y768604D01*
X1243559Y766283D01*
X1244455Y764121D01*
X1245880Y762264D01*
X1247737Y760839D01*
X1249899Y759943D01*
X1252220Y759637D01*
X1254541Y759943D01*
X1256703Y760839D01*
X1258560Y762264D01*
X1259677Y763718D01*
X1261076Y763658D01*
X1261230Y763287D01*
X1262839Y761189D01*
X1264937Y759580D01*
X1267379Y758568D01*
X1270000Y758223D01*
X1272621Y758568D01*
X1275063Y759580D01*
X1277161Y761189D01*
X1278770Y763287D01*
X1279782Y765729D01*
X1280127Y768350D01*
X1279782Y770971D01*
X1278770Y773413D01*
X1277161Y775511D01*
X1275063Y777120D01*
X1272621Y778132D01*
X1270000Y778477D01*
X1267379Y778132D01*
X1264937Y777120D01*
X1262839Y775511D01*
X1261230Y773413D01*
X1261159Y773241D01*
X1259813Y773312D01*
X1258560Y774944D01*
X1256703Y776369D01*
X1256105Y776617D01*
Y825892D01*
X1257278Y826378D01*
X1260707Y822950D01*
X1260218Y821771D01*
X1259873Y819150D01*
X1260218Y816529D01*
X1261230Y814087D01*
X1262839Y811989D01*
X1264937Y810380D01*
X1267379Y809368D01*
X1270000Y809023D01*
X1272621Y809368D01*
X1275063Y810380D01*
X1277161Y811989D01*
X1278770Y814087D01*
X1279782Y816529D01*
X1280127Y819150D01*
X1279782Y821771D01*
X1278770Y824213D01*
X1277161Y826311D01*
X1275063Y827920D01*
X1272621Y828932D01*
X1270000Y829277D01*
X1267379Y828932D01*
X1266200Y828443D01*
X1262455Y832189D01*
Y836084D01*
X1263725Y836710D01*
X1264937Y835780D01*
D02*
G37*
G36*
X1032605Y1057415D02*
Y806650D01*
X1031431Y806164D01*
X1030045Y807551D01*
Y1057263D01*
X1030643Y1057511D01*
X1031335Y1058041D01*
X1032605Y1057415D01*
D02*
G37*
G36*
X1116255Y816748D02*
Y812800D01*
X1116551Y811313D01*
X1117393Y810053D01*
X1122727Y804719D01*
X1123987Y803877D01*
X1125474Y803581D01*
X1126364D01*
X1126616Y802311D01*
X1126507Y802266D01*
X1124409Y800657D01*
X1122800Y798559D01*
X1122312Y797381D01*
X1080783D01*
X1079955Y798651D01*
X1080541Y800065D01*
X1080679Y801116D01*
X1065530D01*
Y803656D01*
X1080679D01*
X1080541Y804707D01*
X1079645Y806869D01*
X1078220Y808726D01*
X1076650Y809931D01*
X1076978Y811201D01*
X1107440D01*
X1108927Y811497D01*
X1110187Y812339D01*
X1115082Y817234D01*
X1116255Y816748D01*
D02*
G37*
%LPC*%
G36*
X1263650Y1337398D02*
X1260998Y1337048D01*
X1258526Y1336025D01*
X1256404Y1334396D01*
X1254775Y1332274D01*
X1253752Y1329802D01*
X1253402Y1327150D01*
X1253752Y1324498D01*
X1254775Y1322026D01*
X1256404Y1319904D01*
X1258526Y1318275D01*
X1260998Y1317251D01*
X1263650Y1316902D01*
X1266302Y1317251D01*
X1268774Y1318275D01*
X1270896Y1319904D01*
X1272525Y1322026D01*
X1273549Y1324498D01*
X1273898Y1327150D01*
X1273549Y1329802D01*
X1272525Y1332274D01*
X1270896Y1334396D01*
X1268774Y1336025D01*
X1266302Y1337048D01*
X1263650Y1337398D01*
D02*
G37*
G36*
X1238250D02*
X1235598Y1337048D01*
X1233126Y1336025D01*
X1231004Y1334396D01*
X1229375Y1332274D01*
X1228352Y1329802D01*
X1228002Y1327150D01*
X1228352Y1324498D01*
X1229375Y1322026D01*
X1231004Y1319904D01*
X1233126Y1318275D01*
X1235598Y1317251D01*
X1238250Y1316902D01*
X1240902Y1317251D01*
X1243374Y1318275D01*
X1245496Y1319904D01*
X1247125Y1322026D01*
X1248148Y1324498D01*
X1248498Y1327150D01*
X1248148Y1329802D01*
X1247125Y1332274D01*
X1245496Y1334396D01*
X1243374Y1336025D01*
X1240902Y1337048D01*
X1238250Y1337398D01*
D02*
G37*
G36*
X1555750Y1184998D02*
X1553098Y1184649D01*
X1550626Y1183625D01*
X1548504Y1181996D01*
X1546875Y1179874D01*
X1545851Y1177402D01*
X1545502Y1174750D01*
X1545851Y1172098D01*
X1546875Y1169626D01*
X1548504Y1167504D01*
X1550626Y1165875D01*
X1553098Y1164852D01*
X1555750Y1164502D01*
X1558402Y1164852D01*
X1560874Y1165875D01*
X1562996Y1167504D01*
X1564625Y1169626D01*
X1565648Y1172098D01*
X1565998Y1174750D01*
X1565648Y1177402D01*
X1564625Y1179874D01*
X1562996Y1181996D01*
X1560874Y1183625D01*
X1558402Y1184649D01*
X1555750Y1184998D01*
D02*
G37*
G36*
X1384300Y1134198D02*
X1381648Y1133848D01*
X1379176Y1132825D01*
X1377054Y1131196D01*
X1375425Y1129074D01*
X1374402Y1126602D01*
X1374052Y1123950D01*
X1374402Y1121298D01*
X1375425Y1118826D01*
X1377054Y1116704D01*
X1379176Y1115075D01*
X1381648Y1114052D01*
X1384300Y1113702D01*
X1386952Y1114052D01*
X1389424Y1115075D01*
X1391546Y1116704D01*
X1393175Y1118826D01*
X1394198Y1121298D01*
X1394548Y1123950D01*
X1394198Y1126602D01*
X1393175Y1129074D01*
X1391546Y1131196D01*
X1389424Y1132825D01*
X1386952Y1133848D01*
X1384300Y1134198D01*
D02*
G37*
G36*
X944880Y989153D02*
X932180D01*
X929859Y988847D01*
X927697Y987951D01*
X925840Y986526D01*
X924415Y984669D01*
X923519Y982507D01*
X923213Y980186D01*
X923519Y977865D01*
X924415Y975703D01*
X925840Y973846D01*
X927697Y972421D01*
X929859Y971525D01*
X932180Y971219D01*
X944880D01*
X947201Y971525D01*
X949363Y972421D01*
X951220Y973846D01*
X952645Y975703D01*
X953541Y977865D01*
X953847Y980186D01*
X953541Y982507D01*
X952645Y984669D01*
X951220Y986526D01*
X949363Y987951D01*
X947201Y988847D01*
X944880Y989153D01*
D02*
G37*
G36*
Y963753D02*
X932180D01*
X929859Y963447D01*
X927697Y962551D01*
X925840Y961126D01*
X924415Y959269D01*
X923519Y957107D01*
X923213Y954786D01*
X923519Y952465D01*
X924415Y950303D01*
X925840Y948446D01*
X927697Y947021D01*
X929859Y946125D01*
X932180Y945819D01*
X944880D01*
X947201Y946125D01*
X949363Y947021D01*
X951220Y948446D01*
X952645Y950303D01*
X953541Y952465D01*
X953847Y954786D01*
X953541Y957107D01*
X952645Y959269D01*
X951220Y961126D01*
X949363Y962551D01*
X947201Y963447D01*
X944880Y963753D01*
D02*
G37*
G36*
Y938353D02*
X932180D01*
X929859Y938047D01*
X927697Y937151D01*
X925840Y935726D01*
X924415Y933869D01*
X923519Y931707D01*
X923213Y929386D01*
X923519Y927065D01*
X924415Y924903D01*
X925840Y923046D01*
X927697Y921621D01*
X929859Y920725D01*
X932180Y920419D01*
X944880D01*
X947201Y920725D01*
X949363Y921621D01*
X951220Y923046D01*
X952645Y924903D01*
X953541Y927065D01*
X953847Y929386D01*
X953541Y931707D01*
X952645Y933869D01*
X951220Y935726D01*
X949363Y937151D01*
X947201Y938047D01*
X944880Y938353D01*
D02*
G37*
G36*
Y912953D02*
X932180D01*
X929859Y912647D01*
X927697Y911751D01*
X925840Y910326D01*
X924415Y908469D01*
X923519Y906307D01*
X923213Y903986D01*
X923519Y901665D01*
X924415Y899503D01*
X925840Y897646D01*
X927697Y896221D01*
X929859Y895325D01*
X932180Y895019D01*
X944880D01*
X947201Y895325D01*
X949363Y896221D01*
X951220Y897646D01*
X952645Y899503D01*
X953541Y901665D01*
X953847Y903986D01*
X953541Y906307D01*
X952645Y908469D01*
X951220Y910326D01*
X949363Y911751D01*
X947201Y912647D01*
X944880Y912953D01*
D02*
G37*
G36*
Y887553D02*
X932180D01*
X929859Y887247D01*
X927697Y886351D01*
X925840Y884926D01*
X924415Y883069D01*
X923519Y880907D01*
X923213Y878586D01*
X923519Y876265D01*
X924415Y874103D01*
X925840Y872246D01*
X927697Y870821D01*
X929859Y869925D01*
X932180Y869619D01*
X944880D01*
X947201Y869925D01*
X949363Y870821D01*
X951220Y872246D01*
X952645Y874103D01*
X953541Y876265D01*
X953847Y878586D01*
X953541Y880907D01*
X952645Y883069D01*
X951220Y884926D01*
X949363Y886351D01*
X947201Y887247D01*
X944880Y887553D01*
D02*
G37*
G36*
Y862153D02*
X932180D01*
X929859Y861847D01*
X927697Y860951D01*
X925840Y859526D01*
X924415Y857669D01*
X923519Y855507D01*
X923213Y853186D01*
X923519Y850865D01*
X924415Y848703D01*
X925840Y846846D01*
X927697Y845421D01*
X929859Y844525D01*
X932180Y844219D01*
X944880D01*
X947201Y844525D01*
X949363Y845421D01*
X951220Y846846D01*
X952645Y848703D01*
X953541Y850865D01*
X953847Y853186D01*
X953541Y855507D01*
X952645Y857669D01*
X951220Y859526D01*
X949363Y860951D01*
X947201Y861847D01*
X944880Y862153D01*
D02*
G37*
G36*
Y836753D02*
X932180D01*
X929859Y836447D01*
X927697Y835551D01*
X925840Y834126D01*
X924415Y832269D01*
X923519Y830107D01*
X923213Y827786D01*
X923519Y825465D01*
X924415Y823303D01*
X925840Y821446D01*
X927697Y820021D01*
X929859Y819125D01*
X932180Y818819D01*
X944880D01*
X947201Y819125D01*
X949363Y820021D01*
X951220Y821446D01*
X952645Y823303D01*
X953541Y825465D01*
X953847Y827786D01*
X953541Y830107D01*
X952645Y832269D01*
X951220Y834126D01*
X949363Y835551D01*
X947201Y836447D01*
X944880Y836753D01*
D02*
G37*
G36*
Y811353D02*
X932180D01*
X929859Y811047D01*
X927697Y810151D01*
X925840Y808726D01*
X924415Y806869D01*
X923519Y804707D01*
X923213Y802386D01*
X923519Y800065D01*
X924415Y797903D01*
X925840Y796046D01*
X927697Y794621D01*
X929859Y793725D01*
X932180Y793419D01*
X944880D01*
X947201Y793725D01*
X949363Y794621D01*
X951220Y796046D01*
X952645Y797903D01*
X953541Y800065D01*
X953847Y802386D01*
X953541Y804707D01*
X952645Y806869D01*
X951220Y808726D01*
X949363Y810151D01*
X947201Y811047D01*
X944880Y811353D01*
D02*
G37*
G36*
Y785953D02*
X932180D01*
X929859Y785647D01*
X927697Y784751D01*
X925840Y783326D01*
X924415Y781469D01*
X923519Y779307D01*
X923213Y776986D01*
X923519Y774665D01*
X924415Y772503D01*
X925840Y770646D01*
X927697Y769221D01*
X929859Y768325D01*
X932180Y768019D01*
X944880D01*
X947201Y768325D01*
X949363Y769221D01*
X951220Y770646D01*
X952645Y772503D01*
X953541Y774665D01*
X953847Y776986D01*
X953541Y779307D01*
X952645Y781469D01*
X951220Y783326D01*
X949363Y784751D01*
X947201Y785647D01*
X944880Y785953D01*
D02*
G37*
G36*
X1714500Y1331048D02*
X1711848Y1330699D01*
X1709376Y1329675D01*
X1707254Y1328046D01*
X1705625Y1325924D01*
X1704601Y1323452D01*
X1704252Y1320800D01*
X1704601Y1318148D01*
X1705625Y1315676D01*
X1707254Y1313554D01*
X1709376Y1311925D01*
X1711848Y1310901D01*
X1714500Y1310552D01*
X1717152Y1310901D01*
X1719624Y1311925D01*
X1721746Y1313554D01*
X1723375Y1315676D01*
X1724398Y1318148D01*
X1724748Y1320800D01*
X1724398Y1323452D01*
X1723375Y1325924D01*
X1721746Y1328046D01*
X1719624Y1329675D01*
X1717152Y1330699D01*
X1714500Y1331048D01*
D02*
G37*
G36*
Y1242148D02*
X1711848Y1241798D01*
X1709376Y1240775D01*
X1707254Y1239146D01*
X1705625Y1237024D01*
X1704601Y1234552D01*
X1704252Y1231900D01*
X1704601Y1229248D01*
X1705625Y1226776D01*
X1707254Y1224654D01*
X1709376Y1223025D01*
X1711848Y1222001D01*
X1714500Y1221652D01*
X1717152Y1222001D01*
X1719624Y1223025D01*
X1721746Y1224654D01*
X1723375Y1226776D01*
X1724398Y1229248D01*
X1724748Y1231900D01*
X1724398Y1234552D01*
X1723375Y1237024D01*
X1721746Y1239146D01*
X1719624Y1240775D01*
X1717152Y1241798D01*
X1714500Y1242148D01*
D02*
G37*
G36*
X1790700Y1229448D02*
X1788048Y1229099D01*
X1785576Y1228075D01*
X1783454Y1226446D01*
X1781825Y1224324D01*
X1780802Y1221852D01*
X1780452Y1219200D01*
X1780802Y1216548D01*
X1781825Y1214076D01*
X1783454Y1211954D01*
X1785576Y1210325D01*
X1788048Y1209302D01*
X1790700Y1208952D01*
X1793352Y1209302D01*
X1795824Y1210325D01*
X1797946Y1211954D01*
X1799575Y1214076D01*
X1800598Y1216548D01*
X1800948Y1219200D01*
X1800598Y1221852D01*
X1799575Y1224324D01*
X1797946Y1226446D01*
X1795824Y1228075D01*
X1793352Y1229099D01*
X1790700Y1229448D01*
D02*
G37*
G36*
X1714500Y1191348D02*
X1711848Y1190999D01*
X1709376Y1189975D01*
X1707254Y1188346D01*
X1705625Y1186224D01*
X1704601Y1183752D01*
X1704252Y1181100D01*
X1704601Y1178448D01*
X1705625Y1175976D01*
X1707254Y1173854D01*
X1709376Y1172225D01*
X1711848Y1171201D01*
X1714500Y1170852D01*
X1717152Y1171201D01*
X1719624Y1172225D01*
X1721746Y1173854D01*
X1723375Y1175976D01*
X1724398Y1178448D01*
X1724748Y1181100D01*
X1724398Y1183752D01*
X1723375Y1186224D01*
X1721746Y1188346D01*
X1719624Y1189975D01*
X1717152Y1190999D01*
X1714500Y1191348D01*
D02*
G37*
G36*
X1751330Y1177855D02*
X1750110Y1177694D01*
X1747789Y1176733D01*
X1745796Y1175204D01*
X1744267Y1173211D01*
X1743306Y1170890D01*
X1743145Y1169670D01*
X1751330D01*
Y1177855D01*
D02*
G37*
G36*
Y1167130D02*
X1743145D01*
X1743306Y1165910D01*
X1744267Y1163589D01*
X1745796Y1161596D01*
X1747789Y1160067D01*
X1750110Y1159106D01*
X1751330Y1158945D01*
Y1167130D01*
D02*
G37*
G36*
X1790700Y1305648D02*
X1788048Y1305298D01*
X1785576Y1304275D01*
X1783454Y1302646D01*
X1781825Y1300524D01*
X1780802Y1298052D01*
X1780452Y1295400D01*
X1780802Y1292748D01*
X1781825Y1290276D01*
X1783454Y1288154D01*
X1785576Y1286525D01*
X1788048Y1285502D01*
X1790700Y1285152D01*
X1793352Y1285502D01*
X1794592Y1286015D01*
X1824915Y1255691D01*
Y1177117D01*
X1823989Y1176733D01*
X1821996Y1175204D01*
X1820467Y1173211D01*
X1819506Y1170890D01*
X1819178Y1168400D01*
X1819506Y1165910D01*
X1820467Y1163589D01*
X1821996Y1161596D01*
X1823989Y1160067D01*
X1826310Y1159106D01*
X1828800Y1158778D01*
X1831290Y1159106D01*
X1833611Y1160067D01*
X1835604Y1161596D01*
X1837133Y1163589D01*
X1838094Y1165910D01*
X1838422Y1168400D01*
X1838094Y1170890D01*
X1837133Y1173211D01*
X1835604Y1175204D01*
X1833611Y1176733D01*
X1832685Y1177117D01*
Y1257300D01*
X1832389Y1258787D01*
X1831547Y1260047D01*
X1800085Y1291508D01*
X1800598Y1292748D01*
X1800948Y1295400D01*
X1800598Y1298052D01*
X1799575Y1300524D01*
X1797946Y1302646D01*
X1795824Y1304275D01*
X1793352Y1305298D01*
X1790700Y1305648D01*
D02*
G37*
G36*
X1705356Y1151098D02*
X1702866Y1150770D01*
X1700545Y1149809D01*
X1698552Y1148280D01*
X1697023Y1146287D01*
X1696062Y1143966D01*
X1695734Y1141476D01*
X1696062Y1138986D01*
X1697023Y1136665D01*
X1698552Y1134672D01*
X1700545Y1133143D01*
X1702866Y1132182D01*
X1705356Y1131854D01*
X1707846Y1132182D01*
X1710167Y1133143D01*
X1712160Y1134672D01*
X1713689Y1136665D01*
X1714650Y1138986D01*
X1714978Y1141476D01*
X1714650Y1143966D01*
X1713689Y1146287D01*
X1712160Y1148280D01*
X1710167Y1149809D01*
X1707846Y1150770D01*
X1705356Y1151098D01*
D02*
G37*
G36*
X1679956D02*
X1677466Y1150770D01*
X1675145Y1149809D01*
X1673152Y1148280D01*
X1671623Y1146287D01*
X1670662Y1143966D01*
X1670334Y1141476D01*
X1670662Y1138986D01*
X1671623Y1136665D01*
X1673152Y1134672D01*
X1675145Y1133143D01*
X1677466Y1132182D01*
X1679956Y1131854D01*
X1682446Y1132182D01*
X1684767Y1133143D01*
X1686760Y1134672D01*
X1688289Y1136665D01*
X1689250Y1138986D01*
X1689578Y1141476D01*
X1689250Y1143966D01*
X1688289Y1146287D01*
X1686760Y1148280D01*
X1684767Y1149809D01*
X1682446Y1150770D01*
X1679956Y1151098D01*
D02*
G37*
G36*
X1753870Y1177855D02*
Y1168400D01*
Y1158945D01*
X1755090Y1159106D01*
X1757411Y1160067D01*
X1758360Y1160795D01*
X1782470D01*
X1828815Y1114450D01*
Y1101062D01*
X1827545Y1100435D01*
X1825989Y1101629D01*
X1823363Y1102717D01*
X1820545Y1103088D01*
X1811655D01*
X1808837Y1102717D01*
X1806211Y1101629D01*
X1803956Y1099899D01*
X1803884Y1099805D01*
X1799844D01*
X1797876Y1099546D01*
X1796042Y1098786D01*
X1794466Y1097578D01*
X1789386Y1092498D01*
X1788178Y1090922D01*
X1787418Y1089088D01*
X1787159Y1087120D01*
Y1026668D01*
X1787418Y1024700D01*
X1788178Y1022866D01*
X1789386Y1021290D01*
X1821195Y989482D01*
Y984678D01*
X1819925Y983024D01*
X1818902Y980552D01*
X1818552Y977900D01*
X1818902Y975248D01*
X1819925Y972776D01*
X1821195Y971122D01*
Y931790D01*
X1817760D01*
Y909710D01*
X1839840D01*
Y931790D01*
X1836405D01*
Y971122D01*
X1837675Y972776D01*
X1838698Y975248D01*
X1839048Y977900D01*
X1838698Y980552D01*
X1837675Y983024D01*
X1836405Y984678D01*
Y992632D01*
X1836146Y994600D01*
X1835701Y995675D01*
X1835386Y996434D01*
X1834178Y998010D01*
X1802369Y1029818D01*
Y1033793D01*
X1803572Y1034202D01*
X1803956Y1033701D01*
X1806211Y1031971D01*
X1808837Y1030883D01*
X1811655Y1030512D01*
X1814830D01*
Y1041400D01*
Y1052288D01*
X1811655D01*
X1808837Y1051917D01*
X1806211Y1050829D01*
X1803956Y1049099D01*
X1803572Y1048598D01*
X1802369Y1049007D01*
Y1083970D01*
X1802738Y1084339D01*
X1803956Y1084501D01*
X1806211Y1082771D01*
X1808837Y1081683D01*
X1811655Y1081312D01*
X1820545D01*
X1823363Y1081683D01*
X1825989Y1082771D01*
X1827545Y1083964D01*
X1828815Y1083338D01*
Y1050262D01*
X1827545Y1049635D01*
X1825989Y1050829D01*
X1823363Y1051917D01*
X1820545Y1052288D01*
X1817370D01*
Y1041400D01*
Y1030512D01*
X1820545D01*
X1823363Y1030883D01*
X1825989Y1031971D01*
X1828244Y1033701D01*
X1828316Y1033795D01*
X1831340D01*
X1833308Y1034054D01*
X1835143Y1034814D01*
X1836718Y1036022D01*
X1841798Y1041102D01*
X1843006Y1042678D01*
X1843766Y1044512D01*
X1844025Y1046480D01*
Y1117600D01*
X1843766Y1119568D01*
X1843321Y1120643D01*
X1843006Y1121403D01*
X1841798Y1122978D01*
X1790998Y1173778D01*
X1789422Y1174986D01*
X1787588Y1175746D01*
X1785620Y1176005D01*
X1758360D01*
X1757411Y1176733D01*
X1755090Y1177694D01*
X1753870Y1177855D01*
D02*
G37*
G36*
X1593850Y1083398D02*
X1591198Y1083048D01*
X1588726Y1082025D01*
X1586604Y1080396D01*
X1584975Y1078274D01*
X1583952Y1075802D01*
X1583602Y1073150D01*
X1583952Y1070498D01*
X1584975Y1068026D01*
X1586604Y1065904D01*
X1588726Y1064275D01*
X1591198Y1063251D01*
X1593850Y1062902D01*
X1596502Y1063251D01*
X1598974Y1064275D01*
X1601096Y1065904D01*
X1602725Y1068026D01*
X1603748Y1070498D01*
X1604098Y1073150D01*
X1603748Y1075802D01*
X1602725Y1078274D01*
X1601096Y1080396D01*
X1598974Y1082025D01*
X1596502Y1083048D01*
X1593850Y1083398D01*
D02*
G37*
G36*
X1730756Y1074898D02*
X1728266Y1074570D01*
X1725945Y1073609D01*
X1723952Y1072080D01*
X1722423Y1070087D01*
X1721462Y1067766D01*
X1721134Y1065276D01*
X1721462Y1062786D01*
X1722423Y1060465D01*
X1723952Y1058472D01*
X1725945Y1056943D01*
X1728266Y1055982D01*
X1730756Y1055654D01*
X1733246Y1055982D01*
X1735567Y1056943D01*
X1737560Y1058472D01*
X1739089Y1060465D01*
X1740050Y1062786D01*
X1740378Y1065276D01*
X1740050Y1067766D01*
X1739089Y1070087D01*
X1737560Y1072080D01*
X1735567Y1073609D01*
X1733246Y1074570D01*
X1730756Y1074898D01*
D02*
G37*
G36*
X1705356D02*
X1702866Y1074570D01*
X1700545Y1073609D01*
X1698552Y1072080D01*
X1697023Y1070087D01*
X1696062Y1067766D01*
X1695734Y1065276D01*
X1696062Y1062786D01*
X1697023Y1060465D01*
X1698552Y1058472D01*
X1700545Y1056943D01*
X1702866Y1055982D01*
X1705356Y1055654D01*
X1707846Y1055982D01*
X1710167Y1056943D01*
X1712160Y1058472D01*
X1713689Y1060465D01*
X1714650Y1062786D01*
X1714978Y1065276D01*
X1714650Y1067766D01*
X1713689Y1070087D01*
X1712160Y1072080D01*
X1710167Y1073609D01*
X1707846Y1074570D01*
X1705356Y1074898D01*
D02*
G37*
G36*
X1679956D02*
X1677466Y1074570D01*
X1675145Y1073609D01*
X1673152Y1072080D01*
X1671623Y1070087D01*
X1670662Y1067766D01*
X1670334Y1065276D01*
X1670662Y1062786D01*
X1671623Y1060465D01*
X1673152Y1058472D01*
X1675145Y1056943D01*
X1677466Y1055982D01*
X1679956Y1055654D01*
X1682446Y1055982D01*
X1684767Y1056943D01*
X1686760Y1058472D01*
X1688289Y1060465D01*
X1689250Y1062786D01*
X1689578Y1065276D01*
X1689250Y1067766D01*
X1688289Y1070087D01*
X1686760Y1072080D01*
X1684767Y1073609D01*
X1682446Y1074570D01*
X1679956Y1074898D01*
D02*
G37*
G36*
X1779270Y987980D02*
Y979170D01*
X1788080D01*
X1787899Y980552D01*
X1786875Y983024D01*
X1785246Y985146D01*
X1783124Y986775D01*
X1780652Y987798D01*
X1779270Y987980D01*
D02*
G37*
G36*
X1776730D02*
X1775348Y987798D01*
X1772876Y986775D01*
X1770754Y985146D01*
X1769125Y983024D01*
X1768102Y980552D01*
X1767919Y979170D01*
X1776730D01*
Y987980D01*
D02*
G37*
G36*
X1830070Y906318D02*
Y896620D01*
X1839768D01*
X1839556Y898232D01*
X1838443Y900918D01*
X1836674Y903224D01*
X1834368Y904993D01*
X1831682Y906106D01*
X1830070Y906318D01*
D02*
G37*
G36*
X1839768Y894080D02*
X1830070D01*
Y884382D01*
X1831682Y884594D01*
X1834368Y885707D01*
X1836674Y887476D01*
X1838443Y889782D01*
X1839556Y892468D01*
X1839768Y894080D01*
D02*
G37*
G36*
X1637950Y913432D02*
X1634218Y913064D01*
X1630628Y911976D01*
X1627321Y910208D01*
X1624422Y907828D01*
X1622042Y904929D01*
X1620274Y901621D01*
X1619185Y898032D01*
X1618818Y894300D01*
X1619185Y890567D01*
X1620274Y886978D01*
X1622042Y883671D01*
X1624422Y880771D01*
X1627321Y878392D01*
X1630628Y876624D01*
X1634218Y875536D01*
X1637950Y875168D01*
X1641682Y875536D01*
X1645271Y876624D01*
X1648579Y878392D01*
X1651478Y880771D01*
X1653858Y883671D01*
X1655626Y886978D01*
X1656714Y890567D01*
X1657082Y894300D01*
X1656714Y898032D01*
X1655626Y901621D01*
X1653858Y904929D01*
X1651478Y907828D01*
X1648579Y910208D01*
X1645271Y911976D01*
X1641682Y913064D01*
X1637950Y913432D01*
D02*
G37*
G36*
X1813481Y811530D02*
X1804670D01*
Y802719D01*
X1806052Y802902D01*
X1808524Y803925D01*
X1810646Y805554D01*
X1812275Y807676D01*
X1813298Y810148D01*
X1813481Y811530D01*
D02*
G37*
G36*
X1802130D02*
X1793320D01*
X1793501Y810148D01*
X1794525Y807676D01*
X1796154Y805554D01*
X1798276Y803925D01*
X1800748Y802902D01*
X1802130Y802719D01*
Y811530D01*
D02*
G37*
G36*
X1788080Y976630D02*
X1767919D01*
X1768102Y975248D01*
X1769125Y972776D01*
X1770395Y971122D01*
Y905510D01*
X1770654Y903542D01*
X1771414Y901708D01*
X1772622Y900132D01*
X1782782Y889972D01*
X1784357Y888764D01*
X1786192Y888004D01*
X1788160Y887745D01*
X1808780D01*
X1809266Y886572D01*
X1798022Y875328D01*
X1796814Y873753D01*
X1796054Y871918D01*
X1795795Y869950D01*
Y819578D01*
X1794525Y817924D01*
X1793501Y815452D01*
X1793320Y814070D01*
X1813481D01*
X1813298Y815452D01*
X1812275Y817924D01*
X1811005Y819578D01*
Y866800D01*
X1816722Y872516D01*
X1817924Y871923D01*
X1817665Y869950D01*
X1818044Y867068D01*
X1819157Y864382D01*
X1820926Y862076D01*
X1821195Y861870D01*
Y819578D01*
X1819925Y817924D01*
X1818902Y815452D01*
X1818552Y812800D01*
X1818902Y810148D01*
X1819925Y807676D01*
X1821554Y805554D01*
X1823676Y803925D01*
X1826148Y802902D01*
X1828800Y802552D01*
X1831452Y802902D01*
X1833924Y803925D01*
X1836046Y805554D01*
X1837675Y807676D01*
X1838698Y810148D01*
X1839048Y812800D01*
X1838698Y815452D01*
X1837675Y817924D01*
X1836405Y819578D01*
Y861870D01*
X1836674Y862076D01*
X1838443Y864382D01*
X1839556Y867068D01*
X1839935Y869950D01*
X1839556Y872832D01*
X1838443Y875518D01*
X1836674Y877824D01*
X1834368Y879593D01*
X1831682Y880706D01*
X1828800Y881085D01*
X1826827Y880826D01*
X1826234Y882028D01*
X1827530Y883325D01*
Y895350D01*
Y906318D01*
X1825918Y906106D01*
X1823232Y904993D01*
X1820926Y903224D01*
X1820720Y902955D01*
X1791310D01*
X1785605Y908660D01*
Y971122D01*
X1786875Y972776D01*
X1787899Y975248D01*
X1788080Y976630D01*
D02*
G37*
G36*
X1250950Y1134198D02*
X1248298Y1133848D01*
X1245826Y1132825D01*
X1243704Y1131196D01*
X1242075Y1129074D01*
X1241051Y1126602D01*
X1240702Y1123950D01*
X1241051Y1121298D01*
X1242075Y1118826D01*
X1243704Y1116704D01*
X1245826Y1115075D01*
X1248298Y1114052D01*
X1250950Y1113702D01*
X1253602Y1114052D01*
X1256074Y1115075D01*
X1258196Y1116704D01*
X1259825Y1118826D01*
X1260848Y1121298D01*
X1261198Y1123950D01*
X1260848Y1126602D01*
X1259825Y1129074D01*
X1258196Y1131196D01*
X1256074Y1132825D01*
X1253602Y1133848D01*
X1250950Y1134198D01*
D02*
G37*
G36*
Y1083398D02*
X1248298Y1083048D01*
X1245826Y1082025D01*
X1243704Y1080396D01*
X1242075Y1078274D01*
X1241051Y1075802D01*
X1240702Y1073150D01*
X1241051Y1070498D01*
X1242075Y1068026D01*
X1243704Y1065904D01*
X1245826Y1064275D01*
X1248298Y1063251D01*
X1250950Y1062902D01*
X1253602Y1063251D01*
X1256074Y1064275D01*
X1258196Y1065904D01*
X1259825Y1068026D01*
X1260848Y1070498D01*
X1261198Y1073150D01*
X1260848Y1075802D01*
X1259825Y1078274D01*
X1258196Y1080396D01*
X1256074Y1082025D01*
X1253602Y1083048D01*
X1250950Y1083398D01*
D02*
G37*
G36*
X1046480Y1321217D02*
Y1313688D01*
X1054009D01*
X1053871Y1314739D01*
X1052975Y1316901D01*
X1051550Y1318758D01*
X1049693Y1320183D01*
X1047531Y1321079D01*
X1046480Y1321217D01*
D02*
G37*
G36*
X1080770Y1268476D02*
X1050290D01*
Y1250696D01*
X1080770D01*
Y1268476D01*
D02*
G37*
G36*
X1071880Y1243153D02*
X1059180D01*
X1056859Y1242847D01*
X1054697Y1241951D01*
X1052840Y1240526D01*
X1051415Y1238669D01*
X1050519Y1236507D01*
X1050213Y1234186D01*
X1050519Y1231865D01*
X1051415Y1229703D01*
X1052840Y1227846D01*
X1054697Y1226421D01*
X1056859Y1225525D01*
X1059180Y1225219D01*
X1071880D01*
X1074201Y1225525D01*
X1076363Y1226421D01*
X1078220Y1227846D01*
X1079645Y1229703D01*
X1080541Y1231865D01*
X1080847Y1234186D01*
X1080541Y1236507D01*
X1079645Y1238669D01*
X1078220Y1240526D01*
X1076363Y1241951D01*
X1074201Y1242847D01*
X1071880Y1243153D01*
D02*
G37*
G36*
X1130300Y1229327D02*
X1127679Y1228982D01*
X1125237Y1227970D01*
X1123139Y1226361D01*
X1121530Y1224263D01*
X1120518Y1221821D01*
X1120173Y1219200D01*
X1120518Y1216579D01*
X1121530Y1214137D01*
X1123139Y1212039D01*
X1125237Y1210430D01*
X1127679Y1209418D01*
X1130300Y1209073D01*
X1132921Y1209418D01*
X1135363Y1210430D01*
X1137461Y1212039D01*
X1139070Y1214137D01*
X1140082Y1216579D01*
X1140427Y1219200D01*
X1140082Y1221821D01*
X1139070Y1224263D01*
X1137461Y1226361D01*
X1135363Y1227970D01*
X1132921Y1228982D01*
X1130300Y1229327D01*
D02*
G37*
G36*
X1071880Y1217753D02*
X1059180D01*
X1056859Y1217447D01*
X1054697Y1216551D01*
X1052840Y1215126D01*
X1051415Y1213269D01*
X1050519Y1211107D01*
X1050213Y1208786D01*
X1050519Y1206465D01*
X1051415Y1204303D01*
X1052840Y1202446D01*
X1054697Y1201021D01*
X1056859Y1200125D01*
X1059180Y1199819D01*
X1071880D01*
X1074201Y1200125D01*
X1076363Y1201021D01*
X1078220Y1202446D01*
X1079645Y1204303D01*
X1080541Y1206465D01*
X1080847Y1208786D01*
X1080541Y1211107D01*
X1079645Y1213269D01*
X1078220Y1215126D01*
X1076363Y1216551D01*
X1074201Y1217447D01*
X1071880Y1217753D01*
D02*
G37*
G36*
X1130300Y1178527D02*
X1127679Y1178182D01*
X1125237Y1177170D01*
X1123139Y1175561D01*
X1121530Y1173463D01*
X1120518Y1171021D01*
X1120173Y1168400D01*
X1120518Y1165779D01*
X1121530Y1163337D01*
X1123139Y1161239D01*
X1125237Y1159630D01*
X1127679Y1158618D01*
X1130300Y1158273D01*
X1132921Y1158618D01*
X1135363Y1159630D01*
X1137461Y1161239D01*
X1139070Y1163337D01*
X1140082Y1165779D01*
X1140427Y1168400D01*
X1140082Y1171021D01*
X1139070Y1173463D01*
X1137461Y1175561D01*
X1135363Y1177170D01*
X1132921Y1178182D01*
X1130300Y1178527D01*
D02*
G37*
G36*
Y1153127D02*
X1127679Y1152782D01*
X1125237Y1151770D01*
X1123139Y1150161D01*
X1121530Y1148063D01*
X1120518Y1145621D01*
X1120173Y1143000D01*
X1120518Y1140379D01*
X1121530Y1137937D01*
X1123139Y1135839D01*
X1125237Y1134230D01*
X1127679Y1133218D01*
X1130300Y1132873D01*
X1132921Y1133218D01*
X1135363Y1134230D01*
X1137461Y1135839D01*
X1139070Y1137937D01*
X1140082Y1140379D01*
X1140427Y1143000D01*
X1140082Y1145621D01*
X1139070Y1148063D01*
X1137461Y1150161D01*
X1135363Y1151770D01*
X1132921Y1152782D01*
X1130300Y1153127D01*
D02*
G37*
G36*
X1473200Y1184998D02*
X1470548Y1184649D01*
X1468076Y1183625D01*
X1465954Y1181996D01*
X1464325Y1179874D01*
X1463302Y1177402D01*
X1462952Y1174750D01*
X1463302Y1172098D01*
X1464325Y1169626D01*
X1465954Y1167504D01*
X1468076Y1165875D01*
X1470548Y1164852D01*
X1473200Y1164502D01*
X1475852Y1164852D01*
X1478324Y1165875D01*
X1480446Y1167504D01*
X1482075Y1169626D01*
X1483098Y1172098D01*
X1483448Y1174750D01*
X1483098Y1177402D01*
X1482075Y1179874D01*
X1480446Y1181996D01*
X1478324Y1183625D01*
X1475852Y1184649D01*
X1473200Y1184998D01*
D02*
G37*
G36*
X1447800D02*
X1445148Y1184649D01*
X1442676Y1183625D01*
X1440554Y1181996D01*
X1438925Y1179874D01*
X1437901Y1177402D01*
X1437552Y1174750D01*
X1437901Y1172098D01*
X1438925Y1169626D01*
X1440554Y1167504D01*
X1442676Y1165875D01*
X1445148Y1164852D01*
X1447800Y1164502D01*
X1450452Y1164852D01*
X1452924Y1165875D01*
X1455046Y1167504D01*
X1456675Y1169626D01*
X1457699Y1172098D01*
X1458048Y1174750D01*
X1457699Y1177402D01*
X1456675Y1179874D01*
X1455046Y1181996D01*
X1452924Y1183625D01*
X1450452Y1184649D01*
X1447800Y1184998D01*
D02*
G37*
G36*
X1207770Y829023D02*
X1205149Y828678D01*
X1202707Y827666D01*
X1200609Y826057D01*
X1199000Y823959D01*
X1197988Y821517D01*
X1197643Y818896D01*
X1197988Y816275D01*
X1199000Y813833D01*
X1200609Y811735D01*
X1202707Y810126D01*
X1205149Y809114D01*
X1207770Y808769D01*
X1210391Y809114D01*
X1212833Y810126D01*
X1214931Y811735D01*
X1216540Y813833D01*
X1217552Y816275D01*
X1217897Y818896D01*
X1217552Y821517D01*
X1216540Y823959D01*
X1214931Y826057D01*
X1212833Y827666D01*
X1210391Y828678D01*
X1207770Y829023D01*
D02*
G37*
G36*
X1346200Y930877D02*
X1343579Y930532D01*
X1341137Y929520D01*
X1339039Y927911D01*
X1337430Y925813D01*
X1336418Y923371D01*
X1336073Y920750D01*
X1336418Y918129D01*
X1337430Y915687D01*
X1339039Y913589D01*
X1341137Y911980D01*
X1343579Y910968D01*
X1346200Y910623D01*
X1348821Y910968D01*
X1351263Y911980D01*
X1353361Y913589D01*
X1354970Y915687D01*
X1355982Y918129D01*
X1356327Y920750D01*
X1355982Y923371D01*
X1354970Y925813D01*
X1353361Y927911D01*
X1351263Y929520D01*
X1348821Y930532D01*
X1346200Y930877D01*
D02*
G37*
G36*
Y905477D02*
X1343579Y905132D01*
X1341137Y904120D01*
X1339039Y902511D01*
X1337430Y900413D01*
X1336418Y897971D01*
X1336073Y895350D01*
X1336418Y892729D01*
X1337430Y890287D01*
X1339039Y888189D01*
X1341137Y886580D01*
X1343579Y885568D01*
X1346200Y885223D01*
X1348821Y885568D01*
X1351263Y886580D01*
X1353361Y888189D01*
X1354970Y890287D01*
X1355982Y892729D01*
X1356327Y895350D01*
X1355982Y897971D01*
X1354970Y900413D01*
X1353361Y902511D01*
X1351263Y904120D01*
X1348821Y905132D01*
X1346200Y905477D01*
D02*
G37*
G36*
Y880077D02*
X1343579Y879732D01*
X1341137Y878720D01*
X1339039Y877111D01*
X1337430Y875013D01*
X1336418Y872571D01*
X1336073Y869950D01*
X1336418Y867329D01*
X1337430Y864887D01*
X1339039Y862789D01*
X1341137Y861180D01*
X1343579Y860168D01*
X1346200Y859823D01*
X1348821Y860168D01*
X1351263Y861180D01*
X1353361Y862789D01*
X1354970Y864887D01*
X1355982Y867329D01*
X1356327Y869950D01*
X1355982Y872571D01*
X1354970Y875013D01*
X1353361Y877111D01*
X1351263Y878720D01*
X1348821Y879732D01*
X1346200Y880077D01*
D02*
G37*
G36*
Y854677D02*
X1343579Y854332D01*
X1341137Y853320D01*
X1339039Y851711D01*
X1337430Y849613D01*
X1336418Y847171D01*
X1336073Y844550D01*
X1336418Y841929D01*
X1337430Y839487D01*
X1339039Y837389D01*
X1341137Y835780D01*
X1343579Y834768D01*
X1346200Y834423D01*
X1348821Y834768D01*
X1351263Y835780D01*
X1353361Y837389D01*
X1354970Y839487D01*
X1355982Y841929D01*
X1356327Y844550D01*
X1355982Y847171D01*
X1354970Y849613D01*
X1353361Y851711D01*
X1351263Y853320D01*
X1348821Y854332D01*
X1346200Y854677D01*
D02*
G37*
G36*
X1270000Y803877D02*
X1267379Y803532D01*
X1264937Y802520D01*
X1262839Y800911D01*
X1261230Y798813D01*
X1260218Y796371D01*
X1259873Y793750D01*
X1260218Y791129D01*
X1261230Y788687D01*
X1262839Y786589D01*
X1264937Y784980D01*
X1267379Y783968D01*
X1270000Y783623D01*
X1272621Y783968D01*
X1275063Y784980D01*
X1277161Y786589D01*
X1278770Y788687D01*
X1279782Y791129D01*
X1280127Y793750D01*
X1279782Y796371D01*
X1278770Y798813D01*
X1277161Y800911D01*
X1275063Y802520D01*
X1272621Y803532D01*
X1270000Y803877D01*
D02*
G37*
%LPD*%
D10*
X1155700Y1320800D02*
Y1327150D01*
Y1212516D02*
Y1320800D01*
X1295400Y971550D02*
Y984250D01*
X1270000Y946150D02*
X1295400Y971550D01*
X1816100Y1041400D02*
X1831340D01*
X1836420Y1046480D01*
Y1117600D01*
X1785620Y1168400D02*
X1836420Y1117600D01*
X1752600Y1168400D02*
X1785620D01*
X1040210Y1307418D02*
X1045210Y1312418D01*
X1040210Y804592D02*
Y1307418D01*
Y804592D02*
X1042416Y802386D01*
X1065530D01*
X1181100Y794766D02*
X1207770Y768096D01*
X1181100Y794766D02*
Y984250D01*
X1799844Y1092200D02*
X1816100D01*
X1794764Y1087120D02*
X1799844Y1092200D01*
X1794764Y1026668D02*
Y1087120D01*
Y1026668D02*
X1828800Y992632D01*
Y977900D02*
Y992632D01*
X1181100Y1143000D02*
Y1327150D01*
Y1143000D02*
X1206500Y1117600D01*
X1155700Y1212516D02*
X1162986Y1205230D01*
Y1015666D02*
Y1205230D01*
X1155700Y1008380D02*
X1162986Y1015666D01*
X1155700Y984250D02*
Y1008380D01*
X1120970Y945896D02*
X1131570D01*
X1106090Y931016D02*
X1120970Y945896D01*
X1106090Y829127D02*
Y931016D01*
X1104750Y827786D02*
X1106090Y829127D01*
X1065530Y827786D02*
X1104750D01*
X1130300Y1295400D02*
X1155700Y1320800D01*
X1334690Y1169590D02*
X1339850Y1174750D01*
X1334690Y1169590D02*
X1334690Y1154510D01*
X1319610D02*
X1334690D01*
X1311910Y1146810D02*
X1319610Y1154510D01*
X1311910Y1117600D02*
Y1146810D01*
Y1117600D02*
X1330960Y1098550D01*
X1339850D01*
X1352550Y1085850D01*
X1181100Y984250D02*
Y1092200D01*
X1206500Y1117600D01*
X1155700Y970026D02*
Y984250D01*
X1131570Y945896D02*
X1155700Y970026D01*
X1320800Y793750D02*
Y984250D01*
Y793750D02*
X1346200Y768350D01*
X1295400Y984250D02*
Y1041400D01*
X1327150Y1073150D01*
X1788160Y895350D02*
X1828800D01*
X1778000Y905510D02*
X1788160Y895350D01*
X1778000Y905510D02*
Y977900D01*
X1803400Y812800D02*
Y869950D01*
X1828800Y895350D01*
X1619250Y1085850D02*
X1638300Y1104900D01*
Y1181100D01*
Y1320800D02*
X1653540Y1305560D01*
Y1196340D02*
Y1305560D01*
X1638300Y1181100D02*
X1653540Y1196340D01*
X1828800Y812800D02*
Y869950D01*
Y920750D02*
Y977900D01*
D11*
X922020Y1109726D02*
Y1321816D01*
X1079500Y1081786D02*
Y1087120D01*
X1056386Y1098296D02*
Y1107186D01*
X1790700Y1295400D02*
X1828800Y1257300D01*
Y1168400D02*
Y1257300D01*
X1118870Y1256030D02*
X1130300Y1244600D01*
X1118870Y1256030D02*
Y1313434D01*
X1137920Y1332484D01*
X1131570Y895096D02*
X1152652Y916178D01*
X1158240D01*
X1169670Y927608D01*
Y1000506D01*
X1171956Y1002792D01*
Y1230899D01*
X1167130Y1235725D02*
X1171956Y1230899D01*
X1167130Y1235725D02*
Y1332230D01*
X1173480Y1338580D01*
X1192530D01*
X1194308Y1336802D01*
Y1265682D02*
Y1336802D01*
Y1265682D02*
X1201420Y1258570D01*
X1246823D01*
X1301750Y1313497D01*
Y1330960D01*
X1309370Y1338580D01*
X1360170D01*
X1371600Y1327150D01*
X1504950Y1206754D02*
Y1327150D01*
X1489202Y1191006D02*
X1504950Y1206754D01*
X1489202Y1133602D02*
Y1191006D01*
X1356106Y1000506D02*
X1489202Y1133602D01*
X1320800Y1000506D02*
X1356106D01*
X1308100Y987806D02*
X1320800Y1000506D01*
X1308100Y933450D02*
Y987806D01*
X1270000Y895350D02*
X1308100Y933450D01*
X1120140Y909066D02*
X1131570Y920496D01*
X1120140Y889000D02*
Y909066D01*
Y889000D02*
X1125474Y883666D01*
X1143000D01*
X1145032Y811276D01*
X1199642Y756666D01*
X1222248D01*
X1244600Y779018D01*
Y1032176D01*
X1298020Y1085596D01*
Y1161310D01*
X1303020Y1166310D01*
Y1215626D01*
X1397000Y1309606D01*
Y1327150D01*
X1515872Y1341628D02*
X1530350Y1327150D01*
X1499870Y1341628D02*
X1515872D01*
X1489202Y1330960D02*
X1499870Y1341628D01*
X1489202Y1281176D02*
Y1330960D01*
X1410970Y1202944D02*
X1489202Y1281176D01*
X1410970Y1119378D02*
Y1202944D01*
X1363472Y1071880D02*
X1410970Y1119378D01*
X1347724Y1071880D02*
X1363472D01*
X1332992Y1086612D02*
X1347724Y1071880D01*
X1317498Y1086612D02*
X1332992D01*
X1313984Y1073628D02*
X1317498Y1086612D01*
X1258570Y1018214D02*
X1313984Y1073628D01*
X1258570Y932180D02*
Y1018214D01*
Y932180D02*
X1270000Y920750D01*
X1148842Y1136142D02*
Y1193038D01*
X1130300Y1117600D02*
X1148842Y1136142D01*
X1356106Y1190244D02*
X1371600Y1174750D01*
X1337564Y1190244D02*
X1356106D01*
X1325880Y1178560D02*
X1337564Y1190244D01*
X1325880Y1168400D02*
Y1178560D01*
X1320800Y1163320D02*
X1325880Y1168400D01*
X1313434Y1163320D02*
X1320800D01*
X1303100Y1152986D02*
X1313434Y1163320D01*
X1303100Y1078310D02*
Y1152986D01*
X1252220Y1027430D02*
X1303100Y1078310D01*
X1252220Y768604D02*
Y1027430D01*
X1498346Y1168146D02*
X1504950Y1174750D01*
X1498346Y1080808D02*
Y1168146D01*
X1435100Y1017562D02*
X1498346Y1080808D01*
X1435100Y844042D02*
Y1017562D01*
X1363726Y772668D02*
X1435100Y844042D01*
X1207770Y869696D02*
X1219200Y881126D01*
Y1206500D01*
X1206500Y1219200D02*
X1219200Y1206500D01*
X1078230Y793496D02*
X1131570D01*
X1076960Y792226D02*
X1078230Y793496D01*
X1039876Y792226D02*
X1076960D01*
X1026160Y805942D02*
X1039876Y792226D01*
X1026160Y805942D02*
Y1065276D01*
X1456182Y869188D02*
Y928925D01*
X1449070Y936037D02*
X1456182Y928925D01*
X1449070Y936037D02*
Y984504D01*
X1530350Y1065785D01*
Y1174750D01*
X1258570Y830580D02*
X1270000Y819150D01*
X1258570Y830580D02*
Y849630D01*
X1264920Y855980D01*
X1277366D01*
X1300226Y878840D01*
Y895350D01*
X1459230Y946150D02*
Y973836D01*
X1581150Y1095756D01*
Y1174750D01*
X938530Y1030986D02*
X986536D01*
X999432Y1043882D01*
Y1328362D01*
X1014730Y1343660D01*
X1199923D01*
X1239520Y1304063D01*
Y1303020D02*
Y1304063D01*
X1206500Y1270000D02*
X1239520Y1303020D01*
X1065530Y1081786D02*
X1079500D01*
Y1087120D02*
X1086947Y1094567D01*
X1097280D01*
X1109958Y1081889D01*
Y1019556D02*
Y1081889D01*
X1378966Y851916D02*
Y1008126D01*
X1346200Y819150D02*
X1378966Y851916D01*
X1051560Y1132586D02*
X1065530D01*
X1049020Y1135126D02*
X1051560Y1132586D01*
X1049020Y1135126D02*
Y1166622D01*
X1052830Y1170432D01*
X1100328D01*
X1112520Y1158240D01*
Y1104900D02*
Y1158240D01*
Y1104900D02*
X1149096Y1068324D01*
Y1026414D02*
Y1068324D01*
X1365250Y965200D02*
Y991616D01*
X1346200Y946150D02*
X1365250Y965200D01*
X1065530Y1157986D02*
X1105408D01*
X1106170Y1102360D01*
X1120140Y1088390D01*
Y1039876D02*
Y1088390D01*
X1399286Y846836D02*
Y1026160D01*
X1346200Y793750D02*
X1399286Y846836D01*
X1458722Y1341628D02*
X1473200Y1327150D01*
X1393698Y1341628D02*
X1458722D01*
X1383030Y1330960D02*
X1393698Y1341628D01*
X1383030Y1320800D02*
Y1330960D01*
X1377950Y1315720D02*
X1383030Y1320800D01*
X1353820Y1315720D02*
X1377950D01*
X1224280Y1186180D02*
X1353820Y1315720D01*
X1224280Y855726D02*
Y1186180D01*
X1270000Y844550D02*
X1300480Y814070D01*
Y767080D02*
Y814070D01*
Y767080D02*
X1310640Y756920D01*
X1372594D01*
X1469491Y853817D01*
Y976731D01*
X1605280Y1112520D01*
Y1146556D01*
X1595120Y1156716D02*
X1605280Y1146556D01*
X1595120Y1156716D02*
Y1315720D01*
X1606550Y1327150D01*
X1555750D02*
X1567180Y1338580D01*
X1664970D01*
X1730756Y1272794D01*
Y1141476D02*
Y1272794D01*
X1517650Y1263650D02*
X1581150Y1327150D01*
X1517650Y1154430D02*
Y1263650D01*
X1505712Y1142492D02*
X1517650Y1154430D01*
X1505712Y1074420D02*
Y1142492D01*
X1443990Y1012698D02*
X1505712Y1074420D01*
X1443990Y925830D02*
Y1012698D01*
Y925830D02*
X1445260Y924560D01*
X1009650Y885952D02*
Y1196340D01*
X1007872Y884174D02*
X1009650Y885952D01*
X1087120Y843026D02*
Y876554D01*
X1092200Y881634D01*
X1166114Y868934D02*
Y897128D01*
X1234440Y883786D02*
Y1034034D01*
X1275080Y1074674D01*
Y1211072D01*
X1295908Y1231900D01*
X1424686Y867410D02*
Y1014476D01*
X1471930Y1061720D01*
Y1097280D01*
X1485900Y1111250D01*
X1120140Y858266D02*
X1131570Y869696D01*
X1120140Y812800D02*
Y858266D01*
Y812800D02*
X1125474Y807466D01*
X1140220D01*
X1142880Y804806D01*
Y787400D02*
Y804806D01*
X1137546Y782066D02*
X1142880Y787400D01*
X1087120Y782066D02*
X1137546D01*
X1082040Y787146D02*
X1087120Y782066D01*
X1026160Y787146D02*
X1082040D01*
X1018158Y795147D02*
X1026160Y787146D01*
X1018158Y795147D02*
Y893735D01*
X1016000Y895894D02*
X1018158Y893735D01*
X1016000Y895894D02*
Y1184539D01*
X1019810Y1188349D01*
Y1310640D01*
X1065530Y903986D02*
X1082040D01*
X1092454Y914400D01*
Y1082294D01*
X1314450Y1294638D02*
Y1327150D01*
X1251712Y1231900D02*
X1314450Y1294638D01*
X923544Y1005586D02*
X938530D01*
X918210Y1010920D02*
X923544Y1005586D01*
X918210Y1010920D02*
Y1090676D01*
X924560Y1097026D01*
X966216D01*
X970788Y1101598D01*
Y1283970D01*
X1100328Y1223772D02*
X1130300Y1193800D01*
X1100328Y1223772D02*
Y1298448D01*
X1056386Y1107186D02*
X1065530D01*
X1049020Y1090930D02*
X1056386Y1098296D01*
X1049020Y815848D02*
Y1090930D01*
Y815848D02*
X1049782Y815086D01*
X1107440D01*
X1115060Y822706D01*
Y920496D01*
X1127506Y932942D01*
X1142746D01*
X1149350Y926338D01*
X924560Y1107186D02*
X938530D01*
X922020Y1109726D02*
X924560Y1107186D01*
X922020Y1321816D02*
X947674D01*
D12*
X1490950Y894550D02*
D03*
X1637950Y894300D02*
D03*
D13*
X1638300Y1231900D02*
D03*
X1714500D02*
D03*
Y1181100D02*
D03*
X1638300D02*
D03*
X1714500Y1270000D02*
D03*
X1638300D02*
D03*
Y1320800D02*
D03*
X1714500D02*
D03*
X1517650Y1123950D02*
D03*
X1593850D02*
D03*
Y1073150D02*
D03*
X1517650D02*
D03*
X1384300Y1123950D02*
D03*
X1460500D02*
D03*
Y1073150D02*
D03*
X1384300D02*
D03*
X1250950Y1123950D02*
D03*
X1327150D02*
D03*
Y1073150D02*
D03*
X1250950D02*
D03*
X1790700Y1219200D02*
D03*
Y1295400D02*
D03*
X1352550Y1111250D02*
D03*
Y1085850D02*
D03*
X1619250Y1111250D02*
D03*
Y1085850D02*
D03*
X1485900Y1111250D02*
D03*
Y1085850D02*
D03*
X1155700Y1327150D02*
D03*
X1181100D02*
D03*
X1320800Y984250D02*
D03*
X1295400D02*
D03*
X1238250Y1327150D02*
D03*
X1263650D02*
D03*
X1289050D02*
D03*
X1314450D02*
D03*
X1339850D02*
D03*
Y1174750D02*
D03*
X1314450D02*
D03*
X1289050D02*
D03*
X1263650D02*
D03*
X1238250D02*
D03*
X1371600Y1327150D02*
D03*
X1397000D02*
D03*
X1422400D02*
D03*
X1447800D02*
D03*
X1473200D02*
D03*
Y1174750D02*
D03*
X1447800D02*
D03*
X1422400D02*
D03*
X1397000D02*
D03*
X1371600D02*
D03*
X1504950Y1327150D02*
D03*
X1530350D02*
D03*
X1555750D02*
D03*
X1581150D02*
D03*
X1606550D02*
D03*
Y1174750D02*
D03*
X1581150D02*
D03*
X1555750D02*
D03*
X1530350D02*
D03*
X1504950D02*
D03*
X1828800Y977900D02*
D03*
X1778000D02*
D03*
X1155700Y984250D02*
D03*
X1181100D02*
D03*
X1803400Y812800D02*
D03*
X1828800D02*
D03*
D14*
X938530Y776986D02*
D03*
Y802386D02*
D03*
Y827786D02*
D03*
Y853186D02*
D03*
Y878586D02*
D03*
Y903986D02*
D03*
Y929386D02*
D03*
Y954786D02*
D03*
Y980186D02*
D03*
Y1005586D02*
D03*
Y1030986D02*
D03*
Y1056386D02*
D03*
Y1081786D02*
D03*
Y1107186D02*
D03*
Y1132586D02*
D03*
Y1157986D02*
D03*
Y1183386D02*
D03*
Y1208786D02*
D03*
Y1234186D02*
D03*
Y1259586D02*
D03*
X1065530Y776986D02*
D03*
Y802386D02*
D03*
Y827786D02*
D03*
Y853186D02*
D03*
Y878586D02*
D03*
Y903986D02*
D03*
Y929386D02*
D03*
Y954786D02*
D03*
Y980186D02*
D03*
Y1005586D02*
D03*
Y1030986D02*
D03*
Y1056386D02*
D03*
Y1081786D02*
D03*
Y1107186D02*
D03*
Y1132586D02*
D03*
Y1157986D02*
D03*
Y1183386D02*
D03*
Y1208786D02*
D03*
Y1234186D02*
D03*
D15*
Y1259586D02*
D03*
D16*
X1828800Y1168400D02*
D03*
X1752600D02*
D03*
X1679956Y1141476D02*
D03*
Y1065276D02*
D03*
X1705356Y1141476D02*
D03*
Y1065276D02*
D03*
X1730756Y1141476D02*
D03*
Y1065276D02*
D03*
D17*
X1130300Y1117600D02*
D03*
Y1143000D02*
D03*
Y1168400D02*
D03*
Y1193800D02*
D03*
Y1219200D02*
D03*
Y1244600D02*
D03*
Y1270000D02*
D03*
Y1295400D02*
D03*
X1206500Y1117600D02*
D03*
Y1143000D02*
D03*
Y1168400D02*
D03*
Y1193800D02*
D03*
Y1219200D02*
D03*
Y1244600D02*
D03*
Y1270000D02*
D03*
X1131570Y768096D02*
D03*
Y793496D02*
D03*
Y818896D02*
D03*
Y844296D02*
D03*
Y869696D02*
D03*
Y895096D02*
D03*
Y920496D02*
D03*
Y945896D02*
D03*
X1207770Y768096D02*
D03*
Y793496D02*
D03*
Y818896D02*
D03*
Y844296D02*
D03*
Y869696D02*
D03*
Y895096D02*
D03*
Y920496D02*
D03*
X1270000Y768350D02*
D03*
Y793750D02*
D03*
Y819150D02*
D03*
Y844550D02*
D03*
Y869950D02*
D03*
Y895350D02*
D03*
Y920750D02*
D03*
Y946150D02*
D03*
X1346200Y768350D02*
D03*
Y793750D02*
D03*
Y819150D02*
D03*
Y844550D02*
D03*
Y869950D02*
D03*
Y895350D02*
D03*
Y920750D02*
D03*
D18*
X1206500Y1295400D02*
D03*
X1207770Y945896D02*
D03*
X1346200Y946150D02*
D03*
D19*
X947674Y1321816D02*
D03*
D20*
X1816100Y1041400D02*
D03*
Y1092200D02*
D03*
D21*
X1828800Y920750D02*
D03*
D22*
Y895350D02*
D03*
Y869950D02*
D03*
D23*
X1045210Y1312418D02*
D03*
X1137920Y1332484D02*
D03*
X1148842Y1193038D02*
D03*
X1252220Y768604D02*
D03*
X1363726Y772668D02*
D03*
X1026160Y1065276D02*
D03*
X1456182Y869188D02*
D03*
X1300226Y895350D02*
D03*
X1459230Y946150D02*
D03*
X1109958Y1019556D02*
D03*
X1378966Y1008126D02*
D03*
X1149096Y1026414D02*
D03*
X1365250Y991616D02*
D03*
X1120140Y1039876D02*
D03*
X1399286Y1026160D02*
D03*
X1224280Y855726D02*
D03*
X1445260Y924560D02*
D03*
X1009650Y1196340D02*
D03*
X1007872Y884174D02*
D03*
X1087120Y843026D02*
D03*
X1092200Y881634D02*
D03*
X1166114Y868934D02*
D03*
Y897128D02*
D03*
X1234440Y883786D02*
D03*
X1295908Y1231900D02*
D03*
X1424686Y867410D02*
D03*
X1019810Y1310640D02*
D03*
X1092454Y1082294D02*
D03*
X1251712Y1231900D02*
D03*
X970788Y1283970D02*
D03*
X1100328Y1298448D02*
D03*
X1149350Y926338D02*
D03*
M02*
