G04 Layer_Color=32896*
%FSLAX44Y44*%
%MOMM*%
G71*
G01*
G75*
%ADD11C,0.2540*%
%ADD36C,0.2000*%
%ADD37C,0.1500*%
D11*
X1513327Y930925D02*
G03*
X1468539Y930171I-22377J-1375D01*
G01*
X1468502Y861529D02*
G03*
X1513363Y861893I22448J-1979D01*
G01*
X1655763Y894300D02*
G03*
X1655763Y894300I-17813J0D01*
G01*
X995680Y1272286D02*
G03*
X1008380Y1272286I6350J0D01*
G01*
X1849792Y1257300D02*
G03*
X1849792Y1257300I-59092J0D01*
G01*
X1833880Y1092200D02*
G03*
X1833880Y1092200I-15240J0D01*
G01*
Y1041400D02*
G03*
X1833880Y1041400I-15240J0D01*
G01*
X1380200Y984800D02*
X1752950D01*
X1378450Y806800D02*
X1752950D01*
X1468450Y860050D02*
Y930171D01*
X1513450Y861894D02*
Y930300D01*
X1377950Y749300D02*
X1752950D01*
Y1039300D01*
X1377950D02*
X1752950D01*
X1377950Y749300D02*
Y1039300D01*
X1093470Y764286D02*
Y1272286D01*
X906780Y764286D02*
X1093470D01*
X906780D02*
Y1272286D01*
X995680D01*
X1008380D02*
X1093470D01*
X1339850Y1123950D02*
X1365250D01*
Y1073150D02*
Y1123950D01*
X1339850Y1073150D02*
X1365250D01*
X1339850D02*
Y1123950D01*
X1606550D02*
X1631950D01*
Y1073150D02*
Y1123950D01*
X1606550Y1073150D02*
X1631950D01*
X1606550D02*
Y1123950D01*
X1473200D02*
X1498600D01*
Y1073150D02*
Y1123950D01*
X1473200Y1073150D02*
X1498600D01*
X1473200D02*
Y1123950D01*
X1143000Y1314450D02*
Y1339850D01*
X1193800D01*
Y1314450D02*
Y1339850D01*
X1143000Y1314450D02*
X1193800D01*
X1333500Y971550D02*
Y996950D01*
X1282700Y971550D02*
X1333500D01*
X1282700D02*
Y996950D01*
X1333500D01*
X1807210Y1099820D02*
X1826260Y1080770D01*
X1811020Y1103630D02*
X1830070Y1084580D01*
X1807210Y1049020D02*
X1826260Y1029970D01*
X1811020Y1052830D02*
X1830070Y1033780D01*
X1772920Y1016000D02*
Y1117600D01*
Y1016000D02*
X1849120D01*
Y1117600D01*
X1838960Y1016000D02*
Y1117600D01*
X1772920D02*
X1849120D01*
X1800860Y1016000D02*
Y1117600D01*
X1765300Y965200D02*
X1841500D01*
Y990600D01*
X1765300D02*
X1841500D01*
X1765300Y965200D02*
Y990600D01*
X1143000Y971550D02*
Y996950D01*
X1193800D01*
Y971550D02*
Y996950D01*
X1143000Y971550D02*
X1193800D01*
X1790700Y800100D02*
Y825500D01*
X1841500D01*
Y800100D02*
Y825500D01*
X1790700Y800100D02*
X1841500D01*
X1727200Y1018535D02*
Y1003300D01*
Y1010918D01*
X1717043D01*
Y1018535D01*
Y1003300D01*
X1704347D02*
X1709426D01*
X1711965Y1005839D01*
Y1010918D01*
X1709426Y1013457D01*
X1704347D01*
X1701808Y1010918D01*
Y1008378D01*
X1711965D01*
X1694191Y1013457D02*
X1689112D01*
X1686573Y1010918D01*
Y1003300D01*
X1694191D01*
X1696730Y1005839D01*
X1694191Y1008378D01*
X1686573D01*
X1678956Y1015996D02*
Y1013457D01*
X1681495D01*
X1676416D01*
X1678956D01*
Y1005839D01*
X1676416Y1003300D01*
X1653564D02*
X1645946D01*
X1643407Y1005839D01*
X1645946Y1008378D01*
X1651025D01*
X1653564Y1010918D01*
X1651025Y1013457D01*
X1643407D01*
X1638329Y1003300D02*
X1633250D01*
X1635790D01*
Y1013457D01*
X1638329D01*
X1625633Y1003300D02*
Y1013457D01*
X1618015D01*
X1615476Y1010918D01*
Y1003300D01*
X1610398D02*
Y1018535D01*
Y1008378D02*
X1602780Y1013457D01*
X1610398Y1008378D02*
X1602780Y1003300D01*
X1794764Y1239518D02*
X1784607D01*
X1789686Y1244596D02*
Y1234439D01*
X1620523Y1145536D02*
X1623062Y1148075D01*
X1628141D01*
X1630680Y1145536D01*
Y1135379D01*
X1628141Y1132840D01*
X1623062D01*
X1620523Y1135379D01*
X1615445Y1145536D02*
X1612906Y1148075D01*
X1607827D01*
X1605288Y1145536D01*
Y1142997D01*
X1607827Y1140458D01*
X1610367D01*
X1607827D01*
X1605288Y1137918D01*
Y1135379D01*
X1607827Y1132840D01*
X1612906D01*
X1615445Y1135379D01*
X1487173Y1145536D02*
X1489713Y1148075D01*
X1494791D01*
X1497330Y1145536D01*
Y1135379D01*
X1494791Y1132840D01*
X1489713D01*
X1487173Y1135379D01*
X1474477Y1132840D02*
Y1148075D01*
X1482095Y1140458D01*
X1471938D01*
X1353823Y1145536D02*
X1356362Y1148075D01*
X1361441D01*
X1363980Y1145536D01*
Y1135379D01*
X1361441Y1132840D01*
X1356362D01*
X1353823Y1135379D01*
X1338588Y1148075D02*
X1348745D01*
Y1140458D01*
X1343667Y1142997D01*
X1341127D01*
X1338588Y1140458D01*
Y1135379D01*
X1341127Y1132840D01*
X1346206D01*
X1348745Y1135379D01*
X1834388Y1184656D02*
Y1199891D01*
X1826770D01*
X1824231Y1197352D01*
Y1192273D01*
X1826770Y1189734D01*
X1834388D01*
X1829310D02*
X1824231Y1184656D01*
X1819153D02*
X1814075D01*
X1816614D01*
Y1199891D01*
X1819153Y1197352D01*
X1790700Y961385D02*
Y948689D01*
X1788161Y946150D01*
X1783082D01*
X1780543Y948689D01*
Y961385D01*
X1775465Y946150D02*
X1770387D01*
X1772926D01*
Y961385D01*
X1775465Y958846D01*
X1371600Y980435D02*
Y967739D01*
X1369061Y965200D01*
X1363983D01*
X1361443Y967739D01*
Y980435D01*
X1346208Y965200D02*
X1356365D01*
X1346208Y975357D01*
Y977896D01*
X1348747Y980435D01*
X1353826D01*
X1356365Y977896D01*
X1092200Y1296411D02*
Y1283715D01*
X1089661Y1281176D01*
X1084583D01*
X1082043Y1283715D01*
Y1296411D01*
X1076965Y1293872D02*
X1074426Y1296411D01*
X1069347D01*
X1066808Y1293872D01*
Y1291333D01*
X1069347Y1288793D01*
X1071887D01*
X1069347D01*
X1066808Y1286254D01*
Y1283715D01*
X1069347Y1281176D01*
X1074426D01*
X1076965Y1283715D01*
X1238250Y974085D02*
Y961389D01*
X1235711Y958850D01*
X1230632D01*
X1228093Y961389D01*
Y974085D01*
X1215397Y958850D02*
Y974085D01*
X1223015Y966468D01*
X1212858D01*
X1247902Y1312667D02*
Y1299971D01*
X1245363Y1297432D01*
X1240285D01*
X1237745Y1299971D01*
Y1312667D01*
X1222510D02*
X1232667D01*
Y1305049D01*
X1227589Y1307589D01*
X1225049D01*
X1222510Y1305049D01*
Y1299971D01*
X1225049Y1297432D01*
X1230128D01*
X1232667Y1299971D01*
X1818643Y787396D02*
X1821183Y789935D01*
X1826261D01*
X1828800Y787396D01*
Y777239D01*
X1826261Y774700D01*
X1821183D01*
X1818643Y777239D01*
X1813565Y774700D02*
X1808487D01*
X1811026D01*
Y789935D01*
X1813565Y787396D01*
X1793243Y1003296D02*
X1795782Y1005835D01*
X1800861D01*
X1803400Y1003296D01*
Y993139D01*
X1800861Y990600D01*
X1795782D01*
X1793243Y993139D01*
X1778008Y990600D02*
X1788165D01*
X1778008Y1000757D01*
Y1003296D01*
X1780547Y1005835D01*
X1785626D01*
X1788165Y1003296D01*
X1848612Y1340607D02*
Y1325372D01*
X1838455D01*
X1823220Y1338068D02*
X1825759Y1340607D01*
X1830838D01*
X1833377Y1338068D01*
Y1335529D01*
X1830838Y1332990D01*
X1825759D01*
X1823220Y1330450D01*
Y1327911D01*
X1825759Y1325372D01*
X1830838D01*
X1833377Y1327911D01*
X1818142Y1325372D02*
X1813064D01*
X1815603D01*
Y1340607D01*
X1818142Y1338068D01*
X1765300Y1104900D02*
Y1120135D01*
X1757682D01*
X1755143Y1117596D01*
Y1112517D01*
X1757682Y1109978D01*
X1765300D01*
X1750065Y1104900D02*
X1744987D01*
X1747526D01*
Y1120135D01*
X1750065Y1117596D01*
X1297943Y1022346D02*
X1300482Y1024885D01*
X1305561D01*
X1308100Y1022346D01*
Y1012189D01*
X1305561Y1009650D01*
X1300482D01*
X1297943Y1012189D01*
X1282708Y1024885D02*
X1287787Y1022346D01*
X1292865Y1017268D01*
Y1012189D01*
X1290326Y1009650D01*
X1285247D01*
X1282708Y1012189D01*
Y1014728D01*
X1285247Y1017268D01*
X1292865D01*
X1130304Y1012193D02*
X1127765Y1014733D01*
Y1019811D01*
X1130304Y1022350D01*
X1140461D01*
X1143000Y1019811D01*
Y1014733D01*
X1140461Y1012193D01*
X1127765Y1007115D02*
Y996958D01*
X1130304D01*
X1140461Y1007115D01*
X1143000D01*
X1115825Y1338576D02*
X1118364Y1341115D01*
X1123443D01*
X1125982Y1338576D01*
Y1328419D01*
X1123443Y1325880D01*
X1118364D01*
X1115825Y1328419D01*
X1110747Y1338576D02*
X1108208Y1341115D01*
X1103129D01*
X1100590Y1338576D01*
Y1336037D01*
X1103129Y1333497D01*
X1100590Y1330958D01*
Y1328419D01*
X1103129Y1325880D01*
X1108208D01*
X1110747Y1328419D01*
Y1330958D01*
X1108208Y1333497D01*
X1110747Y1336037D01*
Y1338576D01*
X1108208Y1333497D02*
X1103129D01*
X1736852Y1157224D02*
Y1172459D01*
X1729234D01*
X1726695Y1169920D01*
Y1164842D01*
X1729234Y1162302D01*
X1736852D01*
X1731774D02*
X1726695Y1157224D01*
X1711460D02*
X1721617D01*
X1711460Y1167381D01*
Y1169920D01*
X1713999Y1172459D01*
X1719078D01*
X1721617Y1169920D01*
X1711452Y1157224D02*
Y1172459D01*
X1703835D01*
X1701295Y1169920D01*
Y1164842D01*
X1703835Y1162302D01*
X1711452D01*
X1706374D02*
X1701295Y1157224D01*
X1696217Y1169920D02*
X1693678Y1172459D01*
X1688599D01*
X1686060Y1169920D01*
Y1167381D01*
X1688599Y1164842D01*
X1691139D01*
X1688599D01*
X1686060Y1162302D01*
Y1159763D01*
X1688599Y1157224D01*
X1693678D01*
X1696217Y1159763D01*
X1686052Y1157224D02*
Y1172459D01*
X1678434D01*
X1675895Y1169920D01*
Y1164842D01*
X1678434Y1162302D01*
X1686052D01*
X1680974D02*
X1675895Y1157224D01*
X1663199D02*
Y1172459D01*
X1670817Y1164842D01*
X1660660D01*
X1060450Y1320800D02*
Y1336035D01*
X1052832D01*
X1050293Y1333496D01*
Y1328418D01*
X1052832Y1325878D01*
X1060450D01*
X1055372D02*
X1050293Y1320800D01*
X1037597D02*
X1042676D01*
X1045215Y1323339D01*
Y1328418D01*
X1042676Y1330957D01*
X1037597D01*
X1035058Y1328418D01*
Y1325878D01*
X1045215D01*
X1029980Y1320800D02*
X1024902D01*
X1027441D01*
Y1336035D01*
X1029980D01*
X1014745Y1330957D02*
X1009666D01*
X1007127Y1328418D01*
Y1320800D01*
X1014745D01*
X1017284Y1323339D01*
X1014745Y1325878D01*
X1007127D01*
X1002049Y1330957D02*
Y1323339D01*
X999510Y1320800D01*
X991892D01*
Y1318261D01*
X994431Y1315722D01*
X996971D01*
X991892Y1320800D02*
Y1330957D01*
D36*
X1162050Y1305000D02*
G03*
X1174750Y1305000I6350J0D01*
G01*
X1163320Y955496D02*
G03*
X1176020Y955496I6350J0D01*
G01*
X1301750Y955750D02*
G03*
X1314450Y955750I6350J0D01*
G01*
X1763014Y1168400D02*
X1765300D01*
X1816100D02*
X1818386D01*
X1765300Y1160780D02*
Y1168400D01*
Y1160780D02*
X1816100D01*
Y1176020D01*
X1765300D02*
X1816100D01*
X1765300Y1168400D02*
Y1176020D01*
X1141900Y1108000D02*
Y1305000D01*
X1194900Y1108000D02*
Y1305000D01*
X1141900Y1108000D02*
X1194900D01*
X1141900Y1305000D02*
X1162050D01*
X1174750D02*
X1194900D01*
X1679956Y1075690D02*
Y1077976D01*
Y1128776D02*
Y1131062D01*
Y1077976D02*
X1687576D01*
Y1128776D01*
X1672336D02*
X1687576D01*
X1672336Y1077976D02*
Y1128776D01*
Y1077976D02*
X1679956D01*
X1705356Y1075690D02*
Y1077976D01*
Y1128776D02*
Y1131062D01*
Y1077976D02*
X1712976D01*
Y1128776D01*
X1697736D02*
X1712976D01*
X1697736Y1077976D02*
Y1128776D01*
Y1077976D02*
X1705356D01*
X1730756Y1075690D02*
Y1077976D01*
Y1128776D02*
Y1131062D01*
Y1077976D02*
X1738376D01*
Y1128776D01*
X1723136D02*
X1738376D01*
X1723136Y1077976D02*
Y1128776D01*
Y1077976D02*
X1730756D01*
X1799800Y843350D02*
Y947350D01*
Y843350D02*
X1845800D01*
Y947350D01*
X1799800D02*
X1845800D01*
X1804800Y843350D02*
Y947350D01*
X1143170Y758496D02*
Y955496D01*
X1196170Y758496D02*
Y955496D01*
X1143170Y758496D02*
X1196170D01*
X1143170Y955496D02*
X1163320D01*
X1176020D02*
X1196170D01*
X1281600Y758750D02*
Y955750D01*
X1334600Y758750D02*
Y955750D01*
X1281600Y758750D02*
X1334600D01*
X1281600Y955750D02*
X1301750D01*
X1314450D02*
X1334600D01*
D37*
X1778204Y895350D02*
X1775705Y892851D01*
Y887852D01*
X1778204Y885353D01*
X1780703D01*
X1783202Y887852D01*
Y890352D01*
Y887852D01*
X1785702Y885353D01*
X1788201D01*
X1790700Y887852D01*
Y892851D01*
X1788201Y895350D01*
X1790700Y859953D02*
Y869950D01*
X1780703Y859953D01*
X1778204D01*
X1775705Y862452D01*
Y867451D01*
X1778204Y869950D01*
X1790700Y920750D02*
Y915752D01*
Y918251D01*
X1775705D01*
X1778204Y920750D01*
M02*
