M48
;Layer_Color=9474304
;FILE_FORMAT=4:4
METRIC,LZ
;TYPE=PLATED
T1F00S00C0.6350
T2F00S00C0.7112
T3F00S00C0.7620
T4F00S00C0.8500
T5F00S00C0.9000
T6F00S00C1.0160
T7F00S00C1.1000
T8F00S00C3.3000
%
T01
X0093853Y00776986
X0106553
Y00802386
Y00827786
Y00853186
Y00878586
Y00903986
Y00929386
Y00954786
Y00980186
Y01005586
Y01030986
Y01056386
Y01081786
Y01107186
Y01132586
Y01157986
Y01183386
X0093853
Y01157986
Y01132586
Y01107186
Y01081786
Y01056386
Y01030986
Y01005586
Y00980186
Y00954786
Y00929386
Y00903986
Y00878586
Y00853186
Y00827786
Y00802386
Y01208786
Y01234186
Y01259586
X0106553
Y01234186
Y01208786
T02
X0125222Y00768604
X01363726Y00772668
X01166114Y00868934
Y00897128
X0114935Y00926338
X01149096Y01026414
X0112014Y01039876
X01109958Y01019556
X01092454Y01082294
X0102616Y01065276
X01007872Y00884174
X010922Y00881634
X0108712Y00843026
X0122428Y00855726
X0123444Y00883786
X01300226Y0089535
X01424686Y0086741
X01456182Y00869188
X0144526Y0092456
X0145923Y0094615
X0136525Y00991616
X01378966Y01008126
X01399286Y0102616
X01295908Y012319
X01251712
X01148842Y01193038
X0100965Y0119634
X0101981Y0131064
X0104521Y01312418
X01100328Y01298448
X0113792Y01332484
X00970788Y0128397
T03
X011557Y0098425
X011811
X012954
X013208
X0135255Y0108585
Y0111125
X0133985Y0117475
X0131445
X0128905
X0126365
X0123825
X013716
X01397
X014224
X014478
X014732
X0150495
X0153035
X0155575
X0158115
X014859Y0111125
Y0108585
X0161925
Y0111125
X0160655Y0117475
X01778Y009779
X018288
Y008128
X018034
X017907Y012192
Y012954
X0160655Y0132715
X0158115
X0155575
X0153035
X0150495
X014732
X014478
X014224
X01397
X013716
X0133985
X0131445
X0128905
X0126365
X0123825
X011811
X011557
T04
X0125095Y0107315
Y0112395
X0132715
Y0107315
X013843
Y0112395
X014605
Y0107315
X0151765
Y0112395
X0159385
Y0107315
X01679956Y01065276
X01705356
X01730756
Y01141476
X01705356
X01679956
X017145Y011811
X017526Y011684
X018288
X016383Y011811
Y012319
Y0127
Y013208
X017145
Y0127
Y012319
T05
X0120777Y00768096
Y00793496
X0127Y0076835
X013462
X0113157Y00768096
Y00793496
Y00818896
Y00844296
Y00869696
Y00895096
Y00920496
Y00945896
X011303Y011176
Y01143
Y011684
X012065
Y01143
Y011176
X0120777Y00945896
Y00920496
Y00895096
Y00869696
Y00844296
Y00818896
X0127Y0081915
Y0079375
Y0084455
Y0086995
Y0089535
Y0092075
Y0094615
X013462
Y0092075
Y0089535
Y0086995
Y0084455
Y0081915
Y0079375
X012065Y011938
Y012192
Y012446
Y0127
Y012954
X011303
Y0127
Y012446
Y012192
Y011938
T06
X018161Y010414
Y010922
T07
X018288Y0086995
Y0089535
Y0092075
T08
X0149095Y0089455
X0163795Y008943
M30
